<?xml version="1.0" encoding="UTF-8"?>
<svg id="Hearldry" xmlns="http://www.w3.org/2000/svg" viewBox="0 0 72 72">
  <defs>
    <style>
      .cls-1 {
        fill: #fff;
      }
    </style>
  </defs>
  <path class="cls-1" d="M32.01,37.34c.93-.93,1.03-2.02,.13-2.92s-15.92-15.89-15.92-15.89c-.67-.67-1.75-.67-2.42,0l-2.56,2.56c-.67,.67-.67,1.75,0,2.42l11.11,11.11c.67,.67,.67,1.75,0,2.42l-11.13,11.13c-.67,.67-.67,1.75,0,2.42l2.56,2.56c.67,.67,1.75,.67,2.42,0,0,0,14.88-14.88,15.81-15.81Z"/>
  <path class="cls-1" d="M46.48,37.6c.93-.93,1.03-2.02,.13-2.92s-15.92-15.89-15.92-15.89c-.67-.67-1.75-.67-2.42,0l-2.56,2.56c-.67,.67-.67,1.75,0,2.42l11.11,11.11c.67,.67,.67,1.75,0,2.42l-11.13,11.13c-.67,.67-.67,1.75,0,2.42l2.56,2.56c.67,.67,1.75,.67,2.42,0,0,0,14.88-14.88,15.81-15.81Z"/>
  <path class="cls-1" d="M60.66,34.73c-.9-.9-15.92-15.89-15.92-15.89-.67-.67-1.75-.67-2.42,0l-2.56,2.56c-.67,.67-.67,1.75,0,2.42l11.11,11.11c.67,.67,.67,1.75,0,2.42l-11.13,11.13c-.67,.67-.67,1.75,0,2.42l2.56,2.56c.67,.67,1.75,.67,2.42,0,0,0,14.88-14.88,15.81-15.81,.93-.93,1.03-2.02,.13-2.92Z"/>
</svg>