<?xml version="1.0" encoding="UTF-8"?>
<svg id="Themed_shapes" data-name="Themed shapes" xmlns="http://www.w3.org/2000/svg" viewBox="0 0 72 72">
  <defs>
    <style>
      .cls-1 {
        fill: #fff;
      }
    </style>
  </defs>
  <path class="cls-1" d="M54.62,34.93l3.79-10.98-7.46,12.02c2.88,0,6.54,.04,9.43,.04l.71-1.09h-6.48Z"/>
  <path class="cls-1" d="M49.99,37.54h6.48s-4.16,10.97-4.16,10.97l7.59-11.75c-3.34,0-6.02,.02-9.4,.02l-.52,.77Z"/>
  <path class="cls-1" d="M19.33,23.92l-7.46,12.02c2.88,0,6.54,.04,9.43,.04l.71-1.09h-6.48s3.79-10.97,3.79-10.97Z"/>
  <path class="cls-1" d="M10.9,37.51h6.48s-4.16,10.97-4.16,10.97l7.59-11.75c-3.34,0-6.02,.02-9.4,.02l-.52,.77Z"/>
  <polygon class="cls-1" points="31.21 54.54 32.78 54.54 33.64 53.21 31.71 53.21 31.21 54.54"/>
  <polygon class="cls-1" points="30.5 56.42 31.57 56.42 32.28 55.31 30.92 55.31 30.5 56.42"/>
  <path class="cls-1" d="M25.71,36.74l-1.33,1.86,12.87-.02-5.06,13.36h2.27l9.79-15.17c-5.32-.02-12.41,.03-18.54-.03Z"/>
  <path class="cls-1" d="M38.22,20.03h-2.31l-9.64,15.92c6.17,.02,12.68,.07,18.52,.09l1.68-2.65-12.87,.02,4.63-13.39Z"/>
  <polygon class="cls-1" points="39.11 17.44 37.51 17.44 36.69 18.76 38.66 18.76 39.11 17.44"/>
  <polygon class="cls-1" points="29.94 57.91 30.6 57.91 31.07 57.19 30.21 57.19 29.94 57.91"/>
  <polygon class="cls-1" points="41.13 11.61 40.08 13.29 40.55 13.29 41.13 11.61"/>
  <polygon class="cls-1" points="39.76 15.56 38.68 15.56 37.99 16.66 39.38 16.66 39.76 15.56"/>
  <polygon class="cls-1" points="29 60.39 30.1 58.68 29.64 58.68 29 60.39"/>
  <polygon class="cls-1" points="40.28 14.07 39.6 14.07 39.16 14.79 40.03 14.79 40.28 14.07"/>
</svg>