<?xml version="1.0" encoding="UTF-8"?>
<svg id="Themed_shapes" data-name="Themed shapes" xmlns="http://www.w3.org/2000/svg" viewBox="0 0 72 72">
  <defs>
    <style>
      .cls-1 {
        fill: #fff;
      }
    </style>
  </defs>
  <g id="Stars_001">
    <polygon class="cls-1" points="21.43 29.5 26.05 24.99 19.66 24.06 16.8 18.27 13.95 24.06 7.56 24.99 12.18 29.5 11.09 35.86 16.8 32.85 22.52 35.86 21.43 29.5"/>
    <polygon class="cls-1" points="64.44 24.77 58.05 23.84 55.2 18.05 52.34 23.84 45.95 24.77 50.57 29.28 49.48 35.64 55.2 32.64 60.91 35.64 59.82 29.28 64.44 24.77"/>
    <polygon class="cls-1" points="37.97 35.41 36.41 32.24 34.84 35.41 31.34 35.92 33.88 38.39 33.28 41.88 36.41 40.23 39.54 41.88 38.94 38.39 41.47 35.92 37.97 35.41"/>
    <polygon class="cls-1" points="49.03 39.16 47.47 35.99 45.9 39.16 42.4 39.67 44.93 42.13 44.34 45.62 47.47 43.97 50.6 45.62 50 42.13 52.53 39.67 49.03 39.16"/>
    <polygon class="cls-1" points="26 42.43 28.53 39.96 25.03 39.45 23.47 36.28 21.9 39.45 18.4 39.96 20.93 42.43 20.34 45.91 23.47 44.27 26.6 45.91 26 42.43"/>
    <polygon class="cls-1" points="39.38 45.36 37.29 45.05 36.36 43.16 35.42 45.05 33.34 45.36 34.85 46.83 34.49 48.91 36.36 47.93 38.23 48.91 37.87 46.83 39.38 45.36"/>
    <polygon class="cls-1" points="44.02 48.97 43.09 47.07 42.15 48.97 40.07 49.27 41.58 50.74 41.22 52.82 43.09 51.84 44.95 52.82 44.6 50.74 46.11 49.27 44.02 48.97"/>
    <polygon class="cls-1" points="30.28 50.92 31.79 49.44 29.71 49.14 28.77 47.25 27.84 49.14 25.75 49.44 27.26 50.92 26.91 53 28.77 52.01 30.64 53 30.28 50.92"/>
    <polygon class="cls-1" points="36.73 53.1 36.18 51.99 35.63 53.1 34.41 53.28 35.29 54.14 35.08 55.36 36.18 54.79 37.28 55.36 37.07 54.14 37.95 53.28 36.73 53.1"/>
    <polygon class="cls-1" points="40.65 56.27 40.1 55.16 39.56 56.27 38.33 56.45 39.22 57.31 39.01 58.53 40.1 57.96 41.2 58.53 40.99 57.31 41.88 56.45 40.65 56.27"/>
    <polygon class="cls-1" points="32.25 56.37 31.7 55.26 31.15 56.37 29.93 56.55 30.82 57.41 30.61 58.64 31.7 58.06 32.8 58.64 32.59 57.41 33.48 56.55 32.25 56.37"/>
    <polygon class="cls-1" points="30.52 30.95 36.24 27.95 41.95 30.95 40.86 24.59 45.49 20.08 39.1 19.15 36.24 13.36 33.38 19.15 26.99 20.08 31.62 24.59 30.52 30.95"/>
  </g>
</svg>