<?xml version="1.0" encoding="UTF-8"?>
<svg id="Themed_shapes" data-name="Themed shapes" xmlns="http://www.w3.org/2000/svg" viewBox="0 0 72 72">
  <defs>
    <style>
      .cls-1 {
        fill: #fff;
      }
    </style>
  </defs>
  <path class="cls-1" d="M67.22,44.51h.09s.12-.09,.12-.09c.12-.1,.24-.2,.26-2.32l-.61-3.55-.02-.09s-.18-.39-.57-1.92c-.69-1.76-1.97-3.19-4.14-4.67-2.05-1.4-4.33-2.41-6.97-3.09-2.72-.69-11.43-2.81-11.55-2.84l-8.7-1.27c-5.78-1.97-13.1-4.38-15.11-4.62-1.65-.21-5.34-.88-8.6-1.47-4.17-.75-5.89-1.06-6.17-1.03l-.33,.07-.02,.29c-.04,.79,4.38,4.63,12.05,6.58-1.69-.16-3.78-.37-5.7-.57-4.56-.47-6.45-.65-6.74-.6l-.33,.09v.29c.01,.84,5.45,4.01,13.83,5.24,.09,.01,.17,.03,.27,.04-1.49-.08-3.02-.16-4.28-.01-.9,.1-2.33,.26-3.77,.4-3.24,.35-4.79,.51-5.01,.58l-.29,.11,.03,.28c.08,.79,8.48,2.41,13.46,2.94-3.52,.92-8.07,2.35-8.55,2.62l-.26,.18,.06,.25c.2,.8,6.07,1.79,8.19,1.79,.52,0,1.5-.11,2.96-.33-2.83,1.28-5.6,2.65-5.94,2.92l-.23,.21,.1,.25c.32,.76,6.25,.6,8.36,.29,.76-.11,2.35-.33,5.08-1.68-2.13,2.02-6.49,4.92-6.85,5.32l-.19,.24,.13,.22c.41,.64,5.82,.15,7.77-.46,.97-.3,3.61-1.67,6.61-3.3-1.96,1.71-4.36,4.05-4.58,4.39-.1,.15-.08,.35,.04,.49,.46,.54,3.62,.9,5.39,.08,.32-.15,.88-.52,1.71-1.13-1.02,1.34-1.99,2.72-2.09,2.97l-.08,.29,.19,.16c.44,.36,2.99,.09,4.4-.66-1.09,1.37-1.71,2.29-1.51,2.96,.06,.19,.21,.44,.61,.55,.8,.24,1.6,.07,2.52-.54-.08,.47-.04,.8,.12,1.04,.12,.2,.32,.33,.56,.36,.49,.07,1.21-.03,2.08-.72-.05,.41,0,.71,.14,.93,.13,.2,.32,.33,.57,.37,.58,.08,1.59-.03,2.88-1.48-.15,.91-.17,1.6,.11,1.98,.12,.17,.29,.27,.5,.3h.05c.34,.04,1.72,0,3.19-2.31-.11,.6-.12,1.12,.09,1.47,.13,.21,.32,.35,.57,.4,.62,.14,1.66-.03,2.78-2-.21,1.22-.27,2.41,.7,2.7,.28,.07,.7,.1,1.18-.19,.74-.46,1.36-1.5,1.85-3.12,.07,1.12,.25,2.12,1.05,2.19,.23,.02,.59-.03,.92-.38,.48-.49,.76-1.45,.86-2.85,.16,.53,.44,.96,1.02,1.09,.35,.07,.65-.02,.87-.25,.28-.3,.4-.87,.36-1.7,.08,.11,.17,.21,.29,.27,.16,.09,.35,.1,.54,.03,.29-.09,.49-.27,.6-.53,.1-.22,.17-.5,.12-1.02,.19,.35,.42,.59,.79,.58,.24,0,.45-.12,.59-.33,.37-.55,.24-1.74-.4-3.66ZM13.02,22.12c-3.64-1.35-6.71-3.17-6.49-3.59,.13-.25,5.96,.82,10.41,1.74,4.67,.97,8.37,1.11,7.79,1.94-.89,1.27-.28,2.12-.7,2.37s-6.81-.9-11.02-2.46Zm-3.1,4.05c-1.82-.81-4.45-1.76-4.28-2.2,.1-.26,6.45,.69,10.94,1.33,4.68,.66,7.76-.1,7.7,.91-.04,.61-.08,.25,.03,1.66,.09,1.1-11.29-.32-14.39-1.7Zm1.74,5.45c-1.97-.32-4.22-.72-4.14-1.19,.05-.28,5.79-.7,10.33-.97,4.72-.28,6.35-1.49,7.04-.75,.88,.95,.8,.72,1.99,1.71,.85,.71-11.62,1.77-15.21,1.19Zm6.6,5.19c-2.25,.23-6.58-.07-6.63-.61-.03-.32,.22-.37,5.18-1.78,2.38-.67,10.35-4.28,11.8-2.83,.43,.43,.65,.43,1.66,.99,.83,.46-7.9,3.81-12.01,4.22Zm2.77,3.97c-2.22,.44-4.46,.4-4.59-.13-.08-.31,.27,0,4.94-2.18,2.24-1.04,9.88-5.64,10.96-5.33,1.33,.38,2.08,.43,2.15,1.02,.12,.95-9.69,5.88-13.46,6.62Zm6.92,2.93c-2.13,.77-5.09,1.53-5.3,1.03-.12-.3,1.04-.65,5.33-3.51,2.06-1.37,7.95-6.87,9.28-6.42,1.71,.57,2.76,.91,2.91,1.33,.32,.9-8.59,6.27-12.21,7.58Zm8.27,2.01c-1.42,.63-3.47,.44-3.63-.07-.09-.3,.56-.66,3.39-3.24,1.36-1.23,4.21-5.66,5.4-4.92,.74,.47,.36,.7,1.55,1.74,.71,.62-4.29,5.41-6.72,6.49Zm1.21,2.25c-.09-.3,.65-1.31,3.48-3.89,1.36-1.24,1.83-3.93,3.23-3.81,.39,.03,.42,.69,1.46,1.85,.63,.7-2.62,3.39-4.97,5.24-1.22,.96-3.04,1.12-3.2,.62Zm2.5,3.4c-.72-.46,.09-1.19,2.32-3.56,1.07-1.13,3.51-5.55,4.44-4.66,.51,.49,.65,.74,1.27,1.05,.54,.27-3.4,4.54-5.25,6.12-.97,.83-2.02,1.55-2.79,1.05Zm5.63-.91c-.69,1.06-1.68,1.83-2.49,1.39-.75-.41,1.04-1.48,3.01-4.06,1.08-1.41,1.93-3.14,2.41-3.01,.9,.25,1.28,.19,1.36,.46,.15,.51-1.74,1.33-4.3,5.23Zm3.01,.51c-.79,1-1.68,1.91-2.53,1.57-.79-.31,.03-1.12,1.76-3.87,.83-1.32,2.47-3.18,2.98-3.08,.86,.16,.99,.02,1.18,.22,.42,.43-1.88,3.27-3.38,5.17Zm3.41,.37c-.73,1.05-1.56,2.01-2.43,1.72-.81-.26-.21-1.18,1.34-4.03,.74-1.37,1.28-3.29,2.57-3.15,.85,.09,1.19-.06,1.4,.13,.44,.41-1.49,3.34-2.88,5.34Zm3.66-.23c-.62,1.11-1.35,2.15-2.25,1.95-.83-.18-.33-1.15,.94-4.14,.61-1.43,.93-2.68,1.59-2.71,.64-.03,1.53-.21,1.75-.04,.48,.36-.86,2.83-2.04,4.95Zm3.23,.2c-.52,1.16-1.16,2.26-2.07,2.14-.85-.11-.43-1.12,.56-4.21,.48-1.48,.87-2.71,1.48-2.82,.75-.14,1.32-.38,1.55-.24,.51,.32-.54,2.91-1.53,5.12Zm3.18-1.8c-.12,1.27-.39,2.5-1.29,2.65-.84,.14-.94-1.54-.57-2.56,.55-1.52,.49-2.88,.83-3.1,.49-.31,1.05-.76,1.19-.53,.35,.57-.04,2.13-.17,3.53Zm1.66,.99c-.78,.35-.92-1.26-.92-2.33,0-.53-.15-.99,.1-1.46,.33-.62,.36-1.09,.63-1.05,.56,.08,.5,1.1,.61,1.85,.19,1.26,.42,2.62-.41,3Zm1.68-1.39c-.3,.18-.77-.65-.77-1.73,0-.53-.14-.98,.11-1.45,.33-.62,.34-.84,.61-.76,.28,.08,.21,.22,.37,.97,.28,1.24,.3,2.6-.32,2.97Zm1.72-.96c-.27,.21-.84-.55-.97-1.62-.06-.53-.25-.96-.06-1.45,.26-.66,.24-.87,.51-.82,.28,.05,.23,.2,.48,.92,.42,1.2,.6,2.54,.03,2.98Z"/>
</svg>