<?xml version="1.0" encoding="UTF-8"?>
<svg id="TEXT" xmlns="http://www.w3.org/2000/svg" viewBox="0 0 72 72">
  <defs>
    <style>
      .cls-1 {
        fill: #fff;
      }
    </style>
  </defs>
  <path class="cls-1" d="M62.68,23.71c.05,.29,.09,.58,.15,.86,.11,.51,.24,1.01,.35,1.52,.02,.1,.05,.24,0,.32-.59,.91-.63,1.96-.79,2.98-.74,4.94-2.7,9.35-5.91,13.18-4.17,4.96-9.48,8.01-15.84,9.15-14.12,2.53-27.77-6.67-30.73-20.69-.2-.94-.33-1.9-.45-2.86-.07-.59-.22-1.14-.51-1.65-.06-.11-.09-.28-.06-.41,.13-.69,.28-1.38,.44-2.07,.03-.12,.11-.22,.17-.33,.06,.1,.15,.19,.17,.29,.2,.74,.39,1.48,.57,2.23,.02,.08,.04,.19,0,.25-.5,.67-.35,1.41-.25,2.15,.81,5.75,3.16,10.79,7.19,14.97,3.85,3.99,8.55,6.48,13.99,7.56,2.18,.44,4.39,.62,6.61,.43,5.13-.44,9.8-2.14,13.92-5.24,5.53-4.17,8.83-9.73,10.11-16.51,.14-.76,.21-1.54,.28-2.32,.02-.25,0-.55-.13-.75-.17-.3-.12-.54-.03-.83,.18-.63,.31-1.27,.47-1.91,.03-.12,.1-.22,.15-.33,.05,0,.09,.02,.14,.03Z"/>
  <path class="cls-1" d="M19.59,52.04c.26-.16,.5-.32,.77-.47,1.31-.72,2.72-1.05,4.21-.88,.93,.1,1.85,.3,2.77,.47,.15,.03,.36,.16,.38,.27,.02,.11-.13,.3-.25,.4-.61,.5-1.35,.72-2.12,.8-1.01,.11-1.98-.06-2.96-.32-.76-.2-1.59-.13-2.38-.18-.12,0-.24,.02-.36,.03-.02-.04-.04-.09-.05-.13Z"/>
  <path class="cls-1" d="M52.58,52.15s-.1,.02-.14,.01c-1.06-.14-2.08,.01-3.11,.29-1.47,.39-2.94,.37-4.31-.42-.14-.08-.26-.18-.38-.29-.25-.24-.22-.45,.12-.53,.85-.19,1.71-.39,2.58-.5,1.48-.19,2.91,.05,4.25,.71,.36,.18,.71,.4,1.06,.6-.02,.04-.04,.09-.06,.13Z"/>
  <path class="cls-1" d="M25.56,54.73c1.55-1.5,3.52-2.04,5.59-2.32,.54-.07,1.09-.07,1.63-.08,.4,0,.51,.2,.32,.56-.08,.15-.2,.29-.33,.4-1.12,.97-2.45,1.35-3.9,1.25-.97-.06-1.9-.02-2.82,.27-.15,.05-.31,.04-.46,.06-.01-.04-.02-.09-.03-.13Z"/>
  <path class="cls-1" d="M46.61,54.9c-.44-.1-.87-.24-1.32-.3-.48-.07-.98-.11-1.47-.08-1.6,.12-3.08-.16-4.35-1.22-.08-.06-.18-.12-.21-.2-.08-.2-.19-.41-.17-.61,0-.07,.33-.16,.51-.17,2.1-.07,4.04,.51,5.88,1.46,.45,.23,.81,.63,1.2,.95-.02,.05-.04,.11-.07,.16Z"/>
  <path class="cls-1" d="M14.78,47.88c.42-.07,.85-.19,1.27-.21,1.61-.06,3.22-.09,4.78,.43,.48,.16,.94,.39,1.38,.63,.34,.18,.34,.41,0,.6-.29,.16-.6,.3-.92,.37-1.58,.35-3.02,.04-4.31-.95-.47-.36-1.01-.54-1.6-.59-.21-.02-.41-.11-.61-.17,0-.04,.01-.08,.02-.12Z"/>
  <path class="cls-1" d="M57.46,47.97c-.17,.07-.35,.18-.52,.19-.69,.03-1.27,.29-1.83,.69-1.53,1.08-3.17,1.32-4.92,.58-.09-.04-.18-.09-.25-.15-.22-.18-.26-.38,.02-.52,.46-.23,.92-.5,1.41-.65,1.78-.54,3.6-.59,5.43-.32,.21,.03,.43,.06,.64,.08,0,.03,.01,.07,.02,.1Z"/>
  <path class="cls-1" d="M24.68,43.91c.28,.49,.57,1.01,.88,1.52,.08,.13,.22,.23,.34,.33,1.05,.86,1.89,1.89,2.33,3.19,.08,.23,.02,.51,.03,.77-.23-.04-.48-.02-.69-.12-1.53-.7-2.72-1.74-3.03-3.48-.14-.76-.07-1.54,.13-2.2Z"/>
  <path class="cls-1" d="M47.54,43.82c.05,.3,.1,.59,.15,.89,.42,2.76-1.65,4.41-3.42,5.03-.28,.1-.47-.05-.38-.33,.19-.57,.38-1.15,.68-1.67,.47-.82,1.13-1.49,1.87-2.08,.46-.37,.78-.89,.93-1.48,.03-.12,.06-.24,.08-.35,.03,0,.06,0,.09,0Z"/>
  <path class="cls-1" d="M9.03,22.58c-.06,.15-.17,.42-.28,.68-.16,.39-.39,.25-.6,.06-.68-.62-1.16-1.38-1.52-2.22-.46-1.08-.87-2.19-.68-3.41,0-.04,0-.08,.01-.11,.09-.16,.18-.32,.28-.48,.06,.16,.15,.31,.17,.48,.06,.48,.24,.87,.63,1.21,1.12,.96,1.84,2.15,2,3.79Z"/>
  <path class="cls-1" d="M66.12,18.42c-.16,1.27-.55,2.52-1.28,3.65-.27,.41-.57,.81-.91,1.16-.41,.43-.77,.32-.85-.28-.06-.44-.05-.92,.06-1.35,.28-1.12,.91-2.06,1.8-2.79,.44-.36,.63-.8,.67-1.34,0-.13,.1-.25,.16-.37,.08,.11,.22,.21,.24,.33,.06,.3,.08,.61,.12,.99Z"/>
  <path class="cls-1" d="M9.81,22.91c.26-2.02,.9-3.85,2.52-5.2,.13-.11,.29-.18,.45-.24,.06-.03,.15,.01,.23,.02-.01,.08,0,.18-.05,.24-.08,.12-.2,.22-.29,.34-.26,.32-.36,.67-.35,1.1,.06,1.47-.25,2.83-1.27,3.95-.18,.2-.47,.36-.74,.42-.43,.1-.49,.01-.51-.44,0-.06,0-.12,0-.19Z"/>
  <path class="cls-1" d="M59.04,17.42c.58,.1,.99,.51,1.32,.93,1.02,1.3,1.68,2.76,1.82,4.43,0,.09,0,.17,0,.26-.01,.59-.31,.77-.8,.42-.36-.26-.7-.6-.93-.98-.62-.98-.86-2.08-.79-3.23,.04-.57-.16-1.01-.52-1.41-.09-.1-.14-.23-.21-.35,.03-.03,.07-.05,.1-.08Z"/>
  <path class="cls-1" d="M10.48,26.08c.05-.22,.07-.45,.16-.65,.48-1.13,1.24-2.04,2.16-2.83,.6-.51,1.22-.96,1.99-1.17,.06-.02,.12-.06,.17-.06,.18,.02,.36,.05,.55,.08-.12,.11-.22,.24-.35,.32-.43,.25-.74,.57-.89,1.08-.33,1.1-.94,2.04-1.84,2.77-.54,.43-1.11,.79-1.95,.47Z"/>
  <path class="cls-1" d="M8.46,26.41c-.78,.3-1.36-.06-1.89-.49-.89-.72-1.5-1.65-1.82-2.74-.16-.55-.5-.88-.97-1.15-.11-.06-.19-.19-.29-.29,.13-.03,.29-.13,.4-.09,.44,.14,.92,.26,1.3,.5,1.27,.79,2.29,1.84,2.99,3.17,.17,.33,.39,.66,.28,1.08Z"/>
  <path class="cls-1" d="M63.2,31.82c-.66-.01-.79-.19-.56-.74,.47-1.16,1.25-2.1,2.19-2.91,.59-.51,1.22-.97,1.99-1.18,.05-.01,.09-.05,.14-.04,.2,.01,.39,.03,.59,.05-.12,.12-.23,.26-.37,.34-.42,.25-.71,.56-.86,1.05-.44,1.37-1.2,2.52-2.52,3.21-.2,.11-.44,.15-.59,.2Z"/>
  <path class="cls-1" d="M68.15,21.58c.16,.07,.26,.12,.36,.17-.08,.09-.15,.22-.25,.27-.51,.26-.83,.63-1.02,1.2-.43,1.33-1.19,2.44-2.46,3.12-.3,.16-.62,.23-.99,.15-.31-.07-.34-.23-.26-.43,.14-.38,.3-.76,.51-1.11,.68-1.15,1.62-2.06,2.74-2.77,.42-.26,.92-.4,1.37-.59Z"/>
  <path class="cls-1" d="M9.64,31.7c-1.03,.31-1.68-.29-2.3-.89-.67-.65-1.15-1.43-1.4-2.33-.16-.58-.51-.93-1.02-1.19-.1-.05-.16-.18-.25-.27,.11-.03,.24-.12,.33-.09,.46,.14,.95,.24,1.34,.48,1.29,.8,2.33,1.87,3.04,3.23,.17,.32,.38,.65,.25,1.06Z"/>
  <path class="cls-1" d="M61.45,26.13c-1.01,.31-1.66-.27-2.27-.86-.68-.65-1.17-1.45-1.42-2.35-.16-.58-.51-.93-1.02-1.2-.1-.05-.17-.18-.25-.27,.11-.03,.24-.12,.33-.09,.47,.15,.97,.25,1.38,.5,1.27,.79,2.29,1.84,2.99,3.17,.17,.33,.39,.66,.27,1.09Z"/>
  <path class="cls-1" d="M64.3,39.17c-.87,.11-1.38,.72-1.91,1.32-.91,1.02-2.03,1.69-3.44,1.74-.18,0-.37-.04-.54-.1-.27-.1-.32-.3-.15-.53,.49-.68,1.04-1.3,1.79-1.7,1.13-.61,2.31-1.07,3.64-.94,.2,.02,.4,.08,.6,.12,0,.03,0,.06,.01,.09Z"/>
  <path class="cls-1" d="M7.95,39.15c.53-.29,1.11-.26,1.64-.16,1.7,.31,3.21,.99,4.25,2.46,.1,.14,.21,.4,.15,.5-.09,.14-.33,.26-.51,.27-.79,.06-1.54-.14-2.19-.56-.56-.37-1.1-.8-1.56-1.29-.51-.54-.99-1.07-1.78-1.21Z"/>
  <path class="cls-1" d="M60.94,44.65c-.42,.1-.74,.15-1.04,.26-.22,.07-.44,.18-.61,.33-1.11,1.02-2.44,1.37-3.89,1.29-.44-.03-.87-.31-1.29-.5-.22-.1-.21-.27,.02-.38,1.55-.72,3.13-1.36,4.87-1.46,.55-.03,1.11-.02,1.61,.28,.08,.05,.16,.09,.33,.19Z"/>
  <path class="cls-1" d="M11.31,44.64c.67-.49,1.38-.52,2.07-.46,1.65,.13,3.17,.74,4.65,1.43,.3,.14,.31,.26,.04,.43-.57,.37-1.2,.59-1.89,.51-1.08-.13-2.16-.36-2.99-1.08-.5-.44-1.01-.67-1.64-.74-.06,0-.11-.04-.24-.09Z"/>
  <path class="cls-1" d="M5.73,33.23c1.34,.08,2.5,.46,3.52,1.19,.8,.57,1.37,1.36,1.89,2.17,.17,.27,.08,.4-.25,.4-1.07,.01-2.01-.37-2.88-.95-.23-.15-.38-.42-.54-.65-.32-.45-.61-.92-.94-1.36-.13-.17-.34-.28-.5-.44-.11-.11-.2-.25-.3-.37Z"/>
  <path class="cls-1" d="M66.48,33.21c-.06,.11-.1,.27-.19,.32-.61,.36-.97,.96-1.3,1.53-.82,1.43-2.15,1.84-3.66,1.93-.34,.02-.42-.13-.24-.43,.92-1.49,2.12-2.64,3.87-3.1,.47-.13,.95-.23,1.43-.34,.03,.03,.06,.06,.09,.08Z"/>
  <path class="cls-1" d="M43.52,45.84c-.04,.44,.01,.91-.13,1.31-.69,1.93-2,3.23-4.04,3.72-.47,.11-.61-.03-.5-.49,.05-.19,.15-.36,.26-.53,.65-1.03,1.53-1.81,2.62-2.35,.65-.33,1.19-.73,1.46-1.44,.02-.06,.06-.11,.1-.15,.03-.04,.07-.06,.11-.09l.12,.03Z"/>
  <path class="cls-1" d="M28.84,45.79c.09,.15,.2,.29,.27,.45,.24,.54,.65,.89,1.16,1.14,1.22,.59,2.2,1.45,2.92,2.61,.03,.05,.09,.1,.09,.16,.02,.23,.03,.45,.04,.68-.2,0-.41,.06-.6,.02-2.11-.53-3.56-2.22-3.97-3.96-.08-.33-.01-.7-.01-1.05l.08-.03Z"/>
  <path class="cls-1" d="M21.05,41.3c.04,.19,.08,.3,.07,.4-.03,.61,.24,1.07,.68,1.49,1.13,1.08,1.56,2.47,1.62,3.99,.02,.49-.2,.6-.63,.34-1.18-.72-1.77-1.84-2.02-3.15-.18-.95-.12-1.9,.16-2.83,.02-.05,.05-.1,.13-.24Z"/>
  <path class="cls-1" d="M51.25,41.4c.08,.33,.19,.66,.23,.99,.23,1.87-.16,3.55-1.63,4.85-.16,.14-.34,.25-.53,.34-.31,.16-.48,.09-.51-.26-.03-.29,0-.6,.04-.89,.22-1.34,.73-2.53,1.77-3.47,.27-.24,.33-.71,.46-1.09,.05-.15,.04-.32,.05-.48,.04,0,.07,0,.11,0Z"/>
  <path class="cls-1" d="M14.82,26.56c-.09,.08-.18,.18-.28,.22-.5,.21-.74,.56-.85,1.11-.27,1.24-.78,2.38-1.81,3.19-.18,.15-.46,.19-.7,.24-.04,0-.17-.15-.17-.24-.02-.33-.04-.67,0-.99,.27-1.82,1.86-3.39,3.6-3.6,.06,0,.11,0,.17,0,.01,.02,.03,.05,.04,.07Z"/>
  <path class="cls-1" d="M57.4,26.56c.88-.02,1.61,.28,2.24,.83,.89,.77,1.45,1.73,1.61,2.91,.02,.15,.05,.3,.02,.44-.04,.2-.12,.54-.2,.55-.23,.02-.52-.04-.7-.18-1.04-.8-1.56-1.94-1.83-3.18-.12-.57-.36-.95-.89-1.16-.1-.04-.17-.14-.25-.21Z"/>
  <path class="cls-1" d="M53.11,44.91c-.06-.1-.14-.2-.18-.3-.3-.71-.51-1.45-.38-2.23,.08-.48,.12-.96,.24-1.42,.08-.3,.28-.57,.37-.87,.08-.26,.1-.55,.12-.82,0-.16-.04-.33-.07-.52,1.5,.78,1.41,5.19-.1,6.18Z"/>
  <path class="cls-1" d="M19,44.93c-.78-1.19-1.2-2.46-1.14-3.89,.04-.92,.55-1.61,1.02-2.31,.04,.01,.08,.03,.12,.04-.02,.17-.06,.33-.07,.5-.03,.35,.02,.65,.22,.98,.21,.33,.29,.76,.37,1.15,.24,1.09,.28,2.18-.24,3.22-.04,.08-.08,.15-.13,.22-.02,.03-.06,.04-.16,.09Z"/>
  <path class="cls-1" d="M55.64,35.07c.77,.5,1.34,1.16,1.63,2.06,.38,1.18,.24,2.27-.47,3.28-.22,.31-.37,.33-.61,.04-.14-.18-.26-.39-.33-.61-.38-1.12-.36-2.26-.06-3.4,.13-.48,.13-.93-.16-1.37Z"/>
  <path class="cls-1" d="M16.6,35.07c-.3,.44-.3,.9-.17,1.39,.29,1.11,.31,2.22-.04,3.33-.05,.15-.09,.32-.18,.45-.27,.4-.48,.63-.88,.03-1.22-1.83-.34-4.29,1.27-5.19Z"/>
  <path class="cls-1" d="M56.92,30.83c1.11,.6,1.98,1.31,2.46,2.42,.37,.86,.27,1.74,.06,2.62-.07,.31-.21,.32-.44,.11-.69-.66-1.15-1.48-1.52-2.34-.08-.17-.07-.39-.07-.58,0-.68,0-1.36-.45-1.94-.04-.04-.02-.13-.04-.29Z"/>
  <path class="cls-1" d="M15.34,30.82c-.06,.19-.06,.29-.11,.35-.36,.43-.44,.95-.4,1.46,.06,.77-.21,1.41-.61,2.01-.31,.46-.65,.9-1,1.32-.19,.24-.36,.2-.43-.11-.26-1.07-.32-2.14,.31-3.11,.53-.82,1.25-1.44,2.25-1.93Z"/>
</svg>