<svg id="Layer_1" data-name="Layer 1" xmlns="http://www.w3.org/2000/svg" viewBox="0 0 24 24"><defs><style>.cls-1{fill:none;}.cls-2{fill:#fff;}</style></defs><g id="classic_ArrowDown"><g id="Group_169981" data-name="Group 169981"><rect id="Rectangle_626011-35" data-name="Rectangle 626011-35" class="cls-1" x="2.88" y="2.88" width="18.24" height="18.24"/><path id="Path_75850" data-name="Path 75850" class="cls-2" d="M6.56,8.41v.67a2.68,2.68,0,0,0,2.18,2.84c-1.91.5-2.55,1.59-2.55,2.85v.75c0,2.33,1.59,3.48,5.34,3.48h.94c3.75,0,5.34-1.15,5.34-3.48v-.75c0-1.26-.64-2.35-2.55-2.84a2.68,2.68,0,0,0,2.18-2.85V8.41C17.44,6,15.91,5,12.26,5h-.53C8.09,5,6.56,6,6.56,8.41Zm7.77.36v.66c0,.91-.46,1.26-1.88,1.26h-.9c-1.42,0-1.88-.35-1.88-1.26V8.77c0-.93.48-1.29,1.86-1.29h.94C13.85,7.48,14.33,7.84,14.33,8.77Zm.34,5.69v.66c0,.89-.44,1.4-2,1.4H11.37c-1.64,0-2-.51-2-1.4v-.66c0-.87.44-1.31,2-1.31h1.36C14.2,13.15,14.67,13.59,14.67,14.46Z"/></g></g></svg>