<svg id="Layer_1" data-name="Layer 1" xmlns="http://www.w3.org/2000/svg" viewBox="0 0 24 24"><defs><style>.cls-1{fill:none;}.cls-2{fill:#fff;}</style></defs><g id="classic_ArrowDown"><g id="Group_169948" data-name="Group 169948"><rect id="Rectangle_626011-2" data-name="Rectangle 626011-2" class="cls-1" x="2.88" y="2.88" width="18.24" height="18.24"/><path id="Path_75811" data-name="Path 75811" class="cls-2" d="M12.34,5.16H6.46V18.84h6c4.1,0,5.76-.93,5.76-3.56v-.64c0-1.18-.67-2.26-2.48-2.79A2.68,2.68,0,0,0,18,9.17v-.6C18,5.85,16,5.16,12.34,5.16Zm.38,2.39c1.49,0,1.9.44,1.9,1.31v.53c0,.9-.4,1.3-2,1.3H9.73V7.55ZM13,13.17c1.55,0,1.9.54,1.9,1.4v.55c0,.87-.34,1.31-2,1.31H9.73V13.16Z"/></g></g></svg>