<svg id="Layer_1" data-name="Layer 1" xmlns="http://www.w3.org/2000/svg" viewBox="0 0 24 24"><defs><style>.cls-1{fill:none;}.cls-2{fill:#fff;}</style></defs><g id="classic_ArrowDown"><g id="Group_169961" data-name="Group 169961"><rect id="Rectangle_626011-15" data-name="Rectangle 626011-15" class="cls-1" x="2.88" y="2.88" width="18.24" height="18.24"/><path id="Path_75824" data-name="Path 75824" class="cls-2" d="M18.79,13V11c0-3.65-1.95-6-6.16-6H11.37C7.16,5,5.22,7.36,5.22,11v2c0,3.62,1.94,6,6.15,6h1.26C16.84,19,18.79,16.61,18.79,13Zm-10.12.36V10.56c0-2.1.75-2.94,2.59-2.94h1.48c1.86,0,2.61.84,2.61,2.94v2.79c0,2.13-.75,3-2.61,3H11.26c-1.84,0-2.59-.88-2.59-3Z"/></g></g></svg>