<svg id="Layer_1" data-name="Layer 1" xmlns="http://www.w3.org/2000/svg" viewBox="0 0 24 24"><defs><style>.cls-1{fill:none;}.cls-2{fill:#fff;}</style></defs><g id="classic_ArrowDown"><g id="Group_169977" data-name="Group 169977"><rect id="Rectangle_626011-31" data-name="Rectangle 626011-31" class="cls-1" x="2.88" y="2.88" width="18.24" height="18.24"/><path id="Path_75846" data-name="Path 75846" class="cls-2" d="M8.32,16.6h5.1v2.24h3.19V16.6h2.07V14H16.61V8.13A2.92,2.92,0,0,0,14,5h-.5C12,5,10.89,5.65,9.81,7.15L6.53,11.49a4.73,4.73,0,0,0-1.24,2.75C5.29,15.61,6.22,16.6,8.32,16.6ZM9.23,14c-.42,0-.55-.16-.55-.38a.84.84,0,0,1,.16-.43l3.78-5.08c.15-.18.26-.29.44-.29s.36.13.36.42V14Z"/></g></g></svg>