<svg id="Layer_1" data-name="Layer 1" xmlns="http://www.w3.org/2000/svg" viewBox="0 0 24 24"><defs><style>.cls-1{fill:none;}.cls-2{fill:#fff;}</style></defs><g id="classic_ArrowDown"><g id="Group_169976" data-name="Group 169976"><rect id="Rectangle_626011-30" data-name="Rectangle 626011-30" class="cls-1" x="2.88" y="2.88" width="18.24" height="18.24"/><path id="Path_75845" data-name="Path 75845" class="cls-2" d="M17.05,15.36V14.3A2.2,2.2,0,0,0,15.47,12a2.31,2.31,0,0,0,1.58-2.36v-1c0-2.45-1.77-3.47-5.16-3.47H7V7.8h5.38c1,0,1.4.3,1.4,1.15v.59c0,.87-.42,1.18-1.38,1.18h-5v2.52h5c1,0,1.38.31,1.38,1.19V15c0,.87-.38,1.17-1.4,1.17H7v2.64h4.89C15.28,18.84,17.05,17.82,17.05,15.36Z"/></g></g></svg>