<svg id="Layer_1" data-name="Layer 1" xmlns="http://www.w3.org/2000/svg" viewBox="0 0 24 24"><defs><style>.cls-1{fill:none;}.cls-2{fill:#fff;}</style></defs><g id="classic_ArrowDown"><g id="Group_169973" data-name="Group 169973"><rect id="Rectangle_626011-27" data-name="Rectangle 626011-27" class="cls-1" x="2.88" y="2.88" width="18.24" height="18.24"/><path id="Path_75842" data-name="Path 75842" class="cls-2" d="M18.3,13V10.94c0-3.61-1.82-6-5.71-6H11.41c-3.91,0-5.73,2.36-5.73,6V13C5.68,16.61,7.5,19,11.41,19h1.18C16.48,19,18.3,16.64,18.3,13ZM9.09,10.43c0-2,.64-2.81,2.44-2.81h.94c1.36,0,2.07.47,2.33,1.57L9.09,12.36Zm2.44,5.93c-1.38,0-2.07-.47-2.33-1.61l5.71-3.17v1.95c0,2-.64,2.83-2.44,2.83Z"/></g></g></svg>