<svg xmlns="http://www.w3.org/2000/svg" viewBox="0 0 24 24"><defs><style>.cls-1{fill:#fff;}</style></defs><g id="Layer_6" data-name="Layer 6"><path id="Random_Shape_6_Rounded" data-name="Random Shape 6 Rounded" class="cls-1" d="M19.91,7.48,16.52,4.09a2,2,0,0,0-2.82,0l-1,1a1,1,0,0,1-1.42,0l-1-1a2,2,0,0,0-2.82,0L4.09,7.48a2,2,0,0,0,0,2.82l1,1a1,1,0,0,1,0,1.42l-1,1a2,2,0,0,0,0,2.82l3.39,3.39a2,2,0,0,0,2.82,0l1-1a1,1,0,0,1,1.42,0l1,1a2,2,0,0,0,2.82,0l3.39-3.39a2,2,0,0,0,0-2.82l-1-1a1,1,0,0,1,0-1.42l1-1A2,2,0,0,0,19.91,7.48Z"/></g></svg>