<svg id="Layer_1" data-name="Layer 1" xmlns="http://www.w3.org/2000/svg" viewBox="0 0 24 24"><defs><style>.cls-1{fill:none;}.cls-2{fill:#fff;}</style></defs><g id="classic_ArrowDown"><g id="Group_170123" data-name="Group 170123"><rect id="Rectangle_626094" data-name="Rectangle 626094" class="cls-1" x="2.88" y="2.88" width="18.24" height="18.24"/><path id="Path_75970" data-name="Path 75970" class="cls-2" d="M15.75,5.92V7.2H9.9l-.33,3.92a6,6,0,0,1,2.83-.75q3.82,0,3.83,3.56a4.3,4.3,0,0,1-1.06,3.12,4,4,0,0,1-3,1.07,16.2,16.2,0,0,1-3.4-.4l-.6-.13.16-1.11a19.19,19.19,0,0,0,3.53.4,2.92,2.92,0,0,0,2.17-.74,2.85,2.85,0,0,0,.73-2.07,2.33,2.33,0,0,0-.67-1.89,2.88,2.88,0,0,0-1.89-.55,5.31,5.31,0,0,0-1.37.18,6.29,6.29,0,0,0-1.11.37l-.38.18-1-.18.33-6.26Z"/></g></g></svg>