<?xml version="1.0" encoding="UTF-8"?>
<svg id="Hearldry" xmlns="http://www.w3.org/2000/svg" viewBox="0 0 72 72">
  <defs>
    <style>
      .cls-1 {
        fill: #fff;
      }
    </style>
  </defs>
  <g id="Crown_001">
    <path class="cls-1" d="M36.05,41.12c-11.24,0-20.35,1.62-20.35,3.62s9.11,3.62,20.35,3.62,20.35-1.62,20.35-3.62-9.11-3.62-20.35-3.62Z"/>
    <path class="cls-1" d="M60.03,28.09c-.3,1.1-1.01,3.42-1.81,3.43-.85,0-1.33-.06-1.48-.08,.3,.12,1.56,.66,1.39,1.73-.31,2.08-2.4,5.93-5.28,5.6,0-.01-.01-.01-.01-.01-3.54-.48-3.97-5.64-3.77-7.77,.12-1.23,1.67-1.37,1.67-1.37,0,0-.44,0-1.36-.26-.92-.26-.81-4.37-.81-4.37,0,0-.65,4.04-1.6,4.12-.79,.07-1.22,.02-1.34,.01,.24,.08,1.44,.54,1.34,1.65-.2,2.14-.88,5.65-5.04,5.39-4.17-.25-4.77-4.48-4.77-6.61,0-1.23,1.7-1.52,1.7-1.52,0,0-.49,.04-1.53-.13-1.05-.17-1.37-4.26-1.37-4.26,0,0-.24,4.1-1.29,4.27-1.04,.17-1.53,.13-1.53,.13,0,0,1.7,.29,1.7,1.52,0,2.13-.6,6.36-4.77,6.61-4.17,.26-4.84-3.25-5.04-5.39-.1-1.11,1.1-1.57,1.34-1.65-.12,.01-.55,.06-1.34-.01-.95-.08-1.6-4.12-1.6-4.12,0,0,.11,4.11-.81,4.37-.92,.26-1.36,.26-1.36,.26,0,0,1.55,.14,1.67,1.37,.2,2.13-.23,7.29-3.77,7.77,0,0-.01,0-.01,0-2.88,.33-4.97-3.52-5.28-5.6-.17-1.07,1.09-1.61,1.39-1.73-.15,.02-.63,.09-1.48,.08-.8,0-1.51-2.33-1.81-3.43l2.65,11.53c-.31,.17-.45,.84-.32,1.6,.14,.84,.57,1.47,.95,1.41,.02,0,.04-.02,.06-.02l.29,1.26s.05-1.14,4.03-2.2c1.98-.58,6.66-1.2,11.25-1.48,1.49-.06,5.08-.14,5.08-.14,.26,.01,3.7,.07,5.18,.13,4.59,.28,9.27,.9,11.25,1.48,4.19,1.13,4.03,2.2,4.03,2.2l.29-1.25s.03,.01,.04,.02c.38,.06,.8-.56,.95-1.41,.13-.75,0-1.41-.3-1.59l2.65-11.54ZM15.24,42.25c-.26,.05-.57-.45-.69-1.1-.12-.66,0-1.23,.25-1.28,.26-.05,.57,.45,.69,1.1,.12,.66,0,1.23-.25,1.28Zm10.12-2.52c-.54,.09-1.12-.62-1.29-1.59-.17-.97,.14-1.84,.68-1.93s1.12,.62,1.29,1.59c.17,.97-.14,1.84-.68,1.93Zm10.67-.68c-.58,0-1.05-.84-1.05-1.88s.47-1.88,1.05-1.88,1.05,.84,1.05,1.88-.47,1.88-1.05,1.88Zm12.29-.91c-.17,.97-.74,1.69-1.29,1.59-.54-.09-.85-.96-.68-1.93,.17-.97,.74-1.69,1.29-1.59s.85,.96,.68,1.93Zm9.21,3.05c-.12,.66-.43,1.15-.69,1.1s-.37-.62-.25-1.28c.12-.66,.43-1.15,.69-1.1s.37,.62,.25,1.28Z"/>
  </g>
</svg>