<?xml version="1.0" encoding="UTF-8"?>
<svg id="Hearldry" xmlns="http://www.w3.org/2000/svg" viewBox="0 0 72 72">
  <defs>
    <style>
      .cls-1 {
        fill: #fff;
      }
    </style>
  </defs>
  <g id="Shield_004">
    <path class="cls-1" d="M36,17.11c-10.42,0-18.89,8.47-18.89,18.89s8.47,18.89,18.89,18.89,18.89-8.47,18.89-18.89-8.47-18.89-18.89-18.89Zm0,35.78c-9.31,0-16.89-7.58-16.89-16.89s7.58-16.89,16.89-16.89,16.89,7.58,16.89,16.89-7.58,16.89-16.89,16.89Z"/>
    <circle class="cls-1" cx="36" cy="36" r="4.69" transform="translate(-7.31 9.23) rotate(-13.28)"/>
    <path class="cls-1" d="M36,27.82c-4.51,0-8.18,3.67-8.18,8.18s3.67,8.18,8.18,8.18,8.18-3.67,8.18-8.18-3.67-8.18-8.18-8.18Zm0,14.35c-3.41,0-6.18-2.77-6.18-6.18s2.77-6.18,6.18-6.18,6.18,2.77,6.18,6.18-2.77,6.18-6.18,6.18Z"/>
    <path class="cls-1" d="M36.63,20.66c.23-.33,.15-.79-.18-1.02-.33-.23-.79-.15-1.02,.18s-.15,.79,.18,1.02,.79,.15,1.02-.18Z"/>
    <path class="cls-1" d="M42.83,22.67c.38,.13,.8-.08,.93-.46,.13-.38-.08-.8-.46-.93-.38-.13-.8,.08-.93,.46-.13,.38,.08,.8,.46,.93Z"/>
    <path class="cls-1" d="M48.59,25.97c-.38-.13-.8,.08-.93,.46-.13,.38,.08,.8,.46,.93,.38,.13,.8-.08,.93-.46,.13-.38-.08-.8-.46-.93Z"/>
    <path class="cls-1" d="M51.04,33.04c.4-.03,.7-.39,.67-.79-.03-.4-.39-.7-.79-.67-.4,.03-.7,.39-.67,.79,.03,.4,.39,.7,.79,.67Z"/>
    <path class="cls-1" d="M51.04,38.28c-.4,.03-.7,.39-.67,.79,.03,.4,.39,.7,.79,.67,.4-.03,.7-.39,.67-.79-.03-.4-.39-.7-.79-.67Z"/>
    <path class="cls-1" d="M48.22,44.71c-.4,.03-.7,.39-.67,.79,.03,.4,.39,.7,.79,.67s.7-.39,.67-.79c-.03-.4-.39-.7-.79-.67Z"/>
    <path class="cls-1" d="M43.56,48.85c-.4,.03-.7,.39-.67,.79,.03,.4,.39,.7,.79,.67s.7-.39,.67-.79c-.03-.4-.39-.7-.79-.67Z"/>
    <path class="cls-1" d="M35.94,51c-.4,.03-.7,.39-.67,.79,.03,.4,.39,.7,.79,.67s.7-.39,.67-.79c-.03-.4-.39-.7-.79-.67Z"/>
    <path class="cls-1" d="M29.29,22.7c.38-.13,.59-.54,.46-.93-.13-.38-.54-.59-.93-.46-.38,.13-.59,.54-.46,.93,.13,.38,.54,.59,.93,.46Z"/>
    <path class="cls-1" d="M24,27.39c.38-.13,.59-.54,.46-.93-.13-.38-.54-.59-.93-.46-.38,.13-.59,.54-.46,.93,.13,.38,.54,.59,.93,.46Z"/>
    <path class="cls-1" d="M21.09,31.72c-.4-.03-.76,.26-.79,.67-.03,.4,.26,.76,.67,.79,.4,.03,.76-.26,.79-.67,.03-.4-.26-.76-.67-.79Z"/>
    <path class="cls-1" d="M21.03,38.44c-.4-.03-.76,.26-.79,.67-.03,.4,.26,.76,.67,.79,.4,.03,.76-.26,.79-.67,.03-.4-.26-.76-.67-.79Z"/>
    <path class="cls-1" d="M23.9,44.74c-.4-.03-.76,.26-.79,.67-.03,.4,.26,.76,.67,.79s.76-.26,.79-.67c.03-.4-.26-.76-.67-.79Z"/>
    <path class="cls-1" d="M28.57,48.88c-.4-.03-.76,.26-.79,.67-.03,.4,.26,.76,.67,.79s.76-.26,.79-.67c.03-.4-.26-.76-.67-.79Z"/>
  </g>
</svg>