<?xml version="1.0" encoding="UTF-8"?>
<svg id="Hearldry" xmlns="http://www.w3.org/2000/svg" viewBox="0 0 72 72">
  <defs>
    <style>
      .cls-1 {
        fill: #fff;
      }
    </style>
  </defs>
  <g id="Crown_002">
    <path class="cls-1" d="M57.01,33.24c-2.2-3.77-5.53-6.1-9.91-6.66-3.5-.45-6.15,.68-7.23,1.16-.57-.87-1.48-1.15-2.55-1.24,.38-1.72,1.02-2.81,1.02-2.81,.2-.24,.49-.41,.82-.41,.45,0,.84,.28,.99,.68,.63-.23,1.14-.79,1.14-1.69,0-1.78-1.74-2.17-2.61-2.02s-2.71-.98-2.71-4.36c0,0,0-.01,0-.02,0,3.38-1.84,4.52-2.71,4.36-.87-.16-2.61,.23-2.61,2.02,0,.9,.51,1.46,1.14,1.69,.17-.38,.54-.65,.98-.65,.33,0,.84,.38,.85,.37,.42,.33,.87,1.26,1.11,2.81-1.16,.06-2.11,.28-2.7,1.16-1.16-.51-3.74-1.54-7.11-1.11-4.38,.56-7.71,2.89-9.91,6.66-2.2,3.77-1.93,9.62,.71,13.73,1.17,1.82,2.41,2.91,3.44,3.57,.15,.18,.39,.49,.49,.77,.1,.26,.11,.59,.1,.8-.02,.06-.05,.12-.06,.17-.03,1.6,7.62,3.89,16.37,3.89s16.31-2.22,16.31-3.93c0-.09-.03-.17-.07-.25,0-.19,.03-.46,.13-.72,.1-.25,.26-.42,.37-.53,1.01-.66,2.27-1.79,3.51-3.71,2.64-4.11,2.91-9.96,.71-13.73Zm-9.55,2.18c1.49,5.65,.42,10.21-.14,12.49-.08,.32-.19,.66-.32,1,0,0-.01,0-.02,0-.45-.29-1.34-1.01-1.35-2.03-.63,.93-1.68,1.24-2.21,1.34-.45-.07-.91-.14-1.38-.21-.47-.25-1.44-.87-1.54-1.89-.51,.96-1.48,1.37-2.01,1.53-.36-.02-.72-.05-1.09-.06-.45-1.4-.8-3.23-.69-4.86,.2-2.94,.81-5.21,1.13-6.56,.66-.71,1.36-1.62,1.88-2.66,0,0,0,0,0,0,0,0,0-.01,0-.02,.14-.28,.27-.58,.37-.88,1.33-2,5.66-3.51,7.35,2.8Zm-15.93-3.65c.36,1.62,1.35,3.03,2.31,4.09,.3,1.32,1,3.86,1.21,6.95,.11,1.61-.23,3.39-.67,4.79-.5,.02-.99,.05-1.48,.08-.54-.17-1.46-.58-1.96-1.51-.09,.97-.97,1.58-1.46,1.85-.34,.05-.68,.09-1.01,.15-.52-.1-1.6-.4-2.23-1.35,0,.89-.68,1.54-1.15,1.89-.15-.4-.29-.8-.38-1.17-.55-2.28-1.63-6.83-.14-12.49,1.55-5.79,5.32-5,6.96-3.29Zm-14.04,14.89c-1.08-2.28-3.16-6.83-.27-12.48,1.81-3.48,5.18-4.57,8.27-4.52-.82,1.11-1.51,2.6-2.06,4.43-1.13,3.77-1,9.62,.37,13.73,.14,.42,.29,.79,.44,1.14-.2,.04-.37,.09-.56,.13-.47-.04-1.67-.24-2.41-1.2,.07,1.08-.86,1.87-1.26,2.16-.01,0-.02,0-.04,.01-.86-.93-1.9-2.19-2.47-3.39Zm18.61,8.23c-7.34,0-15.54-1.41-15.56-2.61-.01-1.21,8.21-2.2,15.43-2.2,3.23,0,6.64,.24,9.44,.59,2.24,.43,4.26,.87,5.53,1.17,.38,.17,.61,.34,.61,.51,0,1.05-8.23,2.54-15.46,2.54Zm18.42-8.18c-.59,1.25-2.44,3.51-2.44,3.51,0,0-1.53-.92-1.44-2.28-.89,1.15-2.69,1.19-2.74,1.18,.12-.29,.24-.6,.36-.94,1.36-4.11,1.5-9.96,.37-13.73-.61-2.02-1.38-3.6-2.32-4.75,3.15-.1,6.64,.96,8.49,4.53,2.89,5.65,.81,10.21-.27,12.48Z"/>
    <path class="cls-1" d="M45.8,46.79c.28,.05,.54-.14,.59-.42,.05-.28-.14-.54-.42-.59-.28-.05-.54,.14-.59,.42-.05,.28,.14,.54,.42,.59Z"/>
    <path class="cls-1" d="M50.94,46.83c-.28-.05-.54,.14-.59,.42-.05,.28,.14,.54,.42,.59,.28,.05,.54-.14,.59-.42,.05-.28-.14-.54-.42-.59Z"/>
    <path class="cls-1" d="M26.08,46.73c.28-.05,.46-.31,.42-.59-.05-.28-.31-.46-.59-.42-.28,.05-.46,.31-.42,.59,.05,.28,.31,.46,.59,.42Z"/>
    <path class="cls-1" d="M21.11,47.78c.28-.05,.46-.31,.42-.59-.05-.28-.31-.46-.59-.42-.28,.05-.46,.31-.42,.59,.05,.28,.31,.46,.59,.42Z"/>
    <path class="cls-1" d="M40.14,45.48c0,.28,.23,.51,.51,.51s.51-.23,.51-.51-.23-.51-.51-.51-.51,.23-.51,.51Z"/>
    <path class="cls-1" d="M30.82,46.04c.28,0,.51-.23,.51-.52,0-.28-.23-.51-.52-.51s-.51,.23-.51,.52c0,.28,.23,.51,.52,.51Z"/>
  </g>
</svg>