<?xml version="1.0" encoding="UTF-8"?>
<svg id="Hearldry" xmlns="http://www.w3.org/2000/svg" viewBox="0 0 72 72">
  <defs>
    <style>
      .cls-1 {
        fill: #fff;
      }
    </style>
  </defs>
  <path id="Shield_003" class="cls-1" d="M51.63,17.13v-3.24l-2.47,2.1c-3.61,3.07-9.53-.69-12.15-3.11l-1.04-.96-1.02,.98c-2.41,2.32-8.54,6.13-12.12,3.08l-2.47-2.1v3.24c0,2.46,0,4.45,.01,6.31,0,3.36,.02,6.28-.01,10.73-.08,13.7,14.34,25.43,15.16,25.71l.58,.2,.55-.27c1.22-.6,15.05-12.01,14.97-25.63-.02-4.45-.02-7.37,0-10.73,0-1.86,0-3.85,0-6.31Zm-3,17.06c.05,8.85-6.47,16.53-10.44,20.37l-2.31-3.64-2.31,3.33c-4.02-4.01-10.26-11.6-10.21-20.06,.03-4.46,.02-7.39,.01-10.76,0-.12,0-.25,0-.37l3.05,.08-1.2-3.06c2.75,.27,5.69-.77,8.17-2.26l2.43,3.84,2.71-3.92c2.39,1.45,5.25,2.56,7.99,2.37l-1.19,3.03,3.28-.09c0,.12,0,.25,0,.37,0,3.37-.01,6.3,0,10.75h0Z"/>
</svg>