<?xml version="1.0" encoding="UTF-8"?>
<svg id="Hearldry" xmlns="http://www.w3.org/2000/svg" viewBox="0 0 72 72">
  <defs>
    <style>
      .cls-1 {
        fill: #fff;
      }
    </style>
  </defs>
  <g id="Shield_002">
    <path class="cls-1" d="M57.59,13.95v-2.65l-2.27,1.36c-5.5,3.29-13.59,4.46-19.33,4.46s-13.82-1.17-19.32-4.46l-2.27-1.36v2.65c0,2.3,0,4.61,.01,6.92,.01,4.53,.03,9.21-.01,13.81-.12,13.99,20.01,25.15,20.87,25.62l.72,.39,.72-.39c.86-.47,20.99-11.63,20.88-25.62-.03-4.6-.02-9.28-.01-13.81,0-2.31,.01-4.61,.01-6.92Zm-3,20.75c.09,10.84-15.09,20.46-18.6,22.54-3.52-2.08-18.68-11.69-18.59-22.54,.04-4.62,.03-9.31,.01-13.85,0-1.47,0-2.95-.01-4.42,5.8,2.7,13.19,3.69,18.59,3.69s12.8-1,18.6-3.69c0,1.47,0,2.95,0,4.42-.01,4.54-.02,9.23,.01,13.84h0Z"/>
  </g>
</svg>