<?xml version="1.0" encoding="UTF-8"?>
<svg id="Abstract_Shapes" data-name="Abstract Shapes" xmlns="http://www.w3.org/2000/svg" viewBox="0 0 72 72">
  <defs>
    <style>
      .cls-1 {
        fill: #fff;
      }
    </style>
  </defs>
  <path class="cls-1" d="M63.98,9.44l1.15-.61-1.15,.49,.39-1.05-.53,1.04-.3,.41-.48,.48c-.09-.05-.19-.09-.28-.12-.3-.11-.64,.17-.79,.22-.1-.03-.41,.17-.5,.2-.63,.21-1.24,.85-1.62,1.08-.38,.23-.74,.13-1.51,.35s-2.48,.88-3.22,1.47c-.74,.6-1.53,3-1.98,4.23-.45,1.23-.54,2.8-.58,3.45-.14,2.67-1.96,4.29-4.5,5.54-2.54,1.25-5.51,2.15-9.49,2.97-3.19,.63-6.59,.33-9.89,.58-2.71,.18-5.57,.38-8.26,.77-6.66,.87-11.41,7.57-9.15,14.11,.67,2.01,2.07,3.86,3.9,4.95,1.74,1.06,3.73,1.47,5.66,1.49,3.45,0,6.58-.99,9.61-2.34,1.83-.83,10.64-4.78,12.55-5.31,2.27-.64,6.52,.22,8.39,1.1s2.65,2.1,2.6,5.13c-.17,2.43-2.32,5.08-9.99,7.98s-15.06,1.78-20.82,.4c-6.17-1.49-12.15-3.54-15.57-9.66-.31-.55-.44-1.19-.62-1.8-.03-.08-.05-.2-.1-.27-.02-.02-.04,0-.03,.03h0s.01,.04,.02,.06c0,.02,0,.04,.01,.07,0,0,.02,.13,.02,.13,.53,5.28,4.48,9.45,9.03,11.83,7.16,3.75,16.41,5.96,25.96,4.36s16.74-6.93,17.49-11.44c.72-4.05-1.29-8.33-4.76-10.49-.5-.31-.98-.6-1.52-.87-1.66-.85-6.85-2.16-8.73-2.05-1.76,.08-3.38,.52-4.98,1.05-1.45,.48-9.73,4.12-11.13,4.7-2.79,1.14-7.3,2.49-9.97,.87-.67-.43-1.07-1.09-1.3-1.84-.85-2.66,1.19-5.38,3.85-5.85,.26-.06,.57-.08,.83-.12,1.02-.12,2.09-.21,3.11-.28,2.86-.2,5.85-.53,8.73-.73,1.94-.14,3.88-.49,5.81-.85,1.98-.38,3.94-.92,5.82-1.65,3.21-1.23,6.62-3.92,8.05-5.2s2.38-2.67,3.53-3.63c1.15-.96,1.2-1.15,2.54-2.06s3.52-2.97,3.79-3.88c.28-.91,.26-2.74,.17-3.54-.09-.8-.17-1.29-.1-1.73,.07-.44,.31-1.47,.29-2.03,0-.05,.22-.81,.14-.97-.06-.11-.17-.21-.31-.29l.11-.19,.58-.69Zm-2.39,1.55c-.09,.08-.21,.1-.27,.04-.05-.06-.02-.18,.07-.26s.21-.1,.27-.04c.05,.06,.02,.18-.07,.26Zm1.5,.89c-.07,.12-.19,.18-.27,.13s-.08-.18,0-.3c.07-.12,.19-.18,.27-.13s.08,.18,0,.3Z"/>
</svg>