<?xml version="1.0" encoding="UTF-8"?>
<svg id="Themed_shapes" data-name="Themed shapes" xmlns="http://www.w3.org/2000/svg" viewBox="0 0 72 72">
  <defs>
    <style>
      .cls-1 {
        fill: #fff;
      }
    </style>
  </defs>
  <path class="cls-1" d="M68.44,26.79c-.61-.11-4.76-.05-7.62,.01l.02-.41c.92-.12,1.87-.32,2.55-.64,1.76-.83,5.7-3.89,4.92-3.33-2.1,1.5-4.86,2.25-7.11,2.62,1.07-.47,2.41-1.16,3.16-1.89,1.4-1.36,4.12-5.54,3.55-4.75-1.94,2.73-5.32,4.62-7.51,5.63l-.09-.35-.26-.32c1.09-.48,2.5-1.18,3.28-1.94,1.4-1.36,4.12-5.54,3.55-4.75-1.98,2.79-5.48,4.71-7.65,5.7l-.26-.32c1.05-.6,2.61-1.59,3.37-2.55,1.21-1.52,3.39-6.02,2.93-5.16-1.7,3.18-5.19,5.61-7.19,6.81l-.41-.39-.62,.07c1.23-.82,2.7-1.94,3.21-2.88,.92-1.72,2.24-6.53,1.94-5.61-1.36,4.27-6.18,7.84-7.51,8.77l-.45,.05s-3.19,1.52-3.91,2.03c1.38-1.23,1.27-3.26,1.27-3.26,0,0-2.42,2.06-4.05,3.4-1.63,1.34-1.7,1.95-2.82,2.97-1.12,1.01-3.26,2.32-3.26,2.32l-8.14,5.54s-.09,.05-.22,.11c-1.87,.08-3.07-.7-3.9-.94-1.06-.31-1.77-.92-3.67-1-1.33-.06-2.4,.73-2.93,1.21l-3.95-3.53-6.11-3.93c-.77-.82-3.13-3.61-3.96-7.79-.19-.93-.57,3.33,.09,5.02,.04,.1,.08,.2,.13,.3-.73-.55-1.4-1.11-1.79-1.59-1.18-1.47-1.61-2.65-1.69-5.11-.07-2.21,1.26-7.06,1.26-7.06,0,0-3.38,5.52-3.15,7.31s1.19,2.72,2.24,4.78c1.06,2.06,2.13,3.2,2.13,3.2,0,0,.1,.25,.3,.67-.06-.02-.12-.03-.18-.05-.81-.21-.92-.17-.79,.02,.13,.19,1.15,.87,1.15,.87l.27,.05c.25,.46,.55,1,.92,1.56l-.04,.2s-.08,.71,.51,1.31c.38,.39,.62,.5,.82,.4l-.07,.42s-.07,.71,.52,1.31c.59,.59,.83,.53,1.11,.08,.04-.07,.08-.16,.12-.27,0,0,.02,.01,.02,.02,.03,.26,.15,.67,.51,1.03,.4,.4,.64,.5,.84,.39,.05,.26,.17,.62,.5,.95,.57,.57,.81,.53,1.08,.13,.05,.25,.17,.59,.47,.89,.54,.54,.77,.51,1.03,.14,.02,.14,.12,.72,.68,1.13,.43,.31,.66,.37,.84,.25,.09,.23,.26,.5,.58,.73,.48,.35,.72,.39,.9,.2l.08,.07,.1,.75s.14,.67,.86,1.04c.22,.12,.39,.18,.53,.2l.29,.82s.28,.63,1.05,.85c.04,.01,.08,.02,.12,.03l.43,.55,.64,1.9,.4,.25-.38-1.03,1.04,2.08-1.76,2.93-.87,3.47c.12,1.49-.34,2.29-.4,3.11l-.8-.09s-.05,0-.13,0l-1.34-.83s-.36-.2-.66,0c-.3,.21-.75,.78-.83,1.05-.08,.27,.43-.83,.99-.19,.04,.05,.36,.05,.42,.08,.11,.06,.14,.15,.26,.23l-.96,.14-1.79-.13s-.41,.02-.55,.36c-.14,.34-.22,1.06-.15,1.33,.07,.27,.48-1.22,.87-.77,.5,.57,.77-.02,1.02-.02,.6,0,.9,0,.9,0,0,0-.69,.37-.85,.44-.16,.07-.56,.37-.64,.65-.08,.28,.32,1.32,.32,1.32,0,0-.09-.89,.28-1.11,.38,.13,.71-.3,.71-.3l1.64-.26,.04-.02,.35,.61,.42,.57,.17,.39s-.22,.41-.4,.47c-.18,.05-.2,.31-.2,.31l.9-.12s.46-.29,.39-.51-.05-.98-.09-1.11c-.03-.1-.23-.66-.33-.95,.16,.02,.27,.02,.27,.02l.04-.14c.1,.39,.21,.84,.31,1.27h0s0,.02,.02,.06c.25,1,.49,1.9,.73,1.76,.04-.03,.1-.1,.17-.2,.3,.34,.61,.65,.61,.65,0,0-.31-.53-.45-.81,0-.02-.02-.04-.03-.06,.02-.03,.04-.06,.05-.1,.41,.56,1.35,1.51,1.35,1.51,0,0-.42-.7-.6-1.07-.05-.1-.11-.29-.18-.51,.06,.03,.12,.05,.18,.07,.31,.39,1.32,1.2,1.32,1.2,0,0-.4-.53-.58-.81-.06-.09-.14-.26-.22-.47,.35,.14,.64,.25,.64,.25,0,0-.46-.32-.76-.54-.05-.13-.1-.25-.14-.36,.45,.18,1.34,.41,1.34,.41,0,0-.5-.27-.74-.42-.19-.12-.68-.61-.9-.83,0-.01,0-.02,.01-.03,.27,.15,.51,.27,.51,.27,0,0-.25-.22-.45-.41,.02-.04,.04-.09,.05-.13,.52,.33,1.3,.73,1.3,.73,0,0-.53-.46-.78-.71-.08-.08-.21-.26-.34-.45,0-.02,.01-.04,.02-.05,.06,.05,.11,.09,.17,.13,.24,.17,.95,.46,1.27,.59-.2,.35-.39,1.03-.39,1.03,0,0,.45-.75,.87-.7,.22,.33,.73,.19,.73,.19l1.43,.77,.39,.03c.05,.25,.15,.48,.28,.7,0,.22-.01,.56,.03,.82,.06,.42,.56,1.62,.56,1.62,0,0-.1-.61-.12-.92,0-.09,0-.27,.02-.46,0,.03,0,.06,.01,.09,.08,.56,.74,2.14,.74,2.14,0,0-.13-.81-.16-1.22-.01-.17,.02-.54,.07-.91,.02,.16,.05,.32,.08,.46,.12,.44,.79,1.65,.79,1.65,0,0-.17-.64-.24-.96-.06-.33,0-1.62,0-1.62h-.04c.01-.07,.03-.12,.04-.18,.03-.04,.06-.08,.09-.12,0,.1,0,.19,.01,.27,.04,.46,.52,1.76,.52,1.76,0,0-.07-.66-.08-.99,0-.23,.11-.88,.18-1.27,.26,.43,.49,.8,.49,.8,0,0-.26-.77-.37-1.17-.03-.11-.05-.33-.07-.57,.02-.03,.04-.07,.06-.11,.03,.07,.05,.14,.08,.21,.19,.42,1.07,1.49,1.07,1.49,0,0-.28-.6-.4-.91-.09-.25-.22-1.1-.27-1.44,.05,.2,.09,.34,.09,.34,0,0-.02-.4-.02-.78,.1-.2,.19-.39,.28-.57,.16,.56,.52,1.42,.52,1.42,0,0-.1-.65-.12-.99-.03-.33,.18-1.61,.18-1.61h-.03c.08-.2,.13-.31,.13-.31l.14-.79c.27,.43,.52,.8,.52,.8,0,0-.28-.77-.4-1.16-.01-.04-.02-.1-.03-.16l.06-.37s.02,.04,.03,.06c.2,.41,1.1,1.46,1.1,1.46,0,0-.3-.59-.42-.9-.13-.31-.33-1.58-.33-1.58h-.21s.02-.15,.02-.15c2.84,.45,3.5-.15,3.8-.45,1.6,.32,3.83,1.17,5.09,1.51,1.26,.34,3.68,.79,4.81,.18,.69-.37,6.29-.24,5.97-.33-.31-.09-5.33-.8-7.43-1.37-2.1-.57-5.69-1.44-6.84-2.2s-2.91-2.3-2.91-2.3c0,0-1.07-.75-1.88-1.89l.62-.09,.1,.13s.2,.38,.8,.29c.6-.09,.58-.23,.44-.68,0-.01,0-.02-.01-.03h0s.14,.23,.14,.23c0,0,.16,.4,.76,.37s.6-.17,.51-.63c0-.02,0-.04-.01-.06l.11,.15s.37,.44,.97,.36c.46-.07,.61-.2,.6-.45,.17,.11,.43,.23,.76,.18,.6-.09,.67-.29,.54-.73,0-.03-.02-.07-.04-.1,.13,.12,.45,.36,.91,.29,.6-.09,.67-.29,.54-.73-.02-.06-.04-.12-.08-.2l.14,.12s.46,.35,1.03,.13c.57-.22,.59-.43,.36-.83-.03-.06-.08-.12-.14-.19h.01s.42,.36,.42,.36c0,0,.46,.35,1.03,.13,.57-.22,.59-.43,.36-.83-.05-.09-.15-.21-.27-.34l.19-.09,.14,.12s.46,.35,1.03,.13c.57-.22,.59-.43,.36-.83-.03-.06-.09-.13-.16-.21l.5,.25s.54,.22,1.03-.14,.46-.57,.14-.9c-.09-.1-.27-.21-.47-.33h.01s.51,.24,.51,.24c0,0,.54,.22,1.03-.14,.49-.36,.46-.57,.14-.9-.09-.09-.24-.2-.43-.31l.03-.02,.78,.39s.54,.22,1.03-.14c.49-.36,.46-.57,.14-.9-.07-.07-.18-.16-.32-.24l.09,.05s.54,.22,1.03-.14c.49-.36,.46-.57,.14-.9-.03-.03-.07-.07-.12-.11l.4,.2s.54,.22,1.03-.14c.25-.18,.37-.33,.37-.47,.2,.04,.53,.05,.86-.18,.49-.36,.46-.57,.14-.9-.08-.09-.23-.19-.4-.29,.08,0,.16-.02,.22-.03,.91-.18,2.08-.76,1.64-1.09-.02-.01-.05-.03-.08-.04,.91-.19,2.04-.76,1.6-1.08-.14-.1-.7-.25-1.41-.41l.13-.12c.64-.08,1.49-.2,1.87-.36,.86-.35,1.9-1.15,1.4-1.38-.14-.07-.64-.11-1.28-.13l1.4-.13s1.97-.53,2.58-.92c.78-.5,1.66-1.47,1.13-1.61-.28-.07-1.72,.16-3.03,.39v-.12s1.15-.14,1.15-.14c0,0,1.71-.11,2.39-.34,.87-.29,5.12-.68,4.16-.86ZM24.23,58.29c-.02-.06-.03-.12-.05-.19,0,0,0,0,0,0,.05,.09,.11,.18,.16,.27-.04-.03-.08-.06-.12-.09Zm5.7-4.73c-.09-.19-.21-.49-.32-.77,.13,.15,.24,.42,.32,.77Zm-2.12-.6c.14,.25,.59,.73,.87,1.03-.11-.08-.21-.17-.28-.24-.13-.12-.41-.48-.63-.78,.01,0,.03,0,.04-.01Zm-1.18,1.09s0,0,0,0c.21,.36,.92,1.12,1.28,1.5l-.87-.77s-.05-.04-.13-.07c-.06-.11-.12-.22-.16-.3-.04-.08-.08-.22-.13-.38,0,0,.01,0,.02,.01Zm-.28,.72c-.06,.04-.12,.08-.18,.13-.1-.16-.23-.37-.35-.58,.11,.11,.23,.23,.34,.32,.05,.04,.12,.08,.19,.13Zm-.46,.39s-.09,.1-.13,.15c-.1-.1-.2-.21-.28-.3-.05-.05-.11-.15-.18-.26,0-.01,0-.02,.01-.03,.13,.12,.34,.28,.58,.45Zm-8.06-24.14c-1.65-1.32-4.46-3.68-5.55-4.39-1.77-1.17-2.64-4.28-2.64-4.28,0,0,1.21,2.55,2.74,3.82,.54,.45,5.09,3.65,5.82,4.21,.73,.56,4.12,3.6,4.12,3.6,0,0-.05,0-.12,.29-.07,.28,.03,.71,.03,.71,0,0-1.89-1.94-4.4-3.95Zm3.91,6.37c.04-1,.41-1.69,.87-2.08,.43-.05,.21,1.28,1.53,1.1-.15,.24-1.05,.31-2.4,.98Zm2.31-1.65c.16-.46,1-.36,1.83-.89-.57,.67-1.24,.91-1.83,.89Zm3.17,20.82c-.16-.04-.66-.04-.88,.13-.04,.03-.08,.08-.12,.15-.16-.11-.4-.29-.55-.4-.15-.12-.48-.53-.7-.81,.08-.2,.15-.39,.21-.56,.16,.11,.34,.23,.5,.33-.08,.1-.15,.2-.18,.28-.05,.11,.17,0,.42-.13,.12,.08,.21,.13,.21,.13,0,0-.06-.06-.15-.15,.1-.05,.21-.09,.3-.11,.12,.08,.24,.16,.36,.23,.08,.67,.61,.39,.8,.53,.47,.35,.7,.54,.7,.54,0,0-.76-.12-.92-.16Zm1.15-.63l-.27-.24c-.11-.18-.41-.7-.56-1.01-.02-.04-.04-.08-.06-.14,.04,.02,.07,.04,.07,.04,0,0-.03-.03-.08-.08-.04-.11-.08-.26-.13-.42,.05,.04,.11,.07,.16,.11,0,0,0,0,0,.01,.16,.22,.6,.61,.93,.89-.2,.06-.38,.13-.47,.2-.22,.16,.82-.39,.88,.44,0,.06,.25,.25,.28,.31,.05,.11,.02,.2,.07,.33l-.83-.45Zm1.6,0l-.22-.57s-.16-.37-.52-.38c-.17,0-.42,.03-.66,.09-.09-.13-.19-.26-.26-.37,.16,.1,.27,.16,.27,.16,0,0-.19-.18-.4-.39-.09-.19-.2-.47-.3-.72,.51,.28,1.3,.62,1.3,.62,0,0-.14-.11-.31-.24-.1-.17-.29-.5-.39-.7-.04-.08-.09-.25-.15-.44,.01,.03,.03,.05,.04,.08,.28,.49,1.48,1.71,1.48,1.71,0,0-.42-.7-.6-1.07-.08-.15-.18-.51-.28-.87,.08,.14,.16,.28,.25,.39,.14,.19,.48,.5,.78,.77,.08,.6,.07,1.31-.06,1.93Zm2.57,1.25s.01-.02,.02-.03c0,.01,0,.02,0,.04h-.03Zm11.96-29.27c-.98,.8-3.04,2.54-5.18,4.03-2.8,1.95-5.72,3.62-6.43,3.91-1.25,.52,.24-.95,.24-.95l5.88-3.72,5.77-4.17,3.14-3.46s-1.16,2.52-3.43,4.36Z"/>
</svg>