<?xml version="1.0" encoding="UTF-8"?>
<svg id="TEXT" xmlns="http://www.w3.org/2000/svg" viewBox="0 0 72 72">
  <defs>
    <style>
      .cls-1 {
        fill: #fff;
      }
    </style>
  </defs>
  <path class="cls-1" d="M33.35,22.07c-1.22,0-2.4-.03-3.58,0-1.82,.06-3.59-.29-5.36-.64-1.35-.27-2.68-.64-4.02-.96-1.87-.44-3.76-.44-5.63-.02-.43,.1-.84,.35-1.24,.56-2.47,1.33-4.22,3.32-5.4,5.84-.64,1.37-1.31,2.73-1.82,4.15-.3,.84-.46,1.77-.47,2.67-.06,3.61-.07,7.23-.04,10.84,0,.69,.25,1.39,.38,2.08,.06,.02,.12,.03,.18,.05,.16-.32,.37-.62,.47-.96,.1-.34,.13-.72,.13-1.08,0-1.45-.1-2.91-.04-4.36,.08-1.94,.26-3.88,.41-5.82,.01-.14,.07-.28,.11-.42,.05,0,.09,0,.14,0,.03,.57,.04,1.14,.08,1.7,.11,1.6,.24,3.2,.35,4.8,.06,.85,.09,1.7,.1,2.56,0,1.42-.09,2.85,0,4.27,.08,1.33-.41,2.5-.75,3.72-.24,.88-.41,1.77-.56,2.67-.11,.7,.09,.93,.77,1.12,1.01,.29,2.01,.46,3.07,.3,.62-.09,1.27,.03,1.91,.03,.76,0,1.04-.48,.71-1.17-.06-.13-.12-.28-.21-.38-1.36-1.37-1.25-3.04-.89-4.71,.28-1.29,.59-2.6,1.12-3.8,.54-1.22,1.32-2.34,2.07-3.45,1.03-1.54,1.94-3.12,2.37-4.94,.14-.59,.42-1.14,.71-1.69-.44,2.68-1.17,5.26-2.75,7.57,1.47,.58,2.94,.68,4.4,.85,2.56,.3,5.04-.32,7.55-.64,2.02-.26,3.83-1.09,5.64-1.97,1.17-.57,2.22-1.22,3.01-2.27,.24-.31,.29-.58,.24-.94-.12-.81-.2-1.62-.3-2.43,.05,0,.1-.02,.15-.03,.18,.89,.41,1.78,.51,2.68,.18,1.59,.28,3.19,.4,4.79,.14,1.83,.24,3.67,.41,5.5,.14,1.56,.38,3.1,.53,4.66,.04,.36-.08,.74-.17,1.11-.19,.75,0,1.07,.74,1.09,1.24,.03,2.48,.06,3.71,0,.91-.05,1.06-.28,.7-1.11-.23-.53-.73-.93-1.08-1.41-.14-.2-.3-.47-.27-.69,.17-1.31,.39-2.62,.61-3.93,.09-.52,.18-1.04,.35-1.53,.4-1.18,.17-2.38,.16-3.58,0-1.71-.05-3.42,.03-5.13,.02-.5,.38-.99,.64-1.45,.2-.34,.22-.49-.18-.7-1.68-.88-3.46-1.62-4.96-2.75-2.02-1.52-3.65-3.44-4.57-5.89-.57-1.51-.82-3.04-.57-4.75Z"/>
  <path class="cls-1" d="M65.56,17.35c-.31,.48-.16,1.24,.29,1.56,.16,.12,.26,.33,.38,.5-.22,.06-.43,.17-.65,.18-.87,.02-1.82-.13-2.33,.81-.26,.48-.48,1.04-.53,1.58-.11,1.23,.06,2.43,.67,3.55,.12,.22,.24,.46,.27,.71,.32,1.98-.58,3.8-2.32,4.79-.55,.31-1.05,.72-1.59,1.04-.14,.09-.41,.11-.55,.03-.6-.32-1.22-.47-1.89-.41-.91,.08-1.35,.5-1.51,1.36-.04,.21-.23,.47-.42,.55-.54,.24-1.1,.23-1.63-.07-.14-.08-.28-.15-.55-.3,.37,.78,1.55,1.11,.7,2.2-1.17-.97-2.58-1.21-3.96-1.47-.11-.68-.16-1.34-.32-1.97-.59-2.19-1.51-4.26-2.63-6.21-.45-.78-1.24-1.36-1.87-2.03-.04,.04-.07,.07-.11,.11,.4,.61,.8,1.22,1.19,1.83,1.03,1.6,1.81,3.31,2.36,5.13,.41,1.35,.96,2.67,.69,4.14-.14,.78-.47,1.31-1.08,1.3-.47,0-.96-.05-1.39-.21-.92-.34-1.83-.73-2.72-1.17-.65-.32-1.25-.74-1.87-1.11-.92-.55-1.85-1.09-2.74-1.68-.2-.13-.27-.46-.42-.69-.14-.21-.28-.55-.45-.56-.45-.04-.67-.27-.89-.61-.19-.29-.42-.55-.65-.81-.58-.65-1.18-1.27-1.49-2.11-.16-.43-.37-.84-.51-1.27-.38-1.13-.38-2.3-.15-3.44,.23-1.15,.77-2.17,1.84-2.79,.71-.4,1.4-.95,2.16-1.12,1.28-.28,2.59-.23,3.88,.24,1.19,.43,2.42,.78,3.65,1.09,.57,.14,1.2,.07,1.78,.18,1.14,.22,2.29,.47,3.4,.79,.8,.23,1.58,.54,2.15,1.22,.97,1.16,1.93,2.33,2.95,3.44,.63,.68,1.36,1.26,2.34,1.41,.79,.12,1.33-.17,1.46-.94,.12-.7,.13-1.45,.04-2.16-.34-2.6,.47-4.72,2.55-6.3,.75-.57,1.6-1.02,2.76-.79-.12,.22-.2,.36-.29,.5Zm-15.15,8.55c.46,.58,.99,.56,1.74-.1-.65,.04-1.17,.06-1.74,.1Z"/>
  <path class="cls-1" d="M18.62,44.28c-.92-.28-1.86-.55-2.79-.84-.36-.11-.61-.08-.82,.27-.31,.51-.67,.99-.97,1.44,1.43,1.9,1.77,4.15,2.33,6.32,.18,.67,.25,1.33,.02,2.03-.1,.31-.09,.7,0,1.01,.07,.21,.38,.48,.59,.49,1.38,.08,2.77,.09,4.15,.12,.67,.01,.97-.43,.67-1.02-.72-1.39-1.45-2.76-2.18-4.15-.65-1.23-.96-2.56-1.09-3.92-.06-.58,.06-1.18,.09-1.75Z"/>
  <path class="cls-1" d="M36.23,40.56c-.7,.47-1.31,.82-1.86,1.26-.2,.16-.32,.49-.34,.76-.1,1.03,.11,1.95,.84,2.78,.35,.39,.48,1,.63,1.54,.48,1.74,.69,3.52,.82,5.32,.04,.54,.07,1.04-.14,1.58-.25,.64-.24,.82,.57,.77,.16-.01,.33,0,.39,0,.81-1.27,.47-2.54,.27-3.82-.15-.99-.21-1.99-.32-2.99-.28-2.38-.56-4.76-.85-7.19Z"/>
  <path class="cls-1" d="M63.4,34.78c-.57-.26-1.16-.5-1.71-.79-.88-.47-1.74-.97-2.6-1.49-.75-.45-1.53-.75-2.36-.32-.26,.14-.49,.47-.57,.77-.04,.13,.31,.44,.54,.55,1.88,.9,3.86,1.41,5.95,1.46,.24,0,.49-.03,.73-.05l.02-.12Z"/>
</svg>