<?xml version="1.0" encoding="UTF-8"?>
<svg id="TEXT" xmlns="http://www.w3.org/2000/svg" viewBox="0 0 72 72">
  <defs>
    <style>
      .cls-1 {
        fill: #fff;
      }
    </style>
  </defs>
  <path class="cls-1" d="M62.39,39.59c-1.36,.33-2.72,.67-4.1,.91-1.53,.27-3.07,.45-4.61,.65-.91,.12-1.83,.23-2.75,.28-.28,.01-.4,.06-.53,.3-.64,1.2-1.23,2.43-1.98,3.56-.64,.95-1.47,1.77-2.22,2.66-.69,.82-1.6,1.29-2.56,1.68-.54,.22-.95-.08-.87-.66,.02-.19,.08-.38,.15-.56,.71-1.76,1.05-3.59,.95-5.49-.03-.54-.18-1.07-.33-1.6-.07-.25-.29-.35-.59-.33-1.34,.1-2.68,.18-4.02,.25-.38,.02-.77-.03-1.15-.05-1.44-.1-2.89-.12-4.32-.32-2.52-.37-5.01-.86-7.52-1.28-.21-.04-.47,.05-.67,.15-.9,.48-1.77,.99-2.67,1.47-.24,.12-.52,.18-.79,.2-.41,.03-.54-.14-.43-.53,.25-.89,.08-1.75-.21-2.59-.06-.17-.24-.35-.41-.41-.64-.22-1.28-.4-1.94-.57-.14-.04-.33,.03-.48,.09-.35,.16-.69,.34-.98,.48-.28-.39-.49-.69-.72-.97-.09-.11-.23-.21-.36-.23-.77-.15-1.54-.27-2.31-.41-.09-.02-.2,0-.28-.04-.63-.27-.79-.22-1.09,.38-1.09,2.21-2.68,3.98-4.67,5.42-.91,.66-1.94,.98-3.11,1.18,.21-.37,.39-.67,.56-.98,.39-.7,.84-1.37,1.14-2.1,.5-1.2,.9-2.45,1.33-3.68,.21-.61,.33-1.23,.07-1.85-.23-.57-.41-1.18-.72-1.71-1.07-1.83-2.18-3.63-3.27-5.45-.09-.15-.11-.34-.17-.58-.1,.01-.33,0-.53,.07-.37,.13-.41-.04-.49-.36-.15-.58-.4-1.13-.6-1.69-.05-.14-.07-.3-.11-.45,.17-.03,.35-.13,.5-.09,1.78,.5,3.5,1.18,4.81,2.53,1.41,1.45,2.73,2.98,4.04,4.52,.49,.58,.85,1.28,1.2,1.96,.28,.54,.46,.7,1.07,.71,2,.04,3.98-.13,5.92-.69,.5-.14,.79-.41,.95-.86,.07-.18,.13-.37,.15-.56,.04-.32,.21-.35,.46-.26,.63,.22,1.27,.46,1.91,.66,.28,.09,.59,.14,.88,.12,.63-.06,1.25-.17,1.88-.27,3.2-.5,6.4-1,9.6-1.52,.41-.07,.81-.18,1.22-.28,0-.03-.01-.07-.02-.1-.49,.03-.99,.05-1.57,.08,.16-.18,.25-.28,.35-.38,.89-.94,1.44-2.07,1.74-3.32,.31-1.28,.32-2.59,.31-3.9,0-.16,0-.32,0-.51,.21,.03,.38,.01,.5,.08,.44,.24,.91,.46,1.28,.79,.78,.69,1.63,1.36,2.22,2.19,.78,1.11,1.34,2.36,1.97,3.57,.33,.63,.72,1.14,1.47,1.24,1.02,.13,2.04,.26,3.06,.39,3.08,.38,6.18,.7,9.25,1.18,1.88,.3,3.73,.81,5.58,1.3,1.79,.48,3.56,1.04,5.32,1.62,.55,.18,1.07,.5,1.55,.83,.41,.27,.42,.67,.04,.96-.56,.44-1.14,.87-1.77,1.18-1.39,.67-2.76,1.44-4.41,1.21-.14-.02-.29,.09-.45,.15-.02-.03-.05-.06-.07-.09-.1-.3-.23-.53-.61-.32-.04,.02-.17-.04-.2-.09-.23-.37-.52-.22-.81-.04h.47c.19,.44,.44,.52,.81,.28,.27,.39,.19,.74-.26,.85Zm1.84-3.85c.02,.15,.19,.38,.34,.38,.22,0,.35-.19,.36-.32,.01-.15-.04-.4-.32-.42-.25,.01-.4,.23-.38,.35Z"/>
</svg>