<?xml version="1.0" encoding="UTF-8"?>
<svg id="Abstract_Shapes" data-name="Abstract Shapes" xmlns="http://www.w3.org/2000/svg" viewBox="0 0 72 72">
  <defs>
    <style>
      .cls-1 {
        fill: #fff;
      }
    </style>
  </defs>
  <g id="Dots_001">
    <circle class="cls-1" cx="36.34" cy="36.33" r="6.41" transform="translate(-15.04 36.34) rotate(-45)"/>
    <circle class="cls-1" cx="38.28" cy="24.41" r="4.33"/>
    <circle class="cls-1" cx="45.63" cy="29.38" r="4.33"/>
    <path class="cls-1" d="M52,38.16c0-2.39-1.94-4.33-4.33-4.33s-4.33,1.94-4.33,4.33,1.94,4.33,4.33,4.33,4.33-1.94,4.33-4.33Z"/>
    <circle class="cls-1" cx="42.86" cy="45.78" r="4.33"/>
    <path class="cls-1" d="M34.09,52.05c2.39,0,4.33-1.94,4.33-4.33s-1.94-4.33-4.33-4.33-4.33,1.94-4.33,4.33,1.94,4.33,4.33,4.33Z"/>
    <circle class="cls-1" cx="26.58" cy="42.8" r="4.33"/>
    <circle class="cls-1" cx="24.81" cy="34.08" r="4.33"/>
    <circle class="cls-1" cx="29.78" cy="26.68" r="4.33"/>
    <path class="cls-1" d="M54.94,36.7c-1.59,0-2.88,1.29-2.88,2.88s1.29,2.88,2.88,2.88,2.89-1.29,2.89-2.88-1.29-2.88-2.89-2.88Z"/>
    <path class="cls-1" d="M45.63,24.8c1.59,0,2.88-1.29,2.88-2.89s-1.29-2.88-2.88-2.88-2.89,1.29-2.89,2.88,1.29,2.89,2.89,2.89Z"/>
    <path class="cls-1" d="M17.39,35.4c1.59,0,2.89-1.29,2.89-2.88s-1.29-2.88-2.89-2.88-2.88,1.29-2.88,2.88,1.29,2.88,2.88,2.88Z"/>
    <path class="cls-1" d="M19.34,36.86c-1.59,0-2.88,1.29-2.88,2.89s1.29,2.88,2.88,2.88,2.88-1.29,2.88-2.88-1.29-2.89-2.88-2.89Z"/>
    <path class="cls-1" d="M29.85,50.27c0-1.59-1.29-2.89-2.88-2.89s-2.88,1.29-2.88,2.89,1.29,2.88,2.88,2.88,2.88-1.29,2.88-2.88Z"/>
    <path class="cls-1" d="M33.17,52.34c-1.59,0-2.88,1.29-2.88,2.89s1.29,2.88,2.88,2.88,2.88-1.29,2.88-2.88-1.29-2.89-2.88-2.89Z"/>
    <circle class="cls-1" cx="40.1" cy="52.74" r="2.88"/>
    <path class="cls-1" d="M47.34,48.99c-1.59,0-2.89,1.29-2.89,2.88s1.29,2.89,2.89,2.89,2.88-1.29,2.88-2.89-1.29-2.88-2.88-2.88Z"/>
    <path class="cls-1" d="M23.24,47.22c0-1.59-1.29-2.88-2.88-2.88s-2.88,1.29-2.88,2.88,1.29,2.89,2.88,2.89,2.88-1.29,2.88-2.89Z"/>
    <circle class="cls-1" cx="50.52" cy="45.48" r="2.88"/>
    <path class="cls-1" d="M22.36,29.63c1.59,0,2.88-1.29,2.88-2.89s-1.29-2.88-2.88-2.88-2.89,1.29-2.89,2.88,1.29,2.89,2.89,2.89Z"/>
    <path class="cls-1" d="M25.79,23.15c1.59,0,2.89-1.29,2.89-2.88s-1.29-2.88-2.89-2.88-2.88,1.29-2.88,2.88,1.29,2.88,2.88,2.88Z"/>
    <path class="cls-1" d="M32.63,22.41c1.59,0,2.89-1.29,2.89-2.89s-1.29-2.88-2.89-2.88-2.88,1.29-2.88,2.88,1.29,2.89,2.88,2.89Z"/>
    <path class="cls-1" d="M39.81,19.65c1.59,0,2.89-1.29,2.89-2.89s-1.29-2.88-2.89-2.88-2.88,1.29-2.88,2.88,1.29,2.89,2.88,2.89Z"/>
    <path class="cls-1" d="M55.54,32.45c0-1.59-1.29-2.89-2.89-2.89s-2.88,1.29-2.88,2.89,1.29,2.88,2.88,2.88,2.89-1.29,2.89-2.88Z"/>
    <path class="cls-1" d="M49.4,25.86c0,1.59,1.29,2.88,2.88,2.88s2.89-1.29,2.89-2.88-1.29-2.88-2.89-2.88-2.88,1.29-2.88,2.88Z"/>
    <path class="cls-1" d="M28.35,53.27c-.84,0-1.52,.68-1.52,1.52s.68,1.52,1.52,1.52,1.52-.68,1.52-1.52-.68-1.52-1.52-1.52Z"/>
    <path class="cls-1" d="M22.14,50.11c-.84,0-1.52,.68-1.52,1.52s.68,1.52,1.52,1.52,1.52-.68,1.52-1.52-.68-1.52-1.52-1.52Z"/>
    <path class="cls-1" d="M18.25,44.01c0-.84-.68-1.52-1.52-1.52s-1.52,.68-1.52,1.52,.68,1.52,1.52,1.52,1.52-.68,1.52-1.52Z"/>
    <path class="cls-1" d="M16.63,36.98c0-.84-.68-1.52-1.52-1.52s-1.52,.68-1.52,1.52,.68,1.52,1.52,1.52,1.52-.68,1.52-1.52Z"/>
    <path class="cls-1" d="M16.66,28.84c.73,.41,1.66,.14,2.06-.59s.14-1.66-.59-2.06c-.73-.41-1.66-.14-2.06,.59-.41,.73-.14,1.66,.59,2.06Z"/>
    <path class="cls-1" d="M20.74,23.54c.73,.41,1.66,.14,2.06-.59,.41-.73,.14-1.66-.59-2.06-.73-.41-1.66-.14-2.06,.59-.41,.73-.14,1.66,.59,2.06Z"/>
    <path class="cls-1" d="M29.05,17.84c.84-.05,1.47-.77,1.42-1.61s-.77-1.47-1.61-1.42c-.84,.05-1.47,.77-1.42,1.61s.77,1.47,1.61,1.42Z"/>
    <path class="cls-1" d="M35.19,16.55c.84-.05,1.47-.77,1.42-1.61-.05-.84-.77-1.47-1.61-1.42s-1.47,.77-1.42,1.61c.05,.84,.77,1.47,1.61,1.42Z"/>
    <path class="cls-1" d="M44.73,18.8c.84-.05,1.47-.77,1.42-1.61s-.77-1.47-1.61-1.42c-.84,.05-1.47,.77-1.42,1.61,.05,.84,.77,1.47,1.61,1.42Z"/>
    <path class="cls-1" d="M51.3,22.47c.65-.53,.74-1.49,.21-2.13s-1.49-.74-2.13-.21c-.65,.53-.74,1.49-.21,2.13,.53,.65,1.49,.74,2.13,.21Z"/>
    <path class="cls-1" d="M54.74,29.62c.35,.76,1.25,1.1,2.01,.75,.76-.35,1.1-1.25,.75-2.01-.35-.76-1.25-1.1-2.01-.75-.76,.35-1.1,1.25-.75,2.01Z"/>
    <path class="cls-1" d="M58.27,34.65c-.35-.76-1.25-1.1-2.01-.75-.76,.35-1.1,1.25-.75,2.01,.35,.76,1.25,1.1,2.01,.75s1.1-1.25,.75-2.01Z"/>
    <path class="cls-1" d="M55.16,42.93c-.84,0-1.52,.68-1.52,1.52s.68,1.52,1.52,1.52,1.52-.68,1.52-1.52-.68-1.52-1.52-1.52Z"/>
    <circle class="cls-1" cx="51.59" cy="50.15" r="1.52"/>
    <circle class="cls-1" cx="44.01" cy="55.38" r="1.52"/>
    <path class="cls-1" d="M38.44,55.61c-.75-.38-1.66-.08-2.04,.66-.38,.75-.08,1.66,.66,2.04,.75,.38,1.66,.08,2.04-.66,.38-.75,.08-1.66-.66-2.04Z"/>
  </g>
</svg>