<?xml version="1.0" encoding="UTF-8"?>
<svg id="Abstract_Shapes" data-name="Abstract Shapes" xmlns="http://www.w3.org/2000/svg" viewBox="0 0 72 72">
  <defs>
    <style>
      .cls-1 {
        fill: #fff;
      }
    </style>
  </defs>
  <g id="Tiger_001">
    <path class="cls-1" d="M42.06,23.59c-.2-5.84-3.68-10.16-3.94-10.05-.15,.06,.78,1.6,1.4,4.06-.74,1.34-2.21,4.24-2.31,4.96-.33,2.54-1.1,3.21-1.07,3.99,.03,.78,.98,1.62,.99,1.82,0,.19,.92,1.96,.96,2.72,.09,.38,.12-1.97,.12-1.97,.05-.08-.26-2.78-.11-3.47s.71-4,1.28-5.6c.18-.5,.29-.96,.37-1.38,.21,1.11,.33,2.36,.27,3.73-.15,3.32,.25,4.53-.98,8.54-1.51,4.91-1.85,8.55-1.84,13.75,.02,6.58-.15,12.73,.29,12.71,.34-.02,.17-3.75,.76-11.77,.4-5.41,.6-8.12,1.17-10.96,1.34-6.68,2.76-7.21,2.63-11.05Z"/>
    <path class="cls-1" d="M44.62,20.1c-.41,.15-.11,.48,1.27,4.5,.32,.93,.57,4.08,.8,5.54,.23,1.4,.18,3.47-1.03,6.58-1.7,4.38-.36,3.16-1.1,8.77-.05,.36,2.81-8.68,3.4-10.97,2.11-8.14-2.7-14.64-3.35-14.41Z"/>
    <path class="cls-1" d="M34.62,33.4s-.41,2.08-.4,4.28c0,1.91-1.78,4.36-1.78,4.36,.18-.21,2.08-3.02,2.42-3.97,.34-.94,.65-3.05,.71-4.51,.06-1.46-1.09-6.08-1.09-6.08l.14,5.91Z"/>
    <path class="cls-1" d="M29.69,26.79c-.2,1.26-1.55,5.66-1.85,6.74-.3,1.08-.65,3.79-.79,4.96-.03,.25-.01,.6,.03,.99-.28,.96-1.23,5.11-1.12,5.95,.33,2.54-.25,3.38-.02,4.13,.23,.75,1.36,1.32,1.42,1.51,.05,.17,1.11,1.35,1.51,2.12,.07,.66,.12,1.12,.14,1.15,.07,.11,1.3-6.34,.67-8.46-.6-2-.78-1.51-1.19-9.36-.1-1.84,1.9-7.37,2.4-9.77,.5-2.39-.17-5.56-.23-5.7,0,0-.75,4.49-.95,5.75Zm-.93,25.42c-.09-.39-.17-.71-.17-.71,.03-.09-.96-2.63-.99-3.33-.03-.7-.33-4.05-.19-5.75,.03-.32,.03-.61,.03-.89,.19,.87,.37,1.59,.4,1.66,.05,.16,.57,4.55,.54,4.62-.02,.05,.2,2.51,.39,4.39Z"/>
    <path class="cls-1" d="M42.54,34.69c0,.07-.66,4.3-.66,4.3,.01,.13-.68,5.61-.71,6.15-.04,.54,.01,4.84,.01,4.84l.55,3.18,.09-6.64s.54-4.16,.61-4.25c.07-.09,.32-2.65,.32-2.65l-.18-3.63s-.03-1.38-.04-1.31Z"/>
    <path class="cls-1" d="M25.41,22.08c-.03,.13-.47,2.41-.67,3.26s-1.48,4.28-1.72,5.16c-.16,.6,.74-5.06,.74-5.06,0,0-.04-2.35-.04-2.42,0-.06-.52-1.98-.62-2.43,.05,.66-.02,4.64-.06,4.79-.04,.16-.04,1.42-.36,3.15-.31,1.65-.37,3.28-.41,4.31s-.39,4.23-.55,5.06c-.16,.83,.1,3.76-.02,4.83-.12,1.07,.05,1.9-.11,4.61-.06,.97,.1,7.61,.1,7.61,.06-.12,.79-10.1,.94-11.31,.15-1.21-.42-1.42-.2-4.58,.21-3.16,1.2-6.26,1.42-7.57,.21-1.31,1.85-7.64,1.87-9.22,.02-1.58-.36-3.07-.36-3.07,0,0,.08,2.76,.06,2.89Z"/>
    <path class="cls-1" d="M23.09,20.59s0-.08-.01-.09c-.01-.02,0,.02,.01,.09Z"/>
    <path class="cls-1" d="M48.67,43.1c-.11,.69-1.68,7.26-1.74,7.43-.06,.17-.69,3.76-.74,3.88,0,0-.78,5.46-.79,5.6s2.15-7.76,2.36-8.99c.21-1.23,1.49-6.99,1.6-8.11,.12-1.12-.27-8.02-.31-8.18-.04-.16-.28,7.67-.39,8.36Z"/>
    <path class="cls-1" d="M54.18,11.15c-.17-.03-.51,.84-.92,2.29-1.12,.92-3.75,3.5-4.21,4.75-.59,1.6,.48,3.16-.33,5.39-.34,.94,.42,1.87,.45,2.12,.02,.2,1.64,3.81,2.33,5.7,.26,1.91,.65,3.85,1.06,6.05,.78,4.12,.5,5.44,.28,8.76-.34,5.11-3.09,8.45-2.87,8.57,.25,.14,4.63-4,4.3-9.83-.2-3.5-.08-4.21-.67-10.99-.25-2.89-.94-6.27,.04-11.02,1.63-7.88,.88-11.73,.54-11.78Zm-2.82,12.42c-.18,1.55-.21,2.96-.17,4.31-.18-.78-.4-1.51-.66-2.05-.37-.76-.32-2.14-.17-2.91s.25-3.52,.89-5.19c.37-.96,1.14-2.24,1.73-3.21-.58,2.33-1.23,5.6-1.62,9.05Z"/>
    <path class="cls-1" d="M59.68,15.17c-.23,.1,2.13,3.72,1.9,8.84-.15,3.32-.28,4.75-1.51,8.75-1.15,3.76-1.98,6.69-2.3,10.18-.06-.8-.22-2.53-.1-3.07,.15-.69,.71-4,1.28-5.6,.57-1.61,.53-2.86,.56-3.11s-2.6,4.67-2.73,5.64c-.33,2.54-1.1,3.21-1.07,3.99,.03,.78,.98,1.62,.99,1.82,0,.19,.84,1.8,.95,2.61,0,.37-.02,.74-.02,1.13,.02,6.58,1,12.68,1.43,12.65,.34-.02,.17-3.75,.76-11.77,.4-5.41,.6-8.12,1.17-10.96,1.34-6.68,2.76-7.21,2.63-11.05-.2-5.84-3.68-10.16-3.94-10.05Z"/>
    <path class="cls-1" d="M18.15,28.85c.29-8.04-2.25-11.96-2.58-12.02-.43-.07,1.69,4.6,.95,11.13-.59,5.17-1.3,7-.34,12.05,.78,4.12,.83,3.56,.61,6.87-.34,5.11-1.79,6.95-1.57,7.08,.25,.14,1.86-2,2.7-7.78,.55-3.8,.47-1.15-.12-7.93-.25-2.89,.15-3.98,.34-9.4Z"/>
    <path class="cls-1" d="M13.61,21.45c0,.07-.66,4.3-.66,4.3,.01,.13-.68,5.61-.71,6.15-.04,.54,.01,4.84,.01,4.84l.55,3.18,.09-6.64s.54-4.16,.61-4.25,.32-2.65,.32-2.65l-.18-3.63s-.03-1.38-.04-1.31Z"/>
    <path class="cls-1" d="M57.03,29.31l.09-6.64s.54-4.16,.61-4.25c.07-.09,.32-2.65,.32-2.65l-.18-3.63s-.03-1.38-.04-1.31c0,.07-.66,4.3-.66,4.3,.01,.13-.68,5.61-.71,6.15-.04,.54,.01,4.84,.01,4.84l.55,3.18Z"/>
    <path class="cls-1" d="M8.91,45.11c-.35-1.37-.49-3.44,.43-6.64,1.3-4.52,.07-3.18,.3-8.83,.01-.36-2.01,8.9-2.4,11.23-1.37,8.29,4.02,14.34,4.64,14.05,.4-.18,.07-.49-1.67-4.37-.4-.89-.93-4.01-1.3-5.44Z"/>
    <path class="cls-1" d="M7.96,23.13c.04-.54-.01-4.84-.01-4.84l-.55-3.18-.09,6.64s-.54,4.16-.61,4.25c-.07,.09-.32,2.65-.32,2.65l.18,3.63s.03,1.38,.04,1.31c0-.07,.66-4.3,.66-4.3-.01-.13,.68-5.61,.71-6.15Z"/>
    <path class="cls-1" d="M2.18,47.2s-.41,2.08-.4,4.28C1.79,53.39,0,55.84,0,55.84c.18-.21,2.08-3.02,2.42-3.97,.34-.94,.65-3.05,.71-4.51,.06-1.46-1.09-6.08-1.09-6.08l.14,5.91Z"/>
    <path class="cls-1" d="M67.34,31.75c-.18,.21-2.08,3.02-2.42,3.97-.34,.94-.65,3.05-.71,4.51s1.09,6.08,1.09,6.08l-.14-5.91s.41-2.08,.4-4.28c0-1.91,1.78-4.36,1.78-4.36Z"/>
    <path class="cls-1" d="M32.61,15.72c.04-.82-.61-3.42-.61-3.42l.08,3.33s-.23,1.17-.22,2.41c0,1.08-1,2.45-1,2.45,.1-.12,1.17-1.7,1.36-2.23,.19-.53,.36-1.71,.4-2.54Z"/>
    <path class="cls-1" d="M33.29,55.6s-.23,1.17-.22,2.41c0,1.08-1,2.45-1,2.45,.1-.12,1.17-1.7,1.36-2.23,.19-.53,.36-1.71,.4-2.54,.04-.82-.61-3.42-.61-3.42l.08,3.33Z"/>
    <path class="cls-1" d="M71.92,12.86c-.04,.08-.58,7.33-.68,8.2-.11,.88,.3,1.03,.15,3.32s-.87,4.54-1.03,5.49c-.15,.95-1.34,5.54-1.36,6.69-.02,1.15,.26,2.23,.26,2.23,0,0-.06-2-.04-2.1s.34-1.75,.49-2.36c.14-.61,1.07-3.1,1.25-3.74,.12-.43-.54,3.67-.54,3.67,0,0,.03,1.71,.03,1.76,0,.05,.38,1.44,.45,1.76-.04-.48,.01-3.36,.04-3.47,.03-.12,.03-1.03,.26-2.29,.22-1.2,.27-2.38,.3-3.13s.28-3.07,.4-3.67c.11-.6-.08-2.73,.01-3.5,.09-.77-.03-1.38,.08-3.34,.04-.71-.08-5.52-.08-5.52Z"/>
    <path class="cls-1" d="M70.9,37.78s0,.06,0,.07c0,.01,0-.01,0-.07Z"/>
    <path class="cls-1" d="M68.78,46.58s-.52,2.65-.51,5.46c.01,2.44-2.27,5.56-2.27,5.56,.23-.27,2.65-3.86,3.09-5.06,.43-1.21,.82-3.89,.91-5.75,.08-1.86-1.39-7.76-1.39-7.76l.17,7.55Z"/>
  </g>
</svg>