<svg id="Layer_1" data-name="Layer 1" xmlns="http://www.w3.org/2000/svg" viewBox="0 0 24 24"><defs><style>.cls-1{fill:none;}.cls-2{fill:#fff;}</style></defs><g id="classic_ArrowDown"><g id="Group_169973" data-name="Group 169973"><rect id="Rectangle_626011-27" data-name="Rectangle 626011-27" class="cls-1" x="2.88" y="2.88" width="18.24" height="18.24"/><g id="Path_75842" data-name="Path 75842"><path class="cls-2" d="M12.59,5c3.89,0,5.71,2.37,5.71,6V13c0,3.64-1.82,6-5.71,6H11.41C7.5,19,5.68,16.61,5.68,13V10.91C5.68,7.32,7.5,5,11.41,5h1.18m-3.5,7.4L14.8,9.19c-.26-1.1-1-1.57-2.33-1.57h-.94c-1.8,0-2.44.8-2.44,2.81v1.93m2.44,4h.94c1.8,0,2.44-.82,2.44-2.83V11.58L9.2,14.75c.26,1.14,1,1.61,2.33,1.61M12.59,4H11.41c-4.22,0-6.73,2.6-6.73,7V13C4.68,17.4,7.19,20,11.41,20h1.18c4.2,0,6.71-2.63,6.71-7V10.94c0-4.37-2.51-7-6.71-7Zm-2.5,6.7v-.23c0-1.66.38-1.81,1.44-1.81h.94a2,2,0,0,1,1,.18l-3.36,1.86Zm.43,4.5,3.39-1.88v.25c0,1.67-.4,1.83-1.44,1.83h-.94a1.82,1.82,0,0,1-1-.2Z"/></g></g></g></svg>