<svg id="Layer_1" data-name="Layer 1" xmlns="http://www.w3.org/2000/svg" viewBox="0 0 24 24"><defs><style>.cls-1{fill:none;}.cls-2{fill:#fff;}</style></defs><g id="classic_ArrowDown"><g id="Group_169949" data-name="Group 169949"><rect id="Rectangle_626011-3" data-name="Rectangle 626011-3" class="cls-1" x="2.88" y="2.88" width="18.24" height="18.24"/><g id="Path_75812" data-name="Path 75812"><path class="cls-2" d="M17.53,5.16V7.88H13.11c-2.33,0-3.06.91-3.06,3v2.14c0,2.15.73,3.06,3.14,3.06H17.6v2.72H13C8.7,18.84,6.6,16.54,6.6,13V11C6.6,7.46,8.7,5.16,13,5.16h4.49m1-1H13C8.38,4.16,5.6,6.73,5.6,11V13c0,4.3,2.78,6.87,7.44,6.87H18.6V15.12H13.19c-1.86,0-2.14-.46-2.14-2.06V10.92c0-1.58.27-2,2.06-2h5.42V4.16Z"/></g></g></g></svg>