<svg id="Layer_1" data-name="Layer 1" xmlns="http://www.w3.org/2000/svg" viewBox="0 0 24 24"><defs><style>.cls-1{fill:none;}.cls-2{fill:#fff;}</style></defs><g id="classic_ArrowDown"><g id="Group_169980" data-name="Group 169980"><rect id="Rectangle_626011-34" data-name="Rectangle 626011-34" class="cls-1" x="2.88" y="2.88" width="18.24" height="18.24"/><g id="Path_75849" data-name="Path 75849"><path class="cls-2" d="M14.26,5.16c2.14,0,3,.88,3,2.33a5.5,5.5,0,0,1-.86,2.59L11.6,18.84H8.1l5.58-10a1.26,1.26,0,0,0,.22-.65c0-.3-.22-.44-.64-.44H6.75V5.16h7.51m0-1H5.75V8.77h6.84L7.22,18.35l-.83,1.49h5.8l.28-.52,4.84-8.73a6.6,6.6,0,0,0,1-3V7.49c0-1-.4-3.33-4-3.33Z"/></g></g></g></svg>