<svg id="Layer_1" data-name="Layer 1" xmlns="http://www.w3.org/2000/svg" viewBox="0 0 24 24"><defs><style>.cls-1{fill:none;}.cls-2{fill:#fff;}</style></defs><g id="classic_ArrowDown"><g id="Group_169972" data-name="Group 169972"><rect id="Rectangle_626011-26" data-name="Rectangle 626011-26" class="cls-1" x="2.88" y="2.88" width="18.24" height="18.24"/><g id="Path_75835" data-name="Path 75835"><path class="cls-2" d="M13.61,5.16c2.87,0,4,.91,4,2.77,0,1.26-.7,2.34-2.32,3.43L10.14,14.9c-.37.26-.53.4-.53.71s.25.51.67.51H17.4v2.72H9.92c-2.57,0-3.68-1.28-3.68-2.85s.89-2.49,2.62-3.64L13.75,9c.37-.26.48-.4.48-.66s-.24-.49-.72-.49H6.66V5.16h7m0-1H5.66V8.88h6.53L8.3,11.52C6.71,12.57,5.24,13.85,5.24,16c0,1.78,1.22,3.85,4.68,3.85H18.4V15.12H11.59l4.29-2.93c1.88-1.27,2.76-2.62,2.76-4.26,0-2.5-1.7-3.77-5-3.77Z"/></g></g></g></svg>