<svg id="Layer_1" data-name="Layer 1" xmlns="http://www.w3.org/2000/svg" viewBox="0 0 24 24"><defs><style>.cls-1{fill:none;}.cls-2{fill:#fff;}</style></defs><g id="classic_ArrowDown"><g id="Group_169950" data-name="Group 169950"><rect id="Rectangle_626011-4" data-name="Rectangle 626011-4" class="cls-1" x="2.88" y="2.88" width="18.24" height="18.24"/><g id="Path_75813" data-name="Path 75813"><path class="cls-2" d="M12.16,5.16c4.29,0,6.46,2.23,6.46,5.82v2c0,3.58-2.14,5.82-6.49,5.82H6V5.16h6.2M9.22,16.21H12c2.44,0,3.21-.82,3.21-3.1V10.85c0-2.26-.76-3.08-3.12-3.08H9.22v8.44m2.94-12H5V19.84h7.17c4.69,0,7.49-2.55,7.49-6.82V11c0-4.27-2.79-6.82-7.46-6.82ZM10.22,8.77h1.83c1.78,0,2.12.33,2.12,2.08v2.26c0,1.68-.26,2.1-2.21,2.1H10.22V8.77Z"/></g></g></g></svg>