<svg id="Layer_1" data-name="Layer 1" xmlns="http://www.w3.org/2000/svg" viewBox="0 0 24 24"><defs><style>.cls-1{fill:none;}.cls-2{fill:#fff;}</style></defs><g id="classic_ArrowDown"><g id="Group_169979" data-name="Group 169979"><rect id="Rectangle_626011-33" data-name="Rectangle 626011-33" class="cls-1" x="2.88" y="2.88" width="18.24" height="18.24"/><g id="Path_75848" data-name="Path 75848"><path class="cls-2" d="M15.67,5.16,11.43,9.45a2.17,2.17,0,0,1-.36.32,3.55,3.55,0,0,1,.86-.1h1.42c3,0,4.43,1.22,4.43,3.88V14.9c0,2.79-1.51,4.14-4.9,4.14H11.51c-3.67,0-5.2-1.39-5.2-4.58V13.13c0-1.75.6-3,2.7-5.05l2.83-2.92h3.83m-4.4,11.36h1.81c1.11,0,1.49-.49,1.49-1.51v-1.3c0-1.09-.4-1.49-1.55-1.49h-1.9c-1.07,0-1.53.45-1.53,1.6v.95c0,1.26.46,1.75,1.68,1.75M18.06,4.16H11.41l-.29.3L8.29,7.38c-2.23,2.23-3,3.68-3,5.75v1.33c0,3.76,2,5.58,6.2,5.58h1.37c3.91,0,5.9-1.73,5.9-5.14V13.55c0-2.18-.9-4.78-5.17-4.88l2.77-2.81,1.68-1.7Zm-7.38,9.12a1,1,0,0,1,.44-.06H13a1.51,1.51,0,0,1,.52.06s0,.13,0,.43V15a1,1,0,0,1-.06.46h0a1.26,1.26,0,0,1-.43,0H11.27c-.63,0-.68,0-.68-.75v-.95c0-.42.08-.53.09-.54Z"/></g></g></g></svg>