<svg id="Layer_1" data-name="Layer 1" xmlns="http://www.w3.org/2000/svg" viewBox="0 0 24 24"><defs><style>.cls-1{fill:none;}.cls-2{fill:#fff;}</style></defs><g id="classic_ArrowDown"><g id="Group_169961" data-name="Group 169961"><rect id="Rectangle_626011-15" data-name="Rectangle 626011-15" class="cls-1" x="2.88" y="2.88" width="18.24" height="18.24"/><g id="Path_75824" data-name="Path 75824"><path class="cls-2" d="M12.63,5c4.21,0,6.16,2.4,6.16,6.05v2c0,3.62-1.95,6-6.16,6H11.37c-4.21,0-6.15-2.43-6.15-6V11c0-3.65,1.94-6,6.15-6h1.26m-4,8.39h0c0,2.13.74,3,2.58,3h1.49c1.86,0,2.61-.88,2.61-3V10.56c0-2.1-.75-2.94-2.61-2.94H11.26c-1.84,0-2.59.84-2.59,2.94v2.79m4-9.39H11.37C6.83,4,4.22,6.53,4.22,11v2c0,4.41,2.68,7,7.15,7h1.26c4.49,0,7.16-2.64,7.16-7V11c0-4.42-2.67-7-7.16-7Zm-3,9.39V10.56c0-1.76.49-1.94,1.59-1.94h1.48c1.12,0,1.61.18,1.61,1.94v2.79c0,1.81-.52,2-1.61,2H11.26c-1.08,0-1.59-.2-1.59-2Z"/></g></g></g></svg>