<svg id="Layer_1" data-name="Layer 1" xmlns="http://www.w3.org/2000/svg" viewBox="0 0 24 24"><defs><style>.cls-1{fill:none;}.cls-2{fill:#fff;}</style></defs><g id="classic_ArrowDown"><g id="Group_169982" data-name="Group 169982"><rect id="Rectangle_626011-36" data-name="Rectangle 626011-36" class="cls-1" x="2.88" y="2.88" width="18.24" height="18.24"/><g id="Path_75851" data-name="Path 75851"><path class="cls-2" d="M12.49,5c3.67,0,5.2,1.39,5.2,4.58v1.33c0,1.75-.6,3-2.7,5.05l-2.83,2.92H8.33l4.24-4.29a2.17,2.17,0,0,1,.36-.32,3.55,3.55,0,0,1-.86.1H10.65c-3,0-4.43-1.22-4.43-3.88V9.1C6.22,6.31,7.73,5,11.12,5h1.37M11,11.78h1.9c1.07,0,1.53-.45,1.53-1.6V9.23c0-1.26-.46-1.75-1.68-1.75H10.92C9.81,7.48,9.43,8,9.43,9v1.3c0,1.09.4,1.49,1.55,1.49M12.49,4H11.12C7.21,4,5.22,5.69,5.22,9.1v1.35c0,2.18.9,4.78,5.17,4.88L7.62,18.14l-1.68,1.7h6.65l.29-.3,2.83-2.92c2.23-2.23,3-3.68,3-5.75V9.54c0-3.76-2-5.58-6.2-5.58Zm-2,4.57a1.26,1.26,0,0,1,.43,0h1.81c.63,0,.68,0,.68.75v.95c0,.42-.08.53-.09.54h0a1,1,0,0,1-.44.06H11a1.51,1.51,0,0,1-.52-.06s0-.13,0-.43V9a1,1,0,0,1,.06-.46Z"/></g></g></g></svg>