<svg id="Layer_1" data-name="Layer 1" xmlns="http://www.w3.org/2000/svg" viewBox="0 0 24 24"><defs><style>.cls-1{fill:none;}.cls-2{fill:#fff;}</style></defs><g id="classic_ArrowDown"><g id="Group_169957" data-name="Group 169957"><rect id="Rectangle_626011-11" data-name="Rectangle 626011-11" class="cls-1" x="2.88" y="2.88" width="18.24" height="18.24"/><g id="Path_75820" data-name="Path 75820"><path class="cls-2" d="M18.65,5.16,13.8,11.84l5,7H15L11.9,14.41a1.76,1.76,0,0,0-1.59-1H9.49v5.44H6.25V5.16H9.49V10.5h.62a1.27,1.27,0,0,0,.28,0,1.58,1.58,0,0,0,1.4-.86L15,5.16h3.67m2-1H14.47l-.3.42L11,9.09l0,.06,0,.06a.59.59,0,0,1-.41.31V4.16H5.25V19.84h5.24V14.42a.71.71,0,0,1,.5.41l0,.08.05.08,3.14,4.43.3.42h6.24l-1.13-1.58L15,11.84l4.43-6.09,1.15-1.59Z"/></g></g></g></svg>