<svg id="Layer_1" data-name="Layer 1" xmlns="http://www.w3.org/2000/svg" viewBox="0 0 24 24"><defs><style>.cls-1{fill:none;}.cls-2{fill:#fff;}</style></defs><g id="classic_ArrowDown"><g id="Group_169948" data-name="Group 169948"><rect id="Rectangle_626011-2" data-name="Rectangle 626011-2" class="cls-1" x="2.88" y="2.88" width="18.24" height="18.24"/><g id="Path_75811" data-name="Path 75811"><path class="cls-2" d="M12.34,5.16C16,5.16,18,5.85,18,8.57v.6a2.68,2.68,0,0,1-2.21,2.68c1.81.53,2.48,1.61,2.48,2.79v.64c0,2.63-1.66,3.56-5.76,3.56h-6V5.16h5.88M9.73,10.69h2.92c1.57,0,2-.4,2-1.3V8.86c0-.87-.41-1.31-1.9-1.31h-3v3.14m0,5.74H12.9c1.63,0,2-.44,2-1.31v-.55c0-.86-.35-1.4-1.9-1.4H9.73v3.27M12.34,4.16H5.46V19.84h7c3.34,0,6.76-.54,6.76-4.56v-.64a3.52,3.52,0,0,0-1.36-2.84A3.48,3.48,0,0,0,19,9.17v-.6c0-4.41-4.47-4.41-6.62-4.41ZM10.73,8.55h2a2,2,0,0,1,.89.12,1.7,1.7,0,0,1,0,.19v.53c0,.1,0,.16,0,.19a2.91,2.91,0,0,1-1,.11H10.73V8.55Zm0,6.88V14.17H13a1.77,1.77,0,0,1,.88.13,1.27,1.27,0,0,1,0,.27v.55a.93.93,0,0,1,0,.2,2.58,2.58,0,0,1-1,.11Z"/></g></g></g></svg>