<svg id="Layer_1" data-name="Layer 1" xmlns="http://www.w3.org/2000/svg" viewBox="0 0 24 24"><defs><style>.cls-1{fill:none;}.cls-2{fill:#fff;}</style></defs><g id="classic_ArrowDown"><g id="Group_169962" data-name="Group 169962"><rect id="Rectangle_626011-16" data-name="Rectangle 626011-16" class="cls-1" x="2.88" y="2.88" width="18.24" height="18.24"/><g id="Path_75825" data-name="Path 75825"><path class="cls-2" d="M12.67,5.16c3.51,0,5.4,1,5.4,3.85v1.26c0,3-1.89,3.86-5.4,3.86H9.83v4.71H6.56V5.16h6.11M9.83,11.64h3.1c1.4,0,1.86-.53,1.86-1.5v-1c0-1-.46-1.49-1.86-1.49H9.83v4m2.84-7.48H5.56V19.84h5.27V15.13h1.84c1.75,0,6.4,0,6.4-4.86V9c0-4.85-4.81-4.85-6.4-4.85ZM10.83,8.68h2.1c.86,0,.86.11.86.49v1c0,.36,0,.5-.86.5h-2.1v-2Z"/></g></g></g></svg>