<svg id="Layer_1" data-name="Layer 1" xmlns="http://www.w3.org/2000/svg" viewBox="0 0 24 24"><defs><style>.cls-1{fill:none;}.cls-2{fill:#fff;}</style></defs><g id="classic_ArrowDown"><g id="Group_169963" data-name="Group 169963"><rect id="Rectangle_626011-17" data-name="Rectangle 626011-17" class="cls-1" x="2.88" y="2.88" width="18.24" height="18.24"/><g id="Path_75826" data-name="Path 75826"><path class="cls-2" d="M12.62,3.69c4.21,0,6.17,2.41,6.17,6.06v2c0,3.06-1.39,5.27-4.36,5.89l2.09,2.7H13.15l-2-2.54c-4.09-.07-6-2.48-6-6v-2c0-3.65,1.94-6.06,6.15-6.06h1.26m-1.38,11.4h1.49c1.86,0,2.61-.88,2.61-3V9.29c0-2.1-.75-2.94-2.61-2.94H11.26c-1.85,0-2.59.84-2.59,2.94v2.79h0c0,2.13.75,3,2.58,3m1.38-12.4H11.36c-4.54,0-7.15,2.57-7.15,7.06v2c0,4.24,2.35,6.78,6.46,7l1.69,2.16.3.39h5.91L17.31,19.7l-1.22-1.58c2.37-1,3.7-3.31,3.7-6.4v-2c0-4.42-2.68-7.06-7.17-7.06Zm-3,9.6v-3c0-1.75.48-1.94,1.59-1.94h1.47c1.12,0,1.61.19,1.61,1.94v2.79c0,1.81-.52,2-1.61,2H11.24c-1,0-1.54-.18-1.58-1.8Z"/></g></g></g></svg>