<svg id="Layer_1" data-name="Layer 1" xmlns="http://www.w3.org/2000/svg" viewBox="0 0 24 24"><defs><style>.cls-1{fill:none;}.cls-2{fill:#fff;}</style></defs><g id="classic_ArrowDown"><g id="Group_169965" data-name="Group 169965"><rect id="Rectangle_626011-19" data-name="Rectangle 626011-19" class="cls-1" x="2.88" y="2.88" width="18.24" height="18.24"/><g id="Path_75828" data-name="Path 75828"><path class="cls-2" d="M17.22,5.16V7.88H11.05c-1,0-1.38.44-1.38.93S10,9.7,10.89,10l2.86.86c2.63.8,3.92,1.84,3.92,4s-1.6,4-5,4H6.82V16.12H13c1.15,0,1.56-.45,1.56-1.13s-.34-1-1.67-1.38L10,12.75c-2.33-.7-3.52-1.95-3.52-3.83,0-2.3,1.65-3.76,4.64-3.76h6.13m1-1H11.09C7.61,4.16,5.45,6,5.45,8.92c0,1.61.74,3.75,4.24,4.79l2.86.85a3.17,3.17,0,0,1,1,.39V15a1.48,1.48,0,0,1-.56.08H5.82v4.72h6.82c4.45,0,6-2.59,6-5,0-3.1-2.34-4.24-4.63-4.94L11.17,9l-.37-.15h7.42V4.16Z"/></g></g></g></svg>