<svg id="Layer_1" data-name="Layer 1" xmlns="http://www.w3.org/2000/svg" viewBox="0 0 24 24"><defs><style>.cls-1{fill:none;}.cls-2{fill:#fff;}</style></defs><g id="classic_ArrowDown"><g id="Group_169968" data-name="Group 169968"><rect id="Rectangle_626011-22" data-name="Rectangle 626011-22" class="cls-1" x="2.88" y="2.88" width="18.24" height="18.24"/><g id="Path_75831" data-name="Path 75831"><path class="cls-2" d="M18.76,5.16,15.48,16.09C14.94,17.93,14,19,12.11,19s-2.92-1-3.5-2.9l-3.37-11H8.79l2.88,10.56c.08.31.19.46.41.46s.34-.11.45-.48l3-10.54h3.26m1.35-1H14.74l-.21.73-2.42,8.63L9.75,4.9l-.2-.74H3.88l.4,1.29,3.37,11C8.17,18.11,9.14,20,12.11,20a4.44,4.44,0,0,0,4.33-3.67L19.72,5.45l.39-1.29Z"/></g></g></g></svg>