<svg id="Layer_1" data-name="Layer 1" xmlns="http://www.w3.org/2000/svg" viewBox="0 0 24 24"><defs><style>.cls-1{fill:none;}.cls-2{fill:#fff;}</style></defs><g id="classic_ArrowDown"><g id="Group_169959" data-name="Group 169959"><rect id="Rectangle_626011-13" data-name="Rectangle 626011-13" class="cls-1" x="2.88" y="2.88" width="18.24" height="18.24"/><g id="Path_75822" data-name="Path 75822"><path class="cls-2" d="M17.58,4.94c2,0,3.43,1.11,3.43,3.7v10.2H17.88V8.3c0-.33-.13-.53-.38-.53s-.38.16-.46.51L15.36,16c-.36,1.77-1.4,3-3.34,3a3.3,3.3,0,0,1-3.44-3L7,8.28c-.07-.35-.22-.51-.48-.51s-.38.18-.38.53V18.84H3V8.64C3,6,4.49,4.94,6.42,4.94c2.19,0,3.38,1.35,3.76,3.47l1.48,7.46c.05.29.15.43.36.43s.31-.14.37-.43l1.47-7.46c.37-2.12,1.54-3.47,3.72-3.47m0-1c-2.55,0-4.22,1.53-4.71,4.3L12,12.56l-.86-4.35C10.67,5.46,9,3.94,6.42,3.94,3.67,3.94,2,5.74,2,8.64v11.2H7.11V13.9l.49,2.33A4.27,4.27,0,0,0,12,20.06c2.25,0,3.82-1.4,4.32-3.83l.54-2.47v6.08H22V8.64c0-2.9-1.69-4.7-4.43-4.7Z"/></g></g></g></svg>