<svg id="Layer_1" data-name="Layer 1" xmlns="http://www.w3.org/2000/svg" viewBox="0 0 24 24"><defs><style>.cls-1{fill:none;}.cls-2{fill:#fff;}</style></defs><g id="classic_ArrowDown"><g id="Group_169953" data-name="Group 169953"><rect id="Rectangle_626011-7" data-name="Rectangle 626011-7" class="cls-1" x="2.88" y="2.88" width="18.24" height="18.24"/><g id="Path_75816" data-name="Path 75816"><path class="cls-2" d="M18.06,5.16V7.88H11.78c-2.21,0-2.86.88-2.86,3v2.48c0,2.17.67,3,2.59,3h1.84c1.57,0,2.08-.4,2.08-1.46V13.44H11.92V10.82H18.4V15c0,2.89-1.73,4-5.21,4H11.67c-4.21,0-6.2-2.28-6.2-6V11c0-3.57,2-5.87,6.33-5.87h6.26m1-1H11.8C7.21,4.16,4.47,6.73,4.47,11v2c0,4.48,2.62,7,7.2,7h1.52c1.53,0,6.21,0,6.21-5V9.82H10.92v4.62h3.51v.46a.85.85,0,0,1,0,.33h0a2.3,2.3,0,0,1-1,.13H11.51c-1.13,0-1.59-.18-1.59-2V10.84c0-1.63.31-2,1.86-2h7.28V4.16Z"/></g></g></g></svg>