<svg id="Layer_1" data-name="Layer 1" xmlns="http://www.w3.org/2000/svg" viewBox="0 0 24 24"><defs><style>.cls-1{fill:none;}.cls-2{fill:#fff;}</style></defs><g id="classic_ArrowDown"><g id="Group_169947" data-name="Group 169947"><rect id="Rectangle_626011" data-name="Rectangle 626011" class="cls-1" x="2.88" y="2.88" width="18.24" height="18.24"/><g id="Path_75810" data-name="Path 75810"><path class="cls-2" d="M12,4.94c1.79,0,2.68,1,3.27,2.63l4.28,11.27H16.14l-1.09-3.06H8.86L7.77,18.84H4.47l4.3-11.2C9.39,6,10.25,4.94,12,4.94M9.81,13.17h4.32l-1.77-5c-.09-.24-.18-.37-.38-.37s-.29.11-.38.37l-1.79,5M12,3.94c-2.58,0-3.6,1.91-4.15,3.35L3.53,18.48,3,19.84H8.47l.24-.66.86-2.4h4.77l.86,2.4.24.66H21l-.51-1.36L16.18,7.21A4.37,4.37,0,0,0,12,3.94Zm-.75,8.23L12,10.1l.74,2.07Z"/></g></g></g></svg>