<svg id="Layer_1" data-name="Layer 1" xmlns="http://www.w3.org/2000/svg" viewBox="0 0 24 24"><defs><style>.cls-1{fill:none;}.cls-2{fill:#fff;}</style></defs><g id="classic_ArrowDown"><g id="Group_169970" data-name="Group 169970"><rect id="Rectangle_626011-24" data-name="Rectangle 626011-24" class="cls-1" x="2.88" y="2.88" width="18.24" height="18.24"/><g id="Path_75833" data-name="Path 75833"><path class="cls-2" d="M18.82,5.16,14.39,12,19,18.84H15.41L12.69,14.5c-.22-.35-.42-.51-.67-.51s-.48.16-.7.51L8.66,18.84H5.18L9.59,12,5,5.16H8.75l2.63,4.27c.2.31.36.47.6.47s.42-.13.64-.47l2.61-4.27h3.59m1.84-1h-6l-.29.48L12,8.53,9.6,4.64l-.29-.48H3.14l1,1.56L8.4,12,4.34,18.3l-1,1.54H9.22l.29-.48L12,15.29l2.55,4.08.3.47h6l-1-1.56L15.59,12,19.66,5.7l1-1.54Z"/></g></g></g></svg>