<svg id="Layer_1" data-name="Layer 1" xmlns="http://www.w3.org/2000/svg" viewBox="0 0 24 24"><defs><style>.cls-1{fill:none;}.cls-2{fill:#fff;}</style></defs><g id="classic_ArrowDown"><g id="Group_169978" data-name="Group 169978"><rect id="Rectangle_626011-32" data-name="Rectangle 626011-32" class="cls-1" x="2.88" y="2.88" width="18.24" height="18.24"/><g id="Path_75847" data-name="Path 75847"><path class="cls-2" d="M17.23,5.16V7.9H10v2.4h2.72c3.3,0,4.6,1.15,4.6,4v.58c0,2.61-1.35,3.94-4.89,3.94H7V16.23h5.25c1.35,0,1.77-.29,1.77-1.29v-.7c0-1-.42-1.36-1.69-1.36H7V5.16h10.2m1-1H6v9.72h6.33a2.59,2.59,0,0,1,.67.06,1.62,1.62,0,0,1,0,.3v.7c0,.11,0,.18,0,.22a2.67,2.67,0,0,1-.76.07H6v4.61h6.42c4,0,5.89-1.62,5.89-4.94v-.58c0-3.42-1.78-5-5.6-5H11V8.9h7.21V4.16Z"/></g></g></g></svg>