<?xml version="1.0" encoding="UTF-8"?>
<svg id="TEXT" xmlns="http://www.w3.org/2000/svg" viewBox="0 0 72 72">
  <defs>
    <style>
      .cls-1 {
        fill: #fff;
      }
    </style>
  </defs>
  <path class="cls-1" d="M50.89,64.96c-1.61,0-3.21,.01-4.8,0-.71,0-1.43-.08-2.14-.1-.22,0-.29-.09-.36-.28-.12-.34-.27-.66-.42-1.01,.14-.03,.27-.09,.39-.08,.45,.04,.63-.25,.82-.58,.44-.76,.37-1.56,.2-2.36-.22-1.06-.28-2.13-.39-3.2-.07-.73-.2-1.52-.88-2.08-1.01-.84-1.43-2.03-1.74-3.27-.03-.12-.08-.24-.08-.35-.04-.81-.48-1.32-1.14-1.76-1.04-.71-2.07-1.47-3.02-2.3-1.79-1.57-2.98-3.5-3.31-5.91-.04-.28-.15-.55-.31-.8-.14,1.02,.11,1.97,.44,2.97-.39-.08-.73-.19-1.08-.23-1.7-.22-3.4-.18-5.08,.06-2.44,.34-4.87,.75-7.3,1.13-.13,.02-.26,.02-.42,.03,.1-.62,.4-1.09,.76-1.53,1.04-1.25,2.34-2.2,3.81-2.81,1.03-.43,2.19-.55,3.3-.77,.61-.12,1.23-.17,1.84-.25,.15-.02,.3-.07,.45-.11,0-.04,0-.07-.01-.11-.61,0-1.22-.07-1.81,.01-.99,.13-1.96,.37-2.94,.54-.16,.03-.39,0-.51-.1-1.67-1.37-3.63-2.06-5.71-2.4-.88-.14-1.8-.11-2.7-.1-.31,0-.61,.16-.91,.24,.16-1.01,2.53-3.17,4.17-3.85,1.88-.78,3.79-.64,5.73-.29-.57-.4-1.22-.53-1.88-.65-1.06-.19-2.1-.06-3.12,.26-.42,.13-.8,.14-1.22,.05-2.57-.55-4.98-.06-7.27,1.16-.35,.19-.64,.46-1.06,.78,.04-.23,.04-.36,.08-.49,.28-.97,.85-1.77,1.49-2.52,.77-.91,1.65-1.7,2.66-2.36,1.59-1.04,3.31-1.38,5.21-1.12,2.39,.33,4.72,.84,6.93,1.81,3.34,1.46,6.04,3.7,7.94,6.84,.41,.68,.71,1.42,1.03,2.15,.29,.66,1.14,.97,1.76,.57,2.5-1.62,4.25-3.78,4.76-6.78,.18-1.05,.23-2.12,.28-3.18,.05-.94,.04-1.89,.04-2.83,0-3.16,.66-6.14,2.57-8.74,.9-1.23,1.97-2.3,3.43-2.8,1.53-.53,3.11-.85,4.67-.02,.52,.28,.99,.61,.94,1.33-.03,.39-.22,.63-.51,.82-.74,.49-1.5,.96-2.23,1.47-.35,.24-.7,.51-1,.81-1.29,1.28-1.34,3.07-.63,4.41,.62,1.17,1.36,2.25,2.65,2.79,.32,.14,.65,.26,.97,.39,.84,.34,1.42,.96,1.86,1.73,.9,1.56,1.36,3.27,1.51,5.04,.22,2.67,.13,5.35-.46,7.98-.65,2.91-2.33,5.23-4.51,7.19-.64,.58-1.45,.98-2.2,1.42-.22,.13-.32,.26-.38,.5-.24,.99-.51,1.98-.77,2.97-.04,.14-.11,.28-.17,.41-.51,1.04-1.02,2.08-1.54,3.11-.12,.25-.28,.49-.48,.68-.36,.34-.31,.79-.38,1.2-.12,.73-.18,1.47-.27,2.2-.09,.74,.18,1.18,.77,1.61,.56,.41,1.13,.61,1.8,.53,.31-.04,.62-.14,.93-.24,.51-.17,.77-.02,.85,.5,.03,.22,.1,.44,.15,.68Zm1.8-47.19c.07-.04,.22-.13,.37-.22-.12-.14-.22-.33-.38-.4-.41-.19-.85-.33-1.28-.47-.34-.1-.38,.23-.46,.42-.04,.09,.06,.35,.14,.37,.49,.12,1,.19,1.62,.3Z"/>
  <path class="cls-1" d="M39.37,7.2c.44,.45,.81,.85,1.21,1.23,.65,.61,1.41,1.03,2.31,1.15,.59,.08,.76-.07,.9-.64,.18-.76,.62-1.36,1.11-1.96,1.44,.89,2.75,1.88,3.71,3.29,.18,.26,.22,.5,.12,.79-.21,.63-.39,1.27-.91,1.73-.06,.05-.09,.13-.19,.29,.56-.17,.88-.47,1.04-.91,.19-.53,.31-1.08,.48-1.62,.15-.5,.32-1,.5-1.49,.03-.07,.24-.14,.33-.11,.74,.29,1.52,.51,2.18,.93,1.07,.69,1.83,1.7,2.49,2.79,.44,.72,.19,1.45,.02,2.22-.31-.16-.56-.33-.84-.45-1.17-.5-2.36-.34-3.54-.06-1.19,.29-2.33,.72-3.33,1.49-.74,.57-1.62,.6-2.52,.41-2.64-.56-4.44-2.17-5.58-4.56-.51-1.07-.31-2.16,.04-3.23,.13-.41,.28-.81,.45-1.28Z"/>
  <path class="cls-1" d="M60.68,22.47c-.1-.1-.22-.18-.31-.29-.73-.89-1.72-1.26-2.81-1.32-1.18-.07-2.37-.01-3.55-.01,0,.06-.01,.11-.02,.17,.14,.02,.27,.07,.41,.07,.88,0,1.75-.03,2.63-.02,.16,0,.31,.09,.47,.14-.07,.16-.1,.37-.21,.48-.57,.55-1.27,.86-2.06,.94-.94,.1-2.19-1-2.19-1.94,0-.24,.1-.51,.24-.72,.93-1.41,2.22-2.33,3.92-2.4,2.1-.08,3.41,1.24,3.62,3.29,.05,.52,0,1.06,0,1.58-.04,.01-.09,.02-.13,.03Z"/>
  <path class="cls-1" d="M50.62,22.63c.02-.94,.25-1.52,.67-2.03,.35-.43,.82-.39,.95,.13,.33,1.38,1.37,1.99,2.53,2.53,.78,.36,1.28,1.28,1.14,2.05-.15,.8-.91,1.29-1.73,1.25-1.65-.09-2.53-1.12-3.13-2.49-.23-.54-.34-1.13-.43-1.43Z"/>
  <path class="cls-1" d="M32.14,54.12c1.84-2.29,2.5-4.97,2.87-7.74,.97,.88,1.94,1.76,2.92,2.66-.67,1.38-4.54,4.82-5.79,5.08Z"/>
  <path class="cls-1" d="M40.89,60.13c1-.38,1.92-.74,2.89-1.11,.09,.34,.19,.7,.25,1.07,.01,.07-.14,.24-.22,.25-.73,.01-1.47,.01-2.2-.02-.22,0-.44-.11-.72-.19Z"/>
  <path class="cls-1" d="M54.53,65c-.16-.02-.33-.03-.49-.08-.49-.14-.97-.17-1.46,.01-.76,.28-1.4-.14-1.3-.84,.01-.09,.14-.23,.2-.22,.98,.14,2.05,0,2.85,.78,.08,.08,.15,.17,.23,.25-.01,.03-.02,.06-.04,.08Z"/>
  <path class="cls-1" d="M43.19,64.78c-.74,.05-1.39,.09-2.02,.13,.14-.53,.84-1.09,1.42-1.03,.14,.01,.3,.2,.39,.35,.1,.16,.14,.36,.21,.55Z"/>
</svg>