<?xml version="1.0" encoding="UTF-8"?>
<svg id="Themed_shapes" data-name="Themed shapes" xmlns="http://www.w3.org/2000/svg" viewBox="0 0 72 72">
  <defs>
    <style>
      .cls-1 {
        fill: #fff;
      }
    </style>
  </defs>
  <path class="cls-1" d="M54.64,50.16c-.4-.21-.57-.3-1-.99-.31-.5-.19-.46-.37-.68-.05-.15-.11-.29-.18-.43,.38,.09,1.01,.42,1.3,.28-.44-.09-.63-.13-1.24-.67-.49-.43-.27-.38-.63-.61,0,0,0,0,0,0,0-.01-.02-.02-.02-.03,.45,0,1.36,.31,1.69,.06-.54-.02-.78-.03-1.61-.54-.67-.41-.4-.4-.88-.59-.04-.02-.06,0-.08,.02-.02-.02-.05-.05-.07-.07,.46-.08,1.35,.01,1.61-.29-.54,.1-.76,.14-1.69-.19-.69-.24-.51-.3-.89-.37,.58-.14,1.57-.18,1.83-.57-.64,.2-.92,.28-2.11,.02-.64-.14-.7-.23-.87-.28,.47-.12,1.11-.23,1.28-.52-.52,.21-.75,.29-1.75,.14-.8-.12-.54-.22-1.07-.2-.03,0-.05,0-.06,.02-.06-.02-.13-.04-.19-.06,.39-.19,.97-.39,1.07-.68-.41,.26-.59,.37-1.48,.41-.64,.03-.53-.07-.84-.02-.15-.03-.29-.05-.44-.07,.36-.21,.8-.45,.87-.72-.38,.31-.55,.43-1.43,.57-.62,.1-.54-.01-.82,.07-1.15,0-2.3,.19-3.38,.57-3.53,1.27-8.15,1.68-10.51-1.41,.33,.03,.71,.07,.92,.08,.45-.03,.61-.13,.72-.01,.16,.18-.26,.31,.35,1.04,.21,.26,.34,.53,.54,.53,.61,0,.42-.42,.65-.76,.41-.57,.77-.81,.77-.81,0,0,.14-.12,.32-.28l-.15,.39s0,.49,.09,.6c.05,.06,.2,.11,.31,.14-.06-.08-.12-.18-.09-.3,0-.02,.01-.04,.02-.06,.03-.12,.07-.23,.27-.29,.24-.08,.38,.02,.52,.14,.06,.06,.11,.1,.16,.14,.03-.05,.04-.11,.04-.19,0-.23-.26-.62-.26-.62l-.04-.68,.65-.09,.36,.04,.21,.07c-.02-.07-.03-.14-.03-.21,0-.04,0-.07,0-.09,0-.12,.04-.29,.25-.32,.24-.04,.42,.02,.48,.16,.03,.06,.05,.14,.07,.22,0,0,0,0,0-.01,.06-.13-.05-.49-.05-.49,0,0-.19-.23-.34-.33-.16-.11-.32-.2-.52-.1-.2,.1-.57,.32-.57,.32l-.38,.19,.56-.6,.12-.34,.29-.33s0,0,.02-.02c-.05,0-.12-.01-.19-.04-.19-.08-.35-.24-.36-.37h0c0-.11-.02-.31,.17-.38-.07,0-.15,0-.21,.01-.19,.03-.37,.07-.44,.29-.07,.22-.19,.63-.19,.63l-.19,.49-.02-.06-.18-.32-.29-.33s-.43-.24-.57-.21c-.14,.03-.37,.32-.37,.32,0,0-.07,.28-.07,.47,0,0,0,0,0,.01,.04-.12,.12-.26,.27-.38,.05-.04,.11-.08,.17-.07,.07,.02,.12,.09,.17,.21,.09,.18,.11,.23,.11,.35,0,.13-.1,.27-.12,.29-.01,.02-.07,.08-.11,.13,.18,.03,.36,.03,.36,.03l.32,.26c-.25,.23-.62,.58-.75,.72-.2,.21-.76,.38-.9,.35,.08-.53-.71-.47-.29-1.06-.15-.31-.34-.57-.62-.67-.49-.18-1.01,.1-1.35,.04-.27-.04-1.2,.31-1.55,.45-.82-2.19-.73-4.93-.02-7.08-.76-.87-2.22-3.23-2.42-4.37-.33,.55-.73,1.27-.98,1.87-.12,.28-.23,.57-.32,.87-.11,.12-.26,.3-.73,.64-1.25,.92-1.63,.97-2.51,1.05,.63,.39,2.16-.3,2.86-.27-.05,.22-.09,.45-.13,.68-.1,.15-.23,.37-.73,.85-1.25,1.21-1.66,1.31-2.63,1.53,.78,.35,2.41-.69,3.18-.72-.02,.25-.02,.49-.03,.74-.06,.17-.14,.41-.52,.99-.94,1.46-1.32,1.66-2.21,2.09,.79,.15,2.04-1.07,2.79-1.39,.02,.25,.05,.5,.08,.75-.02,.15-.06,.36-.27,.87-.55,1.35-.83,1.57-1.5,2.06,.65,0,1.46-1.12,2.03-1.53,.18,.75,.41,1.47,.71,2.16-.29,.15-.72,.26-.97,.61-.17,.25-.18,.58-.13,.93,.7,.26,0,.66,.37,1.07-.09,.11-.67,.29-.96,.22-.19-.04-.71-.12-1.05-.17l.12-.41s.08-.05,.17-.13c-.04-.04-.1-.09-.15-.15-.04-.04-.25-.25-.24-.41,0-.01,0-.03,0-.04,0-.12,0-.29,.18-.37,.17-.07,.32,.01,.42,.1-.11-.17-.33-.36-.33-.36,0,0-.36-.11-.5-.06-.14,.05-.36,.5-.36,.5l-.05,.45,.03,.37,.02,.06-.45-.3s-.34-.28-.52-.42-.36-.07-.54,.01c-.18,.08-.41,.28-.41,.28,0,0-.06,.13-.1,.27,.11-.08,.26-.15,.35-.13,.15,.02,.2,.03,.29,.11,.09,.09,.05,.26,.03,.37v.02s-.03,.09-.05,.12l.31,.08,.3,.22,.82,.19-.43,.06s-.44,.03-.67,.06c-.23,.03-.31,.2-.38,.38-.07,.18-.1,.48-.1,.48,0,0,.12,.36,.25,.44,.02,.01,.04,.02,.07,.02-.03-.08-.04-.19,0-.32,.03-.09,.09-.25,.29-.26,.22-.01,.3,.03,.37,.07,.08,.04,.12,.1,.15,.15l.05-.06,.28-.25,.6-.3,.36,.59s.01,.48,.14,.68c.08,.13,.19,.17,.31,.18-.01-.11-.03-.35,.01-.42,0,0,.01-.02,.02-.03,.06-.1,.15-.26,.3-.27,.14-.01,.34-.03,.48,.18,.04,.06,.06,.11,.08,.16,.04-.06,.07-.11,.07-.16,.02-.15-.27-.56-.27-.56l-.36-.24c.24,.03,.43,.05,.43,.05,0,0,.45-.01,1.12,.24,.39,.14,.48,.62,.99,.26,.17-.12,.12-.42,.15-.76,.09-.96-.34-.83-.31-1.08,.02-.15,.18-.17,.5-.34,.22,.31,.46,.6,.72,.88,3.42,3.56,9.59,3.35,13.82,1.69,2.7-1.02,5.11-1.05,7.21,.98,1.32,1.24,1.26,2.65,.04,3.27-1.24,.62-2.05,.52-3.42,.15-2.37-.65-4.37-1.5-6.68-2.37-.62-.23-1.53-.39-2.22-.49-1.21-.16-2.77-.17-3.83,.49-1.35,.82-2.45,2.7-2.1,4.24,.41,1.98,3.02,3.36,4.93,3.66,.19,.03,.46,.07,.66,.09,1.88,.17,2.84,1.12,2.6,3.02-.04,.31-.11,.63-.2,.95-.18,.14-.38,.26-.57,.32-.4,.14-.9,.26-1.52,1.11,.39-.16,1.27-.46,1.43-.52-.12,.07-.61,.46-1.04,.64-.46,.19-1.22,1.28-1.01,1.03s1.49-.46,1.27-.25-.87,.58-1.26,.76-1.24,1.84-1.04,1.55c.21-.29,1.98-1,1.52-.64-.51,.4-1.97,1.1-2.07,1.64,1.53-.35,1.11,.95,.78,1.65l-.19,.35s.03-.06,.09-.16c-.07,.14-.12,.23-.12,.23l.4-.62c.44-.57,1.18-1.21,1.55,.16,.42-.35,.36-1.96,.47-2.6,.1-.57,.31,1.33,.15,1.65-.16,.32,.91-1.22,.88-1.65-.03-.43,0-1.17,.07-1.47,.08-.3,.5,.93,.38,1.23-.12,.31,.49-.87,.44-1.37-.05-.47,.08-1.08,.08-1.22,.02,.17,.17,1.09,.21,1.5,.46-.94,.33-1.44,.26-1.86-.03-.18-.12-.48-.22-.78,.78-2.18,.74-4.69-1.86-5.66-.53-.2-1.08-.29-1.64-.36-.45-.07-.91-.19-1.32-.38-1.25-.51-2.19-1.81-1.89-3.14,.32-1.46,1.89-2,3.28-1.82,.65,.07,1.24,.3,1.86,.54,2.31,.94,4.54,2.15,6.96,2.88,1.5,.45,3.21,.77,4.8,.39,1.3-.3,2.58-1.14,3.11-2.42,.28-.67,.34-1.37,.25-2.06,.34,.22,.8,.64,1.09,.58Z"/>
  <path class="cls-1" d="M21.41,44.77c.02-.09,0-.15-.05-.2-.06-.06-.1-.06-.25-.04-.11,.01-.2,.06-.26,.16-.21,.51-.23,1.1-.16,1.36,.22-.58,.47-1,.59-1.07s.13-.2,.13-.2Z"/>
  <path class="cls-1" d="M23.85,43.68c-.09,.04-.11,.18-.09,.25,.01,.08,.02,.2,.13,.3,.06,.06,.15,.14,.15,.14,.17,.16,.32,.41,.51,.71,.02-.22-.05-.69-.26-1.11,0,0-.08-.16-.1-.18-.1-.12-.22-.18-.34-.12Z"/>
  <path class="cls-1" d="M24.72,46.88c-.1,0-.16,.09-.19,.17-.08,.17-.05,.37-.04,.37,.02,.28-.07,.66-.3,1.2,.29-.16,.84-.79,.92-1.46,0-.06,0-.09-.05-.17-.08-.1-.2-.13-.34-.11Z"/>
  <path class="cls-1" d="M22.48,46.6s-.04-.05-.09-.09c-.06-.04-.14-.07-.33-.05-.08,0-.14,.07-.17,.17-.07,.22,.04,.35,.04,.35,.46,.46,1.17,.51,1.48,.48-.54-.34-.81-.62-.94-.87Z"/>
  <path class="cls-1" d="M36.74,38.71c-.14,.03-.2,.12-.19,.26,0,0,.03,.14,.29,.25,.1,.04,.2,.06,.2,.06,.26-.07,.61-.07,1.15,.05-.17-.2-.69-.53-1.22-.62,0,0-.11-.02-.23,0Z"/>
  <path class="cls-1" d="M34,41.13c.13-.29,.4-.68,.4-.68,.06-.07,.1-.17,.11-.19,.03-.04,.06-.08,.06-.16,0-.1,0-.12-.09-.3-.02-.04-.03-.08-.07-.09-.02,0-.08,.02-.11,.04-.24,.19-.25,.45-.25,.45-.09,.37-.1,.74-.06,.92Z"/>
  <path class="cls-1" d="M37.32,40.93s-.16,.05-.19,.16c0,.02-.01,.09-.01,.11-.01,.11,.03,.22,.03,.22,.13,.23,.24,.59,.27,1.13,.14-.21,.28-.78,.24-1.31-.02-.08-.06-.17-.12-.23-.06-.07-.13-.09-.22-.07Z"/>
  <path class="cls-1" d="M35.86,42.86c-.14-.13-.22-.17-.4-.12-.16,.05-.2,.19-.21,.21-.02,.21,.14,.3,.14,.3,.55,.33,1.3,.28,1.59,.17-.36-.11-.61-.25-.84-.34-.09-.03-.16-.12-.28-.23Z"/>
  <path class="cls-1" d="M37.19,17.72c-.1,.02-.08,.01-.18,.07-.1,.07-.08,.15-.03,.27,0,.02,.02,.04,.02,.06,.02,.07,.17,.18,.36,.21,.14,.03,.15,0,.18-.01,.26-.16,.66-.3,1.27-.36-.26-.16-.98-.35-1.62-.24Z"/>
  <path class="cls-1" d="M35.04,20.53s0,0,0,0c.01-.03,.05-.12,.06-.14,.02-.05,.03-.05,.01-.13-.03-.09-.04-.12-.18-.27-.03-.03-.11-.13-.15-.12-.02,0-.05,.04-.07,.07-.19,.25-.14,.32-.13,.44,0,0,0,0,0,0,.03,.44,.15,.85,.26,1.03,.04-.36,.11-.64,.19-.87h0s0,0,0,0c0,0,0,0,0,0Z"/>
  <path class="cls-1" d="M38.92,20.21s0,0,0,0c-.03-.07-.03-.06-.09-.13-.06-.08-.15-.2-.33-.12-.18,.07-.17,.32-.18,.4,0,.06-.01,.14,.08,.28,.22,.21,.46,.55,.68,1.11,.08-.28,.07-.97-.17-1.54Z"/>
  <path class="cls-1" d="M37.57,22.69c-.06-.02-.05-.01-.12-.03-.16-.04-.24-.03-.38,.11-.12,.12-.12,.16-.1,.27,0,.02,.03,.08,.04,.1,.11,.18,.16,.16,.16,.16,.71,.16,1.47-.19,1.75-.41-.51,0-.87-.04-1.15-.14-.04,0-.09-.02-.21-.06Z"/>
  <path class="cls-1" d="M21.75,23.38c-.06-.03-.2-.1-.26-.06-.03,.02-.09,.08-.1,.12-.02,.09-.04,.13-.02,.23,.02,.13,.05,.19,.1,.26,.02,.03,.09,.09,.14,.11,.23,.08,.2,.07,.25,.11,.22,.11,.47,.26,.75,.49-.05-.21-.24-.58-.54-.92,0,0,0,0,0-.01-.26-.28-.26-.29-.32-.32Z"/>
  <path class="cls-1" d="M18.57,24.32c.11,0,.2-.05,.3-.13,.04-.03,.2-.25,.13-.42-.08-.19-.19-.27-.41-.23-.12,.02-.12,.04-.23,.1,0,0,0,0,0,0-.53,.37-.91,1.02-.99,1.32,.5-.4,.9-.58,1.2-.65,0,0,0,0,.01,0Z"/>
  <path class="cls-1" d="M19.5,26.63s0-.08-.04-.2c-.03-.1-.14-.18-.3-.18-.12,0-.27,.21-.29,.23-.05,.07,.02,.31,.02,.31,.23,.57,.69,.92,.94,1.06-.22-.52-.32-.9-.32-1.2v-.02Z"/>
  <path class="cls-1" d="M22.25,27.5s.01-.07,.01-.07c0-.05,0-.07-.06-.16-.03-.05-.11-.09-.14-.1-.13-.04-.22,0-.36,.11-.1,.08-.11,.11-.16,.17,0,0-.03,.05-.03,.06-.12,.28-.36,.62-.78,1.02,.35-.04,1.12-.41,1.51-1.03Z"/>
  <path class="cls-1" d="M21.2,26.51s-.06,.54,.06,.77c.03,.07,.08,.12,.13,.16,.04-.07,.12-.21,.24-.3,.15-.12,.39-.2,.56-.14,.05,.02,.13,.06,.16,.12,.04,.08,.09,.19,.09,.29,.1-.09,.26-.24,.29-.35,.04-.16-.22-.66-.22-.66l-.36-.32c.27,.07,.47,.12,.47,.12,0,0,.5,.05,1.22,.43,.42,.22,.44,.76,1.06,.44,.2-.1,.19-.44,.27-.82,.24-1.06-.26-.97-.19-1.25,.05-.18,.26-.15,.74-.36,.17-.1,.45-.27,.72-.44,.13,1.55,.5,3.09,1.06,4.57,.6,1.58,1.43,3.08,2.43,4.42,.73,.98,1.56,1.87,2.47,2.64,2,1.7,4.6,2.8,7.25,2.85,2.67,.08,5.76-.4,7.99-1.99-.03,.24-.07,.52,.03,.64,0-.29,0-.42,.23-.83,.14-.11,.28-.23,.42-.35,.02,.31,0,.72,.16,.86-.06-.36-.09-.51,.13-1.12,0-.01,0-.02,.01-.03,.08-.08,.16-.16,.23-.25,.05,.36,.06,.9,.27,1.06-.1-.4-.14-.57,.06-1.29,.04-.14,.07-.24,.1-.31,.09-.12,.17-.24,.25-.37,.19,.43,.4,1.06,.71,1.17-.28-.46-.39-.66-.4-1.64,0-.03,0-.05,0-.07,.03-.07,.07-.13,.1-.2,.03-.07,.06-.14,.09-.21,.33,.47,.69,1.07,1.07,1.13-.43-.47-.62-.69-.86-1.7,.05-.16,.1-.33,.14-.5,.37,.44,.79,1,1.17,1.02-.48-.44-.69-.64-1.04-1.7,.03-.2,.05-.4,.06-.61,.43,.38,.94,.89,1.32,.86-.56-.37-.79-.54-1.32-1.61,0-.12-.01-.24-.03-.35,.37,.32,.77,.63,1.08,.6-.5-.31-.74-.48-1.17-1.22-.05-.25-.1-.49-.18-.74-.02-.07-.05-.15-.07-.22,.54,.16,1.16,.36,1.47,.18-.61-.09-.91-.14-1.69-.73-.07-.16-.15-.31-.23-.46,.55,.05,1.17,.11,1.43-.13-.6,.04-.89,.05-1.71-.33-.11-.17-.23-.34-.36-.51,.48-.02,1.16,.04,1.4-.22-.53,.08-.76,.11-1.67-.24-.07-.03-.14-.05-.19-.08-.06-.06-.12-.13-.19-.19,.25,.06,.49,.09,.63,0-.4-.04-.57-.06-1.15-.47-.1-.09-.21-.17-.32-.26-.12-.12-.1-.14-.34-.26,0,0-.02,0-.03,0-1.2-.83-2.59-1.41-3.96-1.75-1.32-.35-2.22-.5-3.55-.5-.02,.02-.23,.16-.26,.19-.28,.22-1.39,.91-2.37,.67,0,0-.66,.09-.8,0-.1-.06-.32-.29-.34-.44-.04,0,0,0-.09,.02-.07,.18-.07,.41-.17,.73-.14,.45,.02,1.05-.65,1.25-.22,.07-.7-.17-1.02-.38-.65-.42-.73-.68-.83-.8-.46,.2-.94,.42-1.37,.67,.16,1.44,.67,2.87,1.35,4.1,.88-.7,1.88-1.27,2.97-1.63,2.98-1.08,7.03-.57,9.28,1.69,.58,.63,1.04,1.15,1.05,1.95,.01,.75-.29,1.3-.79,1.84-1.37,1.45-3.68,1.48-5.63,1.43-3.27-.02-5.6-1.87-7.1-4.69-.05-.09-.09-.18-.14-.27-.63-1.27-1.13-2.7-1.35-4.15-.05-.34-.09-.69-.11-1.03,.42-.09,.95-.21,1.24-.28,.48-.19,.62-.36,.78-.27,.24,.14-.17,.43,.74,1.02,.33,.21,.56,.46,.77,.39,.67-.21,.31-.61,.45-1.06,.24-.77,.56-1.16,.56-1.16,0,0,.11-.18,.25-.42l-.03,.48s.16,.54,.31,.63c.09,.05,.28,.05,.42,.04-.07-.05-.14-.12-.15-.19,0-.02,0-.04-.01-.06-.02-.12-.05-.23,.11-.39,.19-.19,.37-.17,.53-.13,.07,.02,.13,.04,.2,.06,.04,.01,.08,.02,.12,.03,.02-.07,.02-.15-.01-.25-.09-.25-.5-.59-.5-.59l-.28-.73,.68-.33,.41-.08h.3c-.08-.12-.18-.3-.16-.4,.02-.12,.08-.41,.3-.5,.25-.1,.42,.07,.48,.15,.04,.05,.07,.11,.09,.18,0-.17-.22-.51-.22-.51,0,0-.28-.18-.49-.24-.21-.06-.42-.11-.6,.07-.19,.19-.52,.55-.52,.55l-.35,.34,.4-.86,.02-.42,.2-.47s.02-.03,.04-.08c-.05,.01-.11,.02-.17,.02-.03,0-.06,0-.09,0-.21-.04-.4-.16-.43-.28,0-.02-.01-.03-.02-.05-.04-.1-.11-.28,.07-.39,0,0,0,0,.01,0-.1,.03-.22,.07-.32,.12-.2,.1-.38,.21-.38,.47,0,.26,.01,.75,.01,.75l-.04,.6-.04-.06-.31-.29-.43-.27s-.55-.11-.7-.02c-.14,.09-.29,.48-.29,.48,0,0,.02,.34,.09,.54,.02,.04,.03,.09,.05,.13,.01-.13,.05-.28,.17-.44,.04-.05,.08-.11,.15-.11,.07,0,.14,.06,.23,.15,.13,.15,.16,.19,.2,.31,.04,.13-.03,.29-.03,.31,0,.01-.02,.05-.04,.09,.21-.03,.42-.09,.42-.09l.44,.17c-.19,.34-.48,.85-.57,1.05-.14,.3-.7,.69-.86,.7-.1-.61-.94-.26-.69-1.06-.28-.28-.57-.5-.91-.52-.43-.02-.77-.13-1.07-.17,.35-.81,.86-1.54,1.53-2.16,.93-.85,1.99-1.52,3.2-1.81,.24-.06,.49-.1,.73-.13-1.32,1.08-1.33,1-2.31,1.1,.75,.45,2.36-.43,3.2-.49,.33,.55,.72,1.14,2.03,1.42-1.17,.6-1.24,.53-2.14,.44,.76,.7,3.06-.19,3.59,.28,.18,.16,.41,.31,.65,.44-.03,.02-.05,.04-.07,.07-.26,.42-2.34,.19-2.71,.81,.74-.24,.7-.29,2.15,.01,1.01,.21,.98-.17,1.31-.32,.12,.14,.27,.29,.42,.45-.58-.02-1.28-.08-1.51,.2,.64-.1,.62-.15,1.78,.3,.16,.06,.29,.1,.4,.12,.07,.06,.13,.12,.2,.17-.46-.01-.9,0-1.08,.22,.6-.09,.62-.14,1.57,.22,.02,.02,.03,.03,.04,.04,.03,.04,.25,.19,.55,.43-.73,.18-.8,.11-1.37-.08,.3,.44,1.3,.43,1.94,.54,.37,.31,.76,.67,1.06,1.04,.35,.42,.47,1.01,.62,1.08,.48,.23,1.34,.24,1.48,.06,.05-.06,.23-.25,.45-.41-.08-.07-.16-.12-.25-.13-.06,0-.26,.04-.34,.04-.37,.05-.9,.13-1.14-.27,0,0-.05-.07-.05-.07l-.44-.61c-.33-.48-.7-.95-.85-1.53-.09-.66-.38-1.31-.9-1.75-.37-.34-.93-.47-1.2-.92-.29-.4-.6-.75-1.01-1.03-.21-.15-.5-.25-.69-.43-.35-.32-.44-.8-.52-1.24,0-.04-.07-.25-.08-.26,0-.02-.03-.22-.02-.27,0-.04,.31,.08,.43,.16,.42,.35,.91,.58,1.42,.77,.51,.19,1.1,.34,1.61,.57,.51,.22,.91,.54,1.33,.91,.09,.08,.26,.18,.35,.24,.23,.17,.38,.08,.64,.09,.43,0,.87,.2,1.23,.45,.45,.29,.87,.68,1.38,.82,.38,.1,.78,.21,1.16,.17,.61-.1,1.22-.27,1.85-.31,.16-.02,.34,0,.48,.08,.16,.08,.31,.16,.46,.26,.16-.26,.34-.93-.41-1.93-.28-.36-2.41-1.39-2.56-1.48-.15-.08-2.31-1.47-2.12-1.95,.39-.97-.39-2.07-.39-2.07-.26-.29-.58-.41-.9-.43,.11-.28,.16-.67,.12-1.18-.46-2.6-1.3-2.02-1.82-2.48-.69-.62,.18-1.07-1.15-1.82-1.52-.85-1.44-.88-1.9-1.76-.17,1.01,1.82,2.47,1.72,3.16-.09,.58,.03,1.35,.21,1.9-.15-.08-.28-.17-.41-.29-1.11-1.17,.45-1.84-1.74-3.31-2.52-1.69-2.39-1.72-3.05-3.33-.44,1.74,2.83,4.54,2.55,5.73-.11,.46-.14,.99-.13,1.52-.27-.38-.64-1.01-1.28-2.1-1.44-2.43-6.59-1.48-4.24-1.36,1.87,.09,2.68,2.24,3.03,3.73-.38-.24-.71-.42-1.01-.55-.05-.17-.12-.36-.21-.56-1.35-2.27-1.93-1.43-2.58-1.68-.86-.33-.22-1.07-1.72-1.29-1.72-.26-1.66-.31-2.4-.98,.2,1.01,2.58,1.66,2.73,2.35,.15,.69,.67,1.53,1.09,1.94,.13,.13,.23,.27,.31,.42-.11,.03-.23,.05-.35,.05-1.61,0-1.02-1.6-3.6-1.02-2.96,.66-2.89,.54-4.51-.08,.96,1.51,5.24,1.08,5.91,2.11,.14,.21,.3,.42,.49,.62-.43,.17-.85,.37-1.25,.59-1.29-.62-2.63-1.19-3.55-.81,1.37,.35,1.76,.37,2.74,1.3-.25,.16-.5,.34-.73,.52-.62,.02-.36,.18-1.6,.39-1.71,.29-2.11,.15-3.04-.21,.36,.57,1.65,.73,2.5,.97-.17,.1-.34,.24-1.07,.49-1.64,.57-2.06,.49-3.03,.28,.58,.67,2.63,.37,3.27,.71-.14,.11-.34,.27-.94,.56-1.57,.75-1.99,.72-2.98,.63,.48,.44,1.69,.27,2.57,.25-.12,.12-.31,.28-.61,.51-1.39,1.04-1.81,1.1-2.8,1.19,.73,.44,2.46-.38,3.23-.33-.12,.14-.27,.33-.84,.77-1.39,1.05-1.81,1.1-2.8,1.2,.76,.46,2.63-.47,3.34-.33-.02,.11-.04,.23-.06,.34-.6,.01-1.6,.06-1.81,.22-.31,.23-.81,.96-1.22,1.4-.23,.25-.29,.62-.28,1.01,.74,.39-.1,.73,.26,1.24-.12,.11-.79,.22-1.1,.11-.2-.07-.77-.24-1.14-.34l.2-.43s.15-.06,.32-.19c-.05-.04-.11-.07-.27-.13-.07-.03-.15-.16-.19-.21-.07-.11-.11-.17-.12-.32,0-.1,0-.16,.02-.23,.03-.09,.1-.15,.16-.18,.09-.06,.26-.03,.38,.02,.08,.04,.16,.14,.31,.29-.02-.04-.01-.05-.03-.09-.09-.2-.32-.45-.32-.45,0,0-.39-.18-.55-.14-.16,.04-.48,.51-.48,.51l-.12,.49-.02,.42,.02,.07-.45-.4s-.33-.36-.52-.54c-.19-.18-.39-.13-.61-.07-.11,.04-.25,.11-.35,.16,.05-.01,.09-.03,.14-.03,.31-.05,.39,.15,.46,.32,.09,.21-.06,.54-.13,.59-.06,.05-.14,.07-.23,.09l.42,.17,.31,.28,.89,.33h-.49s-.49-.03-.75-.03c-.26,0-.37,.18-.48,.37-.11,.19-.18,.52-.18,.52,0,0,.08,.42,.21,.53,0,0,0,0,.01,.01-.03-.1-.03-.24,.03-.33,.02-.02,.03-.05,.05-.06,.13-.11,.2-.15,.38-.15,.21,0,.34,.05,.38,.19,.02,.06,.05,.13,.06,.2l.19-.18,.35-.23,.71-.24,.31,.71Zm29.25-7.4c.45,.03,.62-.14,.94,.02,.32,.16,.19,.35,.11,.5-.08,.15-.3,.07-.62-.09-.32-.16-.61-.45-.44-.43Zm-6.87-5.16c.35,0,1.9,.6,1.91,.76,0,.16-.67,.39-.67,.39,0,0-1.6-1.16-1.25-1.15Z"/>
  <path class="cls-1" d="M53.8,20.68c.14-.04,.27-.09,.38-.13-.13-.12-.28-.21-.44-.23-.67,0-1.34,.19-2,.27-.44,.04-.86-.1-1.27-.21-.14-.04-.28-.1-.41-.17-.48-.27-.88-.67-1.36-.93-.23-.11-.5-.17-.76-.19-.27-.01-.61,.1-.85-.1-.11-.07-.22-.19-.32-.28-.4-.37-.86-.67-1.35-.9-.5-.23-1.03-.37-1.55-.57-.52-.2-1.01-.48-1.43-.85,0,0-.05-.03-.09-.05s-.02,.01-.02,.02c0,0,0,0,.01,.04,.04,.08,.04,.13,.07,.2l.04,.18c.08,.35,.2,.73,.48,.97,.18,.17,.45,.22,.65,.37,.43,.28,.77,.69,1.07,1.1,.28,.43,.82,.53,1.2,.87,.42,.33,.7,.8,.85,1.3,.06,.18,.1,.37,.13,.56,.16,.52,.53,.96,.84,1.4,.07,.09,.51,.66,.56,.74,.1,.09,.24,.08,.39,.07,.17,0,.37-.05,.54-.08,.07,0,.12-.03,.22-.03,.27,0,.45,.14,.62,.3,.11-.06,.17-.11,.19-.19,.46-.36,1.35-1.12,1.35-1.56-.36,.42-1.23,.8-1.5,.91-.01-.03-.02-.05-.04-.08,.31-.24,.93-.76,.92-1.06-.29,.33-1.07,.64-1.07,.64h0s-.05,.02-.05,.02c-.01-.02-.02-.04-.03-.07,.2-.21,.43-.49,.42-.68-.12,.18-.39,.34-.56,.43-.02-.04-.04-.08-.06-.12,.2-.19,.6-.6,.59-.86-.19,.27-.7,.5-.7,.5h0s-.08,.03-.08,.03c-.04-.06-.07-.13-.11-.19,.19-.2,.39-.46,.38-.64-.12,.17-.35,.32-.52,.41-.03-.05-.06-.1-.09-.16,.27-.15,.49-.32,.55-.49-.03,.01-.05,.03-.08,.04-.03-.27,.07-.63,.14-.84,.14,.07,.26,.13,.37,.18,0,.35,.04,.76,.2,.92-.03-.24,.04-.55,.12-.77,.14,.05,.27,.09,.41,.11-.07,.4-.21,.92-.44,1.25,.37-.12,.76-.69,1.04-1.22,0,0,0,0,0,0-.08,.31-.19,.64-.36,.87,.3-.09,.6-.48,.86-.91,.27-.02,.57-.05,.9-.04-.08,.31-.19,.63-.36,.86,.24-.08,.48-.34,.7-.66-.08,.34-.2,.71-.38,.96,.38-.12,.78-.72,1.07-1.27Zm-4.9,.75c-.17-.28-.32-.54-.44-.75-.17-.3-.46-.74-.77-1.19,.42,.2,.84,.39,1.21,.56,.01,.31,.06,.65,.2,.79-.03-.2,.02-.45,.08-.66,.05,.02,.1,.05,.14,.07,0,.36,.03,.82,.19,1.01-.18,.08-.39,.14-.62,.18Z"/>
</svg>