<?xml version="1.0" encoding="UTF-8"?>
<svg id="TEXT" xmlns="http://www.w3.org/2000/svg" viewBox="0 0 72 72">
  <defs>
    <style>
      .cls-1 {
        fill: #fff;
      }
    </style>
  </defs>
  <path class="cls-1" d="M65.26,37.29c-2.64-1.27-5.25-1.89-7.04-2.86-1.79-.97-11.51-7.78-12.38-8.45-.26-.2-.81-.59-1.49-1.05-1.11-1.01-2.85-2.93-3.92-3.61-1.39-.88-5.25-3.44-6.44-4.04-1.19-.6-4.12-3.85-5.53-6.02,.1,1.86,4.59,6.74,7.6,10.08-.29-.04-.59-.06-.87-.07-1.4-1.54-3.11-3.55-4.34-4.43-1.96-1.41-7.91-5.48-9.63-6.5s-6.42-3.13-4.31-1.88,7.88,7.99,10.85,10.42c1.18,.97,2.14,2.26,2.85,3.47-1.27,.62-2.46,1.46-3.54,2.4-1.87-2.2-4.46-5.1-5.61-5.68-1.9-.95-8.98-2.7-11.39-5.18-2.41-2.48-4.96-4.67-4.96-4.67,0,0,2.19,4.82,4.01,6.28,1.82,1.46,7.59,4.16,10.07,6.28,1.92,1.64,3.8,4.98,4.55,6.41-.38,.46-.73,.9-1.04,1.31,0,0-.01,0-.02,0-.45,.4-2.84,1.07-3.76,1.67s-3.53,2.25-4.24,2.82c-.71,.57-3.37,1.41-4.97,1.63,1.36,.7,8.25-1.98,10-2.32,.2-.04,.39-.06,.58-.06-.19,.57-.38,1.29-.52,2.09-1.16,1.38-3.12,3.68-3.68,4.51-.67,.99-3.69,3.08-5.62,3.97,1.44,.26,5.87-2.87,8.98-5.01,0,.45,.01,.89,.05,1.33-.59,1.52-1.96,4.92-2.27,6-.32,1.15-2.52,4.09-4.07,5.56,1.51-.22,4.96-5.01,7.23-8.02,.08,.15,.16,.3,.26,.45-.01,.09-.02,.17-.03,.25-.11,1.44-.5,5.48-.48,6.68,.02,1.19-1.24,4.65-2.3,6.49,1.55-.73,3.79-7.63,5.07-10.94,.54,.58,1.05,1.14,1.54,1.7-.24,.82-.6,1.89-.64,2.52-.07,.96-.33,3.66-.32,4.45,.01,.8-.83,3.1-1.53,4.32,1.21-.57,3.05-6.79,3.76-8.18,.18-.35,.39-.62,.63-.83,.59,.75,1.13,1.48,1.62,2.18-.04,.16-.06,.31-.07,.44-.06,.76-.26,2.9-.25,3.54s-.66,2.46-1.22,3.44c.82-.38,1.99-3.98,2.67-5.75,.5,.78,.95,1.52,1.33,2.21-.15,.51-.34,1.1-.37,1.47-.05,.64-.22,2.42-.21,2.95,0,.53-.55,2.05-1.02,2.87,.8-.38,2.02-4.5,2.49-5.42,.02-.03,.03-.05,.05-.08,1.25,2.55,1.6,4.06,1.6,4.06,0,0,19.98,1.91,20.83,.27l.07,.08s.49-1.33,.33-1.76c-.17-.43-.36-.73-.58-1.04-.22-.31-.22-.52-.86-.89-.14-.08-.28-.14-.41-.19,.03-.22,.02-.42-.05-.52-.21-.3-.42-.5-.68-.7-.22-.18-.26-.33-.73-.47,.04-.31,.04-.64-.06-.77-.23-.29-.46-.47-.73-.65s-.29-.35-.98-.45c-.04,0-.07,0-.11-.01,0-.17-.02-.32-.09-.4-.23-.29-.46-.47-.73-.65s-.29-.35-.98-.45c-.11-.02-.23-.03-.33-.03,0-.18-.02-.35-.09-.43-.23-.29-.46-.47-.73-.65s-.29-.35-.98-.45c-.07-.01-.14-.02-.21-.02-.01-.1-.04-.19-.08-.24-.23-.29-.46-.47-.73-.65-.26-.18-.29-.34-.96-.45-.81-.75-1.54-1.49-2.16-2.23l1.53,1.28s.04-.03,.11-.08c.38,.31,.91,.79,1.22,.96,.45,.24,1.8,.93,2.18,1.09,.38,.16,1.35,.43,.89,.23-.46-.2-2.05-1.61-2.67-2.32-.19-.22-.32-.46-.41-.69,.38-.19,.83-.38,1.35-.55,.09,.22,.18,.44,.26,.56,.21,.32,.84,1.25,1.03,1.49,.19,.24,.73,.76,.5,.47s-.76-1.78-.91-2.47c-.02-.1-.03-.19-.04-.29,.77-.18,1.64-.3,2.62-.28,.08,.47,.14,1.34,.27,1.73,.16,.49,.69,1.91,.86,2.28s.7,1.23,.5,.77c-.21-.46-.41-2.58-.38-3.52,.02-.46,.16-.84,.35-1.14,.29,.04,.6,.1,.9,.17,4.28,.96,3.77,1.48,5.53,2.24-.32,.41-.69,.82-.87,.94-.29,.18,.36-.13,.6-.28,.13-.08,.42-.28,.7-.49,.32,.12,.72,.25,1.2,.39-.44,.58-.98,1.19-1.23,1.34-.38,.24,.47-.17,.78-.37,.2-.13,.73-.5,1.17-.82,.17,.02,.34,.03,.52,.03-.87,.88-2.26,2.06-2.78,2.28-.64,.27,.76-.14,1.28-.35,.52-.22,2.36-1.12,2.96-1.44,.46-.24,1.18-.91,1.66-1.28,1.12-.57,1.81-1.28,1.44-1.5-.2-.12-.69-.33-1.34-.58,.03-.26,.06-.5,.07-.61,.02-.28,.11-.97-.04-.66-.1,.2-.5,.59-.85,.97-.27-.1-.54-.2-.83-.3,.04-.31,.08-.62,.08-.75,.02-.28,.11-.97-.04-.66-.11,.22-.6,.69-.97,1.1-.26-.09-.51-.17-.76-.25,.05-.38,.1-.8,.11-.97,.02-.28,.11-.97-.04-.66-.13,.26-.76,.84-1.13,1.3-.19-.06-.38-.11-.55-.16-.06-.3-.14-.66-.18-.4-.01,.08-.05,.19-.11,.31-.27-.08-.52-.14-.73-.19,0-.01,0-.03,0-.04-.06-.28-.17-.96-.23-.62-.02,.12-.11,.33-.23,.56-.2-.04-.45-.09-.73-.15-.06-.28-.17-.94-.23-.61-.02,.11-.1,.3-.21,.52-.16-.03-.34-.07-.52-.11-.07-.3-.16-.86-.21-.55-.02,.1-.09,.27-.18,.46-.2-.04-.41-.09-.62-.14-.02-.1-.04-.19-.05-.24-.04-.19-.11-.57-.16-.68,.1,.03,.21,.06,.31,.09,.06,.31,.1,.58,.09,.72-.04,.34,.25-.29,.39-.54,0-.02,.02-.04,.03-.06,.22,.04,.45,.07,.68,.09,.03,.2,.06,.37,.04,.47-.03,.3,.2-.17,.34-.45,.19,0,.38,0,.57,0,.05,.27,.09,.51,.07,.64-.04,.34,.25-.29,.39-.54,.02-.03,.03-.07,.06-.11,.19,0,.38-.01,.58-.02,.07,.37,.14,.71,.12,.87-.04,.34,.25-.29,.39-.54,.04-.07,.11-.21,.19-.37,.15,0,.3-.02,.44-.03,.07,.38,.14,.73,.12,.9-.04,.34,.25-.29,.39-.54,.04-.08,.12-.23,.2-.4,.48-.03,.95-.05,1.4-.06-.05,.49-.09,1-.17,1.19-.13,.31,.33-.21,.53-.4,.13-.12,.44-.47,.71-.77,.31,.02,.6,.05,.87,.09-.05,.46-.09,.92-.16,1.1-.13,.31,.33-.21,.53-.4,.09-.08,.26-.27,.45-.48,.25,.1,.48,.24,.66,.41,.05,.05,.11,.09,.16,.13-.05,.45-.09,.91-.16,1.09-.13,.31,.33-.21,.53-.4,.11-.1,.35-.37,.58-.63,1.16-.53,2.21-2.92,1.99-3.88-.63-2.76,1.7-3.31-1.4-4.8Zm-18.78,5.32s0,.02,0,.03c-.03,.19-.23,.57-.43,.97,0,0-.02-.01-.03-.02-.09-.06-.24-.14-.44-.23-.02-.13-.04-.23-.06-.3-.03-.13-.07-.34-.11-.5,.12,0,.23,0,.35,0,.03,.33,.05,.62,.02,.77-.07,.33,.28-.26,.44-.5,.03-.05,.09-.13,.15-.23,.04,0,.08,0,.12,.01Zm-3.24-11.7c-.65-.38-1.82-.22-1.5-.77s2.55-.52,3.2-.14c.15,.09,.36,.22,.58,.38-.12,.14-.25,.3-.38,.48-.21,.29-.38,.57-.48,.77-.61-.28-1.18-.58-1.43-.73Zm1.64,11.67c.13,0,.25-.02,.37-.02-.05,.14-.13,.32-.23,.53-.29-.14-.63-.3-.99-.47,.3,0,.59-.02,.85-.04Zm2.06-10.43c-.18,.31-1.12,0-2.03-.4,.16-.16,.35-.39,.54-.66,.13-.18,.24-.36,.34-.51,.67,.52,1.37,1.19,1.15,1.57Zm6.35,12.87c-.02,.15-.16,.42-.31,.73-.2-.05-.41-.09-.61-.14-.01-.07-.02-.12-.03-.16-.06-.28-.17-.96-.23-.62-.02,.14-.14,.38-.27,.66-.25-.06-.49-.12-.74-.18-.02-.13-.05-.24-.06-.31-.06-.28-.17-.96-.23-.62-.03,.16-.17,.45-.33,.77-.14-.04-.27-.07-.41-.11-.04-.25-.08-.47-.11-.58-.06-.28-.17-.96-.23-.62-.03,.19-.24,.58-.43,.98-.15-.04-.29-.09-.44-.13-.03-.19-.06-.35-.08-.43-.06-.28-.17-.96-.23-.62-.03,.17-.19,.49-.37,.84-.1-.03-.2-.06-.29-.1-.04-.25-.08-.47-.11-.57-.06-.28-.17-.96-.23-.62-.03,.18-.22,.55-.41,.93-.1-.04-.21-.08-.3-.12-.05-.31-.11-.59-.14-.72-.04-.17-.1-.5-.15-.64,.1,.01,.2,.03,.3,.04,.04,.41,.08,.81,.04,.98-.07,.33,.28-.26,.44-.5,.05-.07,.13-.2,.22-.35,.15,.04,.31,.07,.46,.11,.03,.34,.05,.65,.02,.8-.07,.33,.28-.26,.44-.5,.02-.03,.05-.08,.09-.14,.14,.04,.27,.09,.41,.14,.04,.52,.11,1.08,.07,1.3-.07,.33,.28-.26,.44-.5,.06-.09,.18-.28,.31-.49,.1,.04,.21,.09,.31,.13,.04,.48,.1,.97,.06,1.18-.07,.33,.28-.26,.44-.5,.05-.07,.13-.21,.23-.37,.15,.07,.3,.13,.45,.2,.03,.32,.05,.6,.02,.74-.07,.33,.28-.26,.44-.5,0-.01,.02-.02,.02-.04,.25,.11,.5,.21,.74,.3,.07,.38,.14,.73,.13,.9-.04,.34,.25-.29,.39-.54,.02-.04,.05-.09,.08-.15,.08,.03,.15,.05,.23,.07,0,.01-.01,.04-.02,.07Z"/>
</svg>