<?xml version="1.0" encoding="UTF-8"?>
<svg id="Themed_shapes" data-name="Themed shapes" xmlns="http://www.w3.org/2000/svg" viewBox="0 0 72 72">
  <defs>
    <style>
      .cls-1 {
        fill: #fff;
      }
    </style>
  </defs>
  <path class="cls-1" d="M47.11,32.44c.45,.45,.95,.87,1.34,1.37,.59,.77,1.14,1.57,1.65,2.4,.53,.85,.76,1.79,.83,2.82,.09,1.23,.31,2.47,.68,3.64,.71,2.28,1.5,4.53,2.35,6.76,.78,2.05,2.06,3.8,3.57,5.39,.25,.27,.47,.56,.81,.97-1.89,.35-3.07-.71-4.54-1.59,.66,2.16,1.27,4.14,1.92,6.28-.88-.71-1.76-1.28-2.45-2.02-2.38-2.54-4.2-5.42-5.17-8.8-.52-1.81-1.04-3.62-2.41-5.01-.44-.45-.97-.81-1.45-1.21-.05,.06-.11,.13-.16,.19,.18,.19,.35,.37,.53,.56,1.08,1.17,1.8,2.5,2.18,4.07,.65,2.61,1.39,5.21,2.74,7.55,.5,.87,1.25,1.6,1.87,2.4,.18,.23,.33,.48,.56,.81-1.3,.12-2.45-.05-3.57-.49-2.1-.83-3.49-2.26-4.13-4.51-.39-1.37-1.14-2.64-1.74-3.95-.07-.15-.21-.26-.41-.34,.24,.67,.46,1.36,.74,2.02,.69,1.63,1.22,3.27,1.4,5.06,.21,2.05,.68,4.08,1.05,6.12,.1,.55-.02,.64-.63,.58-1.86-.19-3.07-1.3-4.33-2.54-1.69-1.65-1.85-3.69-1.93-5.8-.09-2.28-.12-4.56-.22-6.83-.03-.74-.18-1.48-.3-2.22-.21-1.32,.18-2.36,1.34-3.07,.79-.49,1.59-.94,2.36-1.46,.86-.58,1.39-1.43,1.84-2.37,.77-1.6,1.67-3.14,2.53-4.71,.35-.65,.72-1.29,1.16-2.07Z"/>
  <path class="cls-1" d="M57.79,29.11c-.3-.24-.65-.44-.88-.73-1.39-1.75-3.15-2.99-5.23-3.73-.8-.28-1.73-.22-2.6-.31-.02,.07-.05,.14-.07,.21,.19,.11,.38,.22,.58,.32,.8,.36,1.63,.67,2.4,1.09,2.01,1.11,3.05,2.99,3.96,5,1.39,3.07,1.75,6.29,1.48,9.61-.07,.9-.42,1.8-.36,2.68,.11,1.64,.39,3.26,.68,4.88,.18,1.02,.48,2.02,.76,3.02,.22,.77,.49,1.52,.79,2.46-.4-.25-.85-.38-1.08-.69-2.53-3.44-5.07-6.91-6.13-11.15-.33-1.32-.51-2.72-.49-4.08,.06-3.07-1.51-5.1-3.92-6.65-.45-.29-.71-.54-.75-1.12-.05-.78-.24-1.56-.42-2.33-.17-.71,0-1.28,.54-1.77,.19-.18,.37-.4,.47-.64,.66-1.61,1.23-3.26,1.26-5.02,0-.46-.16-.93-.24-1.4-.11-.05-.22-.1-.33-.15-.16,.24-.29,.49-.47,.71-.64,.76-1.28,1.52-1.95,2.25-.22,.24-.53,.43-.82,.59-1.89,.98-2.27,.77-3.29-.65-.38-.53-.71-1.1-1.08-1.64-1.25-1.82,.01-3.29,1.92-3.35,2.19-.07,4.37,.28,6.31,1.31,2.38,1.26,4.46,2.95,5.94,5.28,.6,.95,1.34,1.83,1.9,2.8,.54,.95,.93,1.98,1.39,2.97-.1,.08-.19,.16-.29,.24Z"/>
  <path class="cls-1" d="M50.17,13.83c-1.01-.72-1.81-1.37-2.68-1.91-1.54-.95-3.31-1.34-5.06-1.6-1.53-.22-3.1-.25-4.64-.2-4.62,.16-7.72,2.59-9.68,6.67-.15,.32-.52,.56-.82,.78-.45,.33-.95,.6-1.41,.93-.43,.31-.67,.13-.81-.29-.09-.25-.11-.53-.18-.79-.24-.84-.39-1.73-.76-2.51-.51-1.08-.24-2.01,.4-2.84,1.17-1.52,2.38-3,3.65-4.45,1.83-2.09,4.22-2.68,6.88-2.34,3.41,.44,6.6,1.64,9.76,2.92,1.47,.6,2.55,1.77,3.57,2.96,.54,.63,1.02,1.32,1.51,2,.11,.15,.16,.35,.29,.65Z"/>
  <path class="cls-1" d="M52.73,19.62c-.23-.1-.48-.17-.68-.3-.2-.14-.34-.36-.52-.53-2.68-2.5-5.86-3.54-9.48-3.05-.88,.12-1.72,.64-2.56,1.02-.33,.15-.57,.22-.92,.01-1.13-.65-2.35-.62-3.42,.04-1.34,.82-2.57,1.82-3.85,2.74-.18,.13-.35,.27-.57,.44-.44-1.6-.6-3.07,.42-4.51,1.24-1.75,2.81-3.12,4.73-3.95,1.92-.83,4.02-.72,6.08-.4,.62,.1,1.23,.29,1.86,.37,2.65,.38,4.6,1.89,6.21,3.89,1.03,1.28,1.95,2.64,2.91,3.96-.07,.09-.13,.17-.2,.26Z"/>
  <path class="cls-1" d="M41.37,66.79c-.72-.22-1.47-.38-2.17-.68-3.44-1.45-6.06-3.79-7.57-7.25-.62-1.43-.51-2.73,.51-4.04,1.49-1.93,2.78-4,3.63-6.31,.08-.21,.19-.39,.39-.78,.21,.57,.38,.97,.5,1.39,.68,2.16,.66,4.4,.72,6.63,.05,1.58,.21,3.15,.26,4.73,.09,2.39,1.39,4.03,3.19,5.4,.26,.2,.48,.46,.71,.69-.06,.07-.12,.15-.18,.22Z"/>
  <path class="cls-1" d="M26.56,54.39c-.45,1.8-.31,3.29,.93,4.57-.89-.32-1.54-.95-2.05-1.7-.51-.75-.93-1.57-1.39-2.35-.57,1.27,.11,2.36,.83,3.62-1.65-.71-2.07-2.09-2.62-3.39-.32,.47-.35,.86,0,1.57,.24,.5,.56,.95,.85,1.42-.05,.05-.1,.1-.15,.16-.4-.36-.85-.67-1.18-1.08-.33-.41-.54-.91-.81-1.36-.08,.03-.16,.06-.24,.09,.28,.76,.56,1.53,.84,2.29l-.08,.09c-.34-.3-.73-.56-1.01-.91-1.41-1.83-1.41-4.19,.05-6.06,.27-.35,.63-.64,.98-.93,.54-.45,1.3-.54,1.89-.14,1.52,1.02,3.09,1.95,4.85,2.51,.55,.17,.85,.6,1.04,1.16,.26,.77,.61,1.5,.92,2.25,.14,.34,.27,.69,.35,1.06-1.08-.67-1.5-1.82-2.14-2.9-.61,.97,.19,1.81,.12,2.76-.99-.63-1.24-1.73-1.97-2.72Z"/>
  <path class="cls-1" d="M33.03,49.87c-.64,1.23-2.55,2.06-3.72,1.66-2.08-.71-4.1-1.55-5.78-3.03-.12-.1-.25-.19-.38-.28-.96-.68-.97-.68-1.68,.28-.4,.54-.72,1.13-1.14,1.64-.12,.14-.5,.21-.67,.13-.26-.13-.43-.42-.68-.68,.63-.51,1.18-.96,1.75-1.41,.56-.44,.81-1.01,.78-1.71-.01-.41,0-.81,0-1.22,0-.68,.17-1.42-.82-1.64-.2-.04-.32-.37-.51-.53-.38-.33-.76-.68-1.18-.96-.52-.36-1.05-.68-1.24-1.46,.42-.02,.77-.05,1.11-.05,2.46,.01,4.93,.03,7.39,.06,.26,0,.55,.06,.76,.2,.18,.12,.38,.4,.37,.59-.01,.16-.3,.34-.51,.43-1.23,.6-2.49,1.17-3.71,1.79-.19,.1-.38,.41-.37,.62,.02,.96,.1,1.92,.16,2.88,1.15,.75,2.21,1.76,3.46,2.18,1.12,.37,2.45,.07,3.7,.07,.72,0,1.44,0,2.15,.07,.26,.02,.51,.23,.76,.36Z"/>
  <path class="cls-1" d="M16.93,40.62c.02,2.04-.3,3.94,.23,5.81,.28,.96,.73,1.88,1.12,2.81,.31,.75,.78,1.46,.92,2.23,.11,.61-.09,1.32-.3,1.94-.18,.52-.55,.51-.91,.06-1.14-1.42-2.33-2.81-3.39-4.29-.61-.85-1.1-1.82-1.48-2.8-.49-1.23,.09-2.38,.85-3.25,.84-.97,1.96-1.69,2.96-2.52Z"/>
  <path class="cls-1" d="M12.68,42.96c.4-1.04,.73-2.04,1.16-3,.35-.78,.84-1.49,1.22-2.26,.51-1.03,1.01-2.06,1.42-3.12,.14-.36-.02-.84-.07-1.26-.1-.87-.31-1.73-.32-2.6,0-1.54,.83-2.56,2.29-3.18-.06,.21-.09,.38-.15,.53-.51,1.2-.01,2.3,.38,3.38,.3,.82,.71,1.61,1.15,2.37,.25,.44,.22,.77-.01,1.19-.86,1.53-1.68,3.08-2.52,4.62-.06,.11-.17,.21-.27,.28-1.37,.98-2.74,1.96-4.27,3.04Z"/>
  <path class="cls-1" d="M24.13,19.85c-.06,.11-.1,.24-.18,.34-1.11,1.56-2.22,3.13-3.35,4.68-.24,.32-.52,.65-.85,.87-1.39,.92-2.8,1.79-4.27,2.73,.01-.26-.02-.55,.05-.8,.41-1.6,.87-3.16,2.2-4.32,1.2-1.05,2.13-2.44,3.69-3.01,.85-.31,1.75-.46,2.63-.68,.03,.06,.05,.13,.08,.19Z"/>
  <path class="cls-1" d="M37.9,29.38c-2.43,.64-4.82,1.27-7.2,1.9-.06-.1-.12-.19-.18-.29,.92-.88,1.81-1.8,2.78-2.62,.55-.47,1.26-.46,1.93-.18,.9,.38,1.79,.79,2.67,1.18Z"/>
  <path class="cls-1" d="M18.58,29.22h5.4c-.49,.69-.93,1.31-1.35,1.89-1.43-.54-2.77-1.04-4.1-1.54l.05-.34Z"/>
</svg>