<?xml version="1.0" encoding="UTF-8"?>
<svg id="Themed_shapes" data-name="Themed shapes" xmlns="http://www.w3.org/2000/svg" viewBox="0 0 72 72">
  <defs>
    <style>
      .cls-1 {
        fill: #fff;
      }
    </style>
  </defs>
  <path class="cls-1" d="M48.88,49.46c-.84,2.5-1.56,4.93-2.48,7.28-1.15,2.94-2.38,5.85-4.27,8.42-.43,.58-.91,1.12-1.39,1.65-.39,.43-.76,.51-1.24,.02-2.19-2.24-3.72-4.83-4.44-7.89-.41-1.74-.79-3.49-1.11-5.24-.12-.67-.02-1.37-.02-2.11-1.16,0-2.2,.07-3.23-.02-1.2-.11-2.43-.15-3.5-.88-.47-.33-.66-.63-.43-1.16,.14-.34,.22-.72,.38-1.05,.39-.78,.15-1.33-.57-1.72-.17-.09-.41-.13-.59-.09-.8,.17-1.59,.39-2.39,.57-1.16,.26-2.22-.11-3.21-.66-2.93-1.65-5.08-4.04-6.47-7.09-.12-.27-.25-.54-.35-.82-.33-.93-.17-1.32,.76-1.67,3.62-1.38,6.99-3.22,10.09-5.54,.28-.21,.44-.6,.62-.93,.52-.95,1.03-1.91,1.52-2.88,.62-1.21,1.27-2.41,1.8-3.66,.19-.45,.13-1.03,.1-1.54-.25-4.18-.23-8.34,.65-12.46,.44-2.05,1.27-3.62,2.43-4.66,.31,.95,.64,1.89,.94,2.85,1.25,3.9,3.71,6.99,6.63,9.76,.34,.32,.76,.58,1.18,.77,.73,.34,1.46,.42,2.15-.16,1.97-1.63,3.52-3.49,3.71-6.2,.08-1.21,.35-2.41,.39-3.62,.04-1.25-.11-2.51-.18-3.87,.28,.12,.76,.19,1.03,.47,.86,.85,1.75,1.7,2.42,2.7,2.14,3.17,3.58,6.69,4.81,10.3,.64,1.88,1.41,3.72,1.89,5.63,.51,2.04,.73,4.15,1.11,6.22,.25,1.34,.67,2.65,.81,4,.32,3.04,.13,6.07-.71,9.02-.31,1.1-.77,2.14-1.79,2.91-.06-2.03-.22-3.97-1.78-5.52,0,.8,0,1.61,0,2.41-.03,2.63,.02,5.27-.14,7.9-.13,2.05-.48,4.1-1.34,6.01-.21,.47-.49,.9-.83,1.34-.7-3.04-.34-6.41-2.98-8.77Zm7.9-9.44c0-2.03,.05-4.06-.02-6.09-.03-.91-.28-1.81-.51-2.7-.17-.67-.47-1.25-1.36-1.16-.38,.04-.79-.08-1.17-.19-3.65-1.09-6.81-3.01-9.34-5.87-.49-.55-.85-1.32-.98-2.04-.14-.77-.48-.88-1.1-.8-2.07,.26-4.14,.46-6.19,.81-1.26,.21-2.51,.57-3.7,1.04-.71,.28-1.45,.77-1.87,1.37-.63,.9-1,1.99-1.46,3.01-.51,1.12-.48,1.26,.49,2.04,.31,.25,.66,.44,.99,.65,.24,.15,.49,.3,.93,.57-.51,.15-.8,.23-1.09,.31-.67,.19-1.41,.25-1.98,.58-1.62,.95-3.18,2-4.75,3.03-.77,.51-.89,.93-.46,1.75,.66,1.24,1.66,2.16,2.89,2.83,.19,.1,.36,.21,.44,.26-.98,1.83-1.95,3.55-2.83,5.32-.26,.53-.57,.6-1.05,.56-.52-.04-1.04-.07-1.57-.1-.02,.11-.03,.22-.05,.33,.75,.15,1.54,.51,2.25,.4,1.16-.18,2.29-.63,3.4-1.04,3.88-1.44,7.88-2.35,11.92-3.19,.79-.16,1.59-.57,2.25-1.04,1.01-.73,1.91-1.61,3.02-2.57-1.16,2.26-2.54,4.15-4.53,5.35-2.88,1.76-5.97,3.17-9.23,4.11-.98,.28-1.11,.93-1.41,1.88,1.42,.07,2.73,.27,4.02,.17,2.89-.22,5.55-1.23,8.06-2.67,.85-.48,1.72-.92,2.58-1.37,.04,.05,.08,.1,.12,.16-.21,.26-.41,.53-.62,.79-1.57,1.87-3.58,3.14-5.77,4.13-.57,.26-.72,.54-.69,1.11,.11,2.53,.56,5,1.57,7.32,.71,1.63,1.55,3.19,2.33,4.79,.11,0,.21,0,.32,0,.57-.83,1.28-1.6,1.68-2.51,.93-2.08,1.8-4.2,2.52-6.37,.71-2.14,1.37-4.32,1.71-6.53,.28-1.81,.06-3.69,.06-5.61,1.23,.42,1.88,1.64,2.81,2.5,.96,.9,1.77,1.96,2.63,2.94,0-.17,0-.41,0-.65-.1-2.51-.26-5.02-.27-7.52-.02-2.69-.41-5.23-2.21-7.38,3.05,1.75,5.52,4.05,7.21,7.29Zm-6.48-25.46c-.08,.04-.16,.07-.24,.11-.02,.19-.05,.38-.05,.57,0,1.85-.37,3.6-1.33,5.2-.36,.6-.69,1.21-1.03,1.81-.5,.88-.3,1.94,.54,2.5,1.07,.72,2.13,1.47,3.28,2.05,.82,.41,1.76,.64,2.67,.81,.93,.17,1.37-.36,1.19-1.27-.52-2.66-1.2-5.28-2.55-7.66-.79-1.4-1.65-2.75-2.49-4.12Zm-18.89-.05c-.05,.01-.1,.03-.15,.04-.04,.58-.13,1.16-.12,1.74,.01,1.06,.04,2.12,.13,3.18,.05,.52,.38,.71,.89,.42,.43-.24,.87-.48,1.33-.67,.54-.22,.58-.5,.27-.97-.56-.85-1.06-1.73-1.6-2.59-.24-.39-.5-.77-.75-1.15Zm-.48,29.66c.2,.42,.36,.8,.57,1.16,.17,.29,.45,.4,.6,0,.19-.52,.28-1.07,.43-1.63-.57,.16-1.06,.31-1.59,.46Zm3.73,.87c-.43-.42-.81-.78-1.18-1.14-.14,.5-.28,.99-.41,1.49-.01,.05,.05,.13,.08,.22,.46-.17,.9-.34,1.51-.57Zm-5.95-.04c-.64,.24-1.14,.42-1.67,.61,.38,.4,.74,.78,1.26,1.33,.15-.72,.27-1.29,.42-1.94Zm6.15-1.82c.13,.34,.23,.68,.38,1.01,.05,.11,.22,.27,.3,.26,.14-.03,.32-.15,.37-.28,.16-.42,.26-.87,.4-1.35-.52,.13-.94,.24-1.45,.37Zm-3.95,3.2c-.15-.38-.27-.78-.47-1.13-.05-.09-.5-.08-.52-.03-.17,.49-.29,1-.44,1.53,.53-.14,.95-.25,1.42-.38Zm7.71-3.29c-.42-.29-.73-.5-1.05-.72-.16,.38-.31,.77-.53,1.29,.59-.21,.97-.35,1.58-.57Z"/>
  <path class="cls-1" d="M29,58.85c1.09-1.52,2.11-3.04,4.18-3.29,.14,.51,.27,.98,.42,1.54-3.09,1.09-4.29,3.82-5.64,6.48-.88-.53-.98-1.47-1.08-2.36-.31-2.66,0-5.25,1.01-7.74,.57-1.42,.72-1.5,2.23-1.29,.26,.04,.52,.12,.92,.22-1.15,2.01-1.83,4.11-2.04,6.42Z"/>
  <path class="cls-1" d="M36.31,31.37c.6-.33,1.2-.67,1.81-1,1.35-.73,2.7-1.47,4.07-2.18,.18-.09,.53-.08,.68,.04,.67,.52,1.29,1.09,1.96,1.67-.47,.63-.95,.96-1.84,.95-1.57-.02-3.16,.22-4.73,.39-.63,.07-1.25,.22-1.88,.34-.02-.07-.04-.14-.05-.2Z"/>
</svg>