<svg id="Layer_1" data-name="Layer 1" xmlns="http://www.w3.org/2000/svg" viewBox="0 0 24 24"><defs><style>.cls-1{fill:none;}.cls-2{fill:#fff;}</style></defs><g id="classic_ArrowDown"><g id="Group_170163" data-name="Group 170163"><rect id="Rectangle_626172" data-name="Rectangle 626172" class="cls-1" x="2.88" y="2.88" width="18.24" height="18.24"/><g id="Path_76037" data-name="Path 76037"><path class="cls-1" d="M11.2,17.08c2.2,0,3.3-1.4,3.32-4.19a9.17,9.17,0,0,1-3.14.69q-3.95,0-3.94-3.67A3.86,3.86,0,0,1,8.57,7a4.22,4.22,0,0,1,3-1.08A3.67,3.67,0,0,1,14.9,7.55,8.75,8.75,0,0,1,16,12.35a6.94,6.94,0,0,1-1.22,4.57,4.41,4.41,0,0,1-3.56,1.4,15.76,15.76,0,0,1-2.83-.26L7.9,18,8,16.86A24.28,24.28,0,0,0,11.2,17.08Zm.29-4.74a8,8,0,0,0,2.57-.49l.48-.17q-.06-4.51-2.92-4.52a2.61,2.61,0,0,0-2,.74,2.75,2.75,0,0,0-.72,2C8.9,11.53,9.76,12.34,11.49,12.34Z"/><path class="cls-2" d="M11.2,18.32a4.43,4.43,0,0,0,3.56-1.4A6.94,6.94,0,0,0,16,12.35a8.75,8.75,0,0,0-1.08-4.8,3.66,3.66,0,0,0-3.28-1.63A4.23,4.23,0,0,0,8.57,7,3.83,3.83,0,0,0,7.44,9.91q0,3.67,3.94,3.67a9.13,9.13,0,0,0,3.14-.69c0,2.79-1.12,4.19-3.32,4.19A23.52,23.52,0,0,1,8,16.86L7.9,18l.47.08a16.42,16.42,0,0,0,2.83.25m.42-11.16q2.87,0,2.92,4.52l-.48.17a8.12,8.12,0,0,1-2.57.49c-1.73,0-2.59-.81-2.59-2.43a2.75,2.75,0,0,1,.72-2,2.68,2.68,0,0,1,2-.74M11.2,19.08a17.84,17.84,0,0,1-2.95-.26l-1.19-.18L7.36,16l.76.1a23.56,23.56,0,0,0,3.08.21c1,0,2.18-.29,2.48-2.35a8.23,8.23,0,0,1-2.3.37,4.94,4.94,0,0,1-3.47-1.12A4.3,4.3,0,0,1,6.68,9.91,4.56,4.56,0,0,1,8.05,6.45a4.94,4.94,0,0,1,3.57-1.29,4.38,4.38,0,0,1,3.91,2,9.4,9.4,0,0,1,1.21,5.22c0,2.32-.46,4-1.4,5.07A5.22,5.22,0,0,1,11.2,19.08Zm.42-11.16a2,2,0,0,0-1.46.51,2,2,0,0,0-.5,1.48c0,1,.31,1.67,1.83,1.67a7.33,7.33,0,0,0,2.27-.43C13.58,7.92,12.17,7.92,11.62,7.92Z"/></g></g></g></svg>