<svg id="Layer_1" data-name="Layer 1" xmlns="http://www.w3.org/2000/svg" viewBox="0 0 24 24"><defs><style>.cls-1{fill:none;}.cls-2{fill:#f7f4f1;}</style></defs><g id="classic_ArrowDown"><g id="Group_170148" data-name="Group 170148"><rect id="Rectangle_626157" data-name="Rectangle 626157" class="cls-1" x="2.88" y="2.88" width="18.24" height="18.24"/><g id="Path_76022" data-name="Path 76022"><path class="cls-1" d="M8.84,14.75c0,1.82,1,2.73,3,2.73a3.52,3.52,0,0,0,2.31-.64,2.59,2.59,0,0,0,.77-2.09V5.92h1.39v8.79a3.85,3.85,0,0,1-1.12,3.07,5.09,5.09,0,0,1-3.31.95,5,5,0,0,1-3.3-.95,3.84,3.84,0,0,1-1.1-3.07V5.92h1.4Z"/><path class="cls-2" d="M11.84,18.73a5,5,0,0,0,3.31-.95,3.85,3.85,0,0,0,1.12-3.07V5.92H14.88v8.83a2.6,2.6,0,0,1-.77,2.09,3.55,3.55,0,0,1-2.31.64c-2,0-3-.91-3-2.73V5.92H7.44v8.79a3.88,3.88,0,0,0,1.1,3.07,5,5,0,0,0,3.3.95m0,.76a5.68,5.68,0,0,1-3.79-1.14,4.55,4.55,0,0,1-1.37-3.64V5.16H9.6v9.59c0,1.4.64,2,2.2,2a2.8,2.8,0,0,0,1.82-.47,1.88,1.88,0,0,0,.5-1.5V5.16H17v9.55a4.55,4.55,0,0,1-1.39,3.65A5.76,5.76,0,0,1,11.84,19.49Z"/></g></g></g></svg>