<svg id="Layer_1" data-name="Layer 1" xmlns="http://www.w3.org/2000/svg" viewBox="0 0 24 24"><defs><style>.cls-1{fill:none;}.cls-2{fill:#f7f4f1;}</style></defs><g id="classic_ArrowDown"><g id="Group_170146" data-name="Group 170146"><rect id="Rectangle_626155" data-name="Rectangle 626155" class="cls-1" x="2.88" y="2.88" width="18.24" height="18.24"/><g id="Path_76020" data-name="Path 76020"><path class="cls-1" d="M12.36,6.4c-1.83,0-2.74.69-2.74,2.06A1.8,1.8,0,0,0,10.25,10a8.5,8.5,0,0,0,2.56.86A6.4,6.4,0,0,1,15.54,12a2.84,2.84,0,0,1,.8,2.25q0,3.89-4,3.89A23.3,23.3,0,0,1,9,17.84l-.66-.09.15-1.17a34,34,0,0,0,3.77.33c1.8,0,2.7-.85,2.7-2.54a1.72,1.72,0,0,0-.6-1.47,5.76,5.76,0,0,0-2.21-.76,7.4,7.4,0,0,1-3-1.17A3,3,0,0,1,8.2,8.55q0-3.39,4.07-3.39a22.76,22.76,0,0,1,3.19.27l.62.09L16,6.71A33.22,33.22,0,0,0,12.36,6.4Z"/><path class="cls-2" d="M12.27,5.16q-4.06,0-4.07,3.39A3,3,0,0,0,9.09,11a7.62,7.62,0,0,0,3,1.18,5.7,5.7,0,0,1,2.22.75,1.74,1.74,0,0,1,.59,1.47c0,1.69-.9,2.54-2.7,2.54a31,31,0,0,1-3.77-.33l-.15,1.17.66.09a23.45,23.45,0,0,0,3.33.31q4,0,4-3.89A2.81,2.81,0,0,0,15.53,12a6.32,6.32,0,0,0-2.72-1.11A8.66,8.66,0,0,1,10.25,10a1.78,1.78,0,0,1-.63-1.58c0-1.37.91-2.06,2.74-2.06A33.39,33.39,0,0,1,16,6.71l.13-1.19-.62-.09a22.66,22.66,0,0,0-3.19-.27m0-.76a22.76,22.76,0,0,1,3.3.28l1.34.2-.28,2.68-.77-.1a34,34,0,0,0-3.5-.3c-2,0-2,.85-2,1.3s0,.78.3.95a7.31,7.31,0,0,0,2.29.74A7.23,7.23,0,0,1,16,11.43a3.54,3.54,0,0,1,1.07,2.83,4.57,4.57,0,0,1-1.25,3.46,4.91,4.91,0,0,1-3.55,1.19,23.43,23.43,0,0,1-3.44-.32l-1.4-.19.34-2.68.76.1a29.55,29.55,0,0,0,3.67.33c1.38,0,1.94-.52,1.94-1.78,0-.64-.22-.81-.29-.86a4.84,4.84,0,0,0-1.9-.62h0a8,8,0,0,1-3.34-1.33,3.66,3.66,0,0,1-1.18-3A3.86,3.86,0,0,1,8.73,5.42,5.43,5.43,0,0,1,12.27,4.4Z"/></g></g></g></svg>