<svg id="Layer_1" data-name="Layer 1" xmlns="http://www.w3.org/2000/svg" viewBox="0 0 24 24"><defs><style>.cls-1{fill:none;}.cls-2{fill:#f7f4f1;}</style></defs><g id="classic_ArrowDown"><g id="Group_170154" data-name="Group 170154"><rect id="Rectangle_626163" data-name="Rectangle 626163" class="cls-1" x="2.88" y="2.88" width="18.24" height="18.24"/><g id="Path_76028" data-name="Path 76028"><path class="cls-1" d="M11.82,5.92a4.65,4.65,0,0,1,2.42.57c1.32.77,2,2.72,2,5.83,0,2.2-.36,3.76-1.09,4.66a4,4,0,0,1-3.28,1.36A4,4,0,0,1,8.54,17c-.73-.89-1.1-2.49-1.1-4.78S7.8,8.31,8.53,7.35A3.85,3.85,0,0,1,11.82,5.92Zm0,1.26a2.71,2.71,0,0,0-1.64.44c-.87.59-1.3,2.17-1.3,4.72a7,7,0,0,0,.71,3.73,2.51,2.51,0,0,0,2.23,1,2.49,2.49,0,0,0,2.22-1,7.29,7.29,0,0,0,.71-3.86,8,8,0,0,0-.68-3.92A2.44,2.44,0,0,0,11.84,7.18Z"/><path class="cls-2" d="M11.82,5.92A3.87,3.87,0,0,0,8.53,7.35c-.73,1-1.09,2.58-1.09,4.87s.37,3.89,1.1,4.78a4,4,0,0,0,3.3,1.34A4,4,0,0,0,15.12,17c.73-.9,1.09-2.46,1.09-4.66,0-3.11-.65-5.06-2-5.83a4.56,4.56,0,0,0-2.42-.57m0,11.18a2.52,2.52,0,0,1-2.23-1,7,7,0,0,1-.71-3.73c0-2.55.43-4.13,1.3-4.72a2.66,2.66,0,0,1,1.64-.44,2.46,2.46,0,0,1,2.25,1.1,8,8,0,0,1,.68,3.92,7.29,7.29,0,0,1-.71,3.86,2.5,2.5,0,0,1-2.22,1m0-11.94a5.47,5.47,0,0,1,2.82.67,4.32,4.32,0,0,1,1.8,2.46,12.65,12.65,0,0,1,.53,4c0,2.4-.41,4.08-1.26,5.14a4.7,4.7,0,0,1-3.87,1.64A4.73,4.73,0,0,1,8,17.48c-.86-1-1.28-2.76-1.28-5.26S7.09,8,7.92,6.89A4.6,4.6,0,0,1,11.82,5.16Zm0,11.18a1.69,1.69,0,0,0,1.59-.71c.27-.38.58-1.29.58-3.43a7.1,7.1,0,0,0-.57-3.52,1.65,1.65,0,0,0-1.6-.74,2.08,2.08,0,0,0-1.2.29h0c-.36.25-1,1.11-1,4.1,0,2,.31,2.92.58,3.3A1.72,1.72,0,0,0,11.84,16.34Z"/></g></g></g></svg>