<svg id="Layer_1" data-name="Layer 1" xmlns="http://www.w3.org/2000/svg" viewBox="0 0 24 24"><defs><style>.cls-1{fill:none;}.cls-2{fill:#f7f4f1;}</style></defs><g id="classic_ArrowDown"><g id="Group_170143" data-name="Group 170143"><rect id="Rectangle_626152" data-name="Rectangle 626152" class="cls-1" x="2.88" y="2.88" width="18.24" height="18.24"/><g id="Path_76017" data-name="Path 76017"><path class="cls-1" d="M12.06,14.29H8.84v4.25H7.44V5.92h4.62a4.12,4.12,0,0,1,3,1,4.27,4.27,0,0,1,1,3.07C16.09,12.86,14.74,14.29,12.06,14.29ZM8.84,13.05H12c1.74,0,2.6-1,2.6-3.06A3.08,3.08,0,0,0,14,7.84a2.53,2.53,0,0,0-2-.68H8.84Z"/><path class="cls-2" d="M8.84,18.54V14.29h3.21q4,0,4-4.3a4.21,4.21,0,0,0-1-3.07,4.1,4.1,0,0,0-3-1H7.44V18.54h1.4m0-11.38H12a2.56,2.56,0,0,1,2,.68A3.1,3.1,0,0,1,14.64,10c0,2-.86,3.06-2.6,3.06H8.84V7.16M9.6,19.3H6.68V5.16h5.37a4.82,4.82,0,0,1,3.59,1.23A4.94,4.94,0,0,1,16.85,10a5.26,5.26,0,0,1-1.22,3.74,4.67,4.67,0,0,1-3.58,1.32H9.6Zm0-7H12a1.67,1.67,0,0,0,1.37-.5,2.72,2.72,0,0,0,.47-1.8,2.49,2.49,0,0,0-.42-1.64A1.91,1.91,0,0,0,12,7.92H9.6Z"/></g></g></g></svg>