<svg id="Layer_1" data-name="Layer 1" xmlns="http://www.w3.org/2000/svg" viewBox="0 0 24 24"><defs><style>.cls-1{fill:none;}.cls-2{fill:#f7f4f1;}</style></defs><g id="classic_ArrowDown"><g id="Group_170160" data-name="Group 170160"><rect id="Rectangle_626169" data-name="Rectangle 626169" class="cls-1" x="2.88" y="2.88" width="18.24" height="18.24"/><g id="Path_76034" data-name="Path 76034"><path class="cls-1" d="M15.32,7.38a24.31,24.31,0,0,0-3.19-.22A2.83,2.83,0,0,0,9.74,8.24a4.88,4.88,0,0,0-.84,3.08l.46-.18a9.88,9.88,0,0,1,1.21-.35,6.09,6.09,0,0,1,1.34-.18c2.7,0,4.05,1.24,4.05,3.74a3.81,3.81,0,0,1-1.11,2.94,4.34,4.34,0,0,1-3.11,1q-4.31,0-4.3-6.25A7.22,7.22,0,0,1,8.67,7.42a4.26,4.26,0,0,1,3.48-1.5A17.64,17.64,0,0,1,15,6.14l.49.09Zm-3.5,4.49a5.63,5.63,0,0,0-1.36.17,9.6,9.6,0,0,0-1.16.34l-.42.18a7,7,0,0,0,.7,3.3,2.24,2.24,0,0,0,2.09,1.22,2.89,2.89,0,0,0,2.12-.7,2.67,2.67,0,0,0,.71-2,2.4,2.4,0,0,0-.7-1.9A2.85,2.85,0,0,0,11.82,11.87Z"/><path class="cls-2" d="M12.15,5.92a4.25,4.25,0,0,0-3.48,1.5,7.22,7.22,0,0,0-1.23,4.65q0,6.25,4.3,6.25a4.36,4.36,0,0,0,3.11-1A3.81,3.81,0,0,0,16,14.35c0-2.5-1.35-3.74-4.05-3.74a5.83,5.83,0,0,0-1.34.18,10.7,10.7,0,0,0-1.21.35l-.46.18a4.89,4.89,0,0,1,.84-3.08,2.84,2.84,0,0,1,2.39-1.08,23.44,23.44,0,0,1,3.19.22l.13-1.15L15,6.14a16.73,16.73,0,0,0-2.8-.22m-.48,11.16a2.24,2.24,0,0,1-2.09-1.22,6.92,6.92,0,0,1-.7-3.3l.42-.18A9.7,9.7,0,0,1,10.46,12a5.68,5.68,0,0,1,1.36-.17,2.87,2.87,0,0,1,2,.62,2.43,2.43,0,0,1,.7,1.9,2.69,2.69,0,0,1-.71,2,2.9,2.9,0,0,1-2.12.7m.48-11.92a18.41,18.41,0,0,1,2.93.23h0l1.19.22L16,8.24l-.77-.11a23.71,23.71,0,0,0-3.09-.21,2.12,2.12,0,0,0-1.79.78,3.24,3.24,0,0,0-.6,1.52l.65-.17a6.84,6.84,0,0,1,1.52-.2A5.09,5.09,0,0,1,15.46,11a4.37,4.37,0,0,1,1.26,3.37,4.56,4.56,0,0,1-1.35,3.5,5.12,5.12,0,0,1-3.63,1.23,4.37,4.37,0,0,1-3.85-1.89,9,9,0,0,1-1.21-5.12,7.92,7.92,0,0,1,1.4-5.14A5,5,0,0,1,12.15,5.16Zm-.48,11.16a2.18,2.18,0,0,0,1.58-.48,1.93,1.93,0,0,0,.49-1.45,1.68,1.68,0,0,0-.45-1.33,2.15,2.15,0,0,0-1.47-.43,5.37,5.37,0,0,0-1.19.15c-.41.1-.73.19-1,.27a5.54,5.54,0,0,0,.59,2.44A1.47,1.47,0,0,0,11.67,16.32Z"/></g></g></g></svg>