<svg id="Layer_1" data-name="Layer 1" xmlns="http://www.w3.org/2000/svg" viewBox="0 0 24 24"><defs><style>.cls-1{fill:none;}.cls-2{fill:#fff;}</style></defs><g id="classic_ArrowDown"><g id="Group_170159" data-name="Group 170159"><rect id="Rectangle_626168" data-name="Rectangle 626168" class="cls-1" x="2.88" y="2.88" width="18.24" height="18.24"/><g id="Path_76033" data-name="Path 76033"><path class="cls-1" d="M15.75,5.92V7.2H9.9l-.33,3.92a6,6,0,0,1,2.83-.75q3.82,0,3.83,3.56a4.3,4.3,0,0,1-1.06,3.12,4,4,0,0,1-3,1.07,16.2,16.2,0,0,1-3.4-.4l-.6-.13.16-1.11a19.19,19.19,0,0,0,3.53.4,2.92,2.92,0,0,0,2.17-.74,2.85,2.85,0,0,0,.73-2.07,2.33,2.33,0,0,0-.67-1.89,2.88,2.88,0,0,0-1.89-.55,5.31,5.31,0,0,0-1.37.18,6.29,6.29,0,0,0-1.11.37l-.38.18-1-.18.33-6.26Z"/><path class="cls-2" d="M8.73,5.92,8.4,12.18l1,.18.38-.18a5.56,5.56,0,0,1,1.1-.37,5.75,5.75,0,0,1,1.38-.18,2.81,2.81,0,0,1,1.89.56,2.34,2.34,0,0,1,.67,1.88,2.84,2.84,0,0,1-.73,2.07,2.9,2.9,0,0,1-2.17.74,19.18,19.18,0,0,1-3.53-.4L8.2,17.59l.6.13a16,16,0,0,0,3.4.4,4,4,0,0,0,3-1.07,4.3,4.3,0,0,0,1.06-3.12q0-3.55-3.83-3.56a6,6,0,0,0-2.83.75L9.9,7.2h5.85V5.92h-7M8,5.16h8.5V8H10.6l-.17,2a6.4,6.4,0,0,1,2-.32,4.86,4.86,0,0,1,3.39,1.09A4.24,4.24,0,0,1,17,13.93a5,5,0,0,1-1.28,3.65,4.73,4.73,0,0,1-3.51,1.3,16.9,16.9,0,0,1-3.56-.42l-1.3-.27.39-2.6.78.14a18.41,18.41,0,0,0,3.38.39,2.24,2.24,0,0,0,1.63-.51A2.1,2.1,0,0,0,14,14.07a1.75,1.75,0,0,0-.4-1.3,2.17,2.17,0,0,0-1.4-.38,4.71,4.71,0,0,0-1.19.16,5,5,0,0,0-1,.31l-.61.29L7.61,12.8Z"/></g></g></g></svg>