<svg id="Layer_1" data-name="Layer 1" xmlns="http://www.w3.org/2000/svg" viewBox="0 0 24 24"><defs><style>.cls-1{fill:none;}.cls-2{fill:#f7f4f1;}</style></defs><g id="classic_ArrowDown"><g id="Group_170134" data-name="Group 170134"><rect id="Rectangle_626143" data-name="Rectangle 626143" class="cls-1" x="2.88" y="2.88" width="18.24" height="18.24"/><g id="Path_76008" data-name="Path 76008"><path class="cls-1" d="M13,12.77V11.5h3.48v6.21a22.56,22.56,0,0,1-4.1.44c-1.84,0-3.11-.53-3.82-1.59a8.92,8.92,0,0,1-1.07-4.9,9,9,0,0,1,1.07-4.9c.71-1.07,2-1.6,3.78-1.6a18.93,18.93,0,0,1,3.52.36l.62.11L16.38,6.8a24.66,24.66,0,0,0-3.92-.38A3,3,0,0,0,9.63,7.64a8.21,8.21,0,0,0-.73,4,8.19,8.19,0,0,0,.73,4,3,3,0,0,0,2.81,1.22,13.43,13.43,0,0,0,2.61-.26V12.77Z"/><path class="cls-2" d="M12.33,18.15a22.34,22.34,0,0,0,4.1-.44v-6.2H13v1.26h2.1v3.88a13.91,13.91,0,0,1-2.61.26,3,3,0,0,1-2.81-1.22,8.18,8.18,0,0,1-.73-4,8.18,8.18,0,0,1,.73-4,3,3,0,0,1,2.83-1.21,24.58,24.58,0,0,1,3.92.38l.05-1.17-.62-.11a18.13,18.13,0,0,0-3.52-.36c-1.81,0-3.07.53-3.78,1.6a9,9,0,0,0-1.07,4.9,8.92,8.92,0,0,0,1.07,4.9c.71,1.06,2,1.59,3.82,1.59m0,.76c-2.1,0-3.6-.65-4.45-1.93a9.43,9.43,0,0,1-1.2-5.32,9.54,9.54,0,0,1,1.2-5.33c.85-1.28,2.34-1.93,4.41-1.93A18.81,18.81,0,0,1,16,4.78L17.22,5,17.1,7.69l-.85-.14a23,23,0,0,0-3.79-.37c-1.13,0-1.84.27-2.18.84a7.4,7.4,0,0,0-.62,3.64,7.37,7.37,0,0,0,.62,3.64c.34.57,1.05.85,2.16.85A13.13,13.13,0,0,0,14.29,16V13.53h-2.1V10.75h5v7.59l-.62.12A23,23,0,0,1,12.33,18.91Z"/></g></g></g></svg>