<svg id="Layer_1" data-name="Layer 1" xmlns="http://www.w3.org/2000/svg" viewBox="0 0 24 24"><defs><style>.cls-1{fill:none;}.cls-2{fill:#f7f4f1;}</style></defs><g id="classic_ArrowDown"><g id="Group_170142" data-name="Group 170142"><rect id="Rectangle_626151" data-name="Rectangle 626151" class="cls-1" x="2.88" y="2.88" width="18.24" height="18.24"/><g id="Path_76016" data-name="Path 76016"><path class="cls-1" d="M8.12,11.71a8,8,0,0,0,.73,4,3,3,0,0,0,2.81,1.22,3,3,0,0,0,2.82-1.19,8.1,8.1,0,0,0,.72-4,8.49,8.49,0,0,0-.75-4.07,3,3,0,0,0-2.8-1.28A3,3,0,0,0,8.86,7.67,8.37,8.37,0,0,0,8.12,11.71Zm8.54,0a8.59,8.59,0,0,1-1.08,4.89c-.72,1-2,1.52-3.91,1.52s-3.2-.52-3.91-1.55a8.69,8.69,0,0,1-1.08-4.88A8.89,8.89,0,0,1,7.77,6.78c.73-1.08,2-1.62,3.89-1.62s3.16.54,3.89,1.61A8.85,8.85,0,0,1,16.66,11.74Z"/><path class="cls-2" d="M11.67,18.15c1.89,0,3.19-.51,3.91-1.52a8.59,8.59,0,0,0,1.08-4.89,8.85,8.85,0,0,0-1.11-5c-.73-1.07-2-1.61-3.89-1.61S8.5,5.7,7.77,6.77a9,9,0,0,0-1.09,5A8.69,8.69,0,0,0,7.76,16.6c.71,1,2,1.55,3.91,1.55m0-11.75a3,3,0,0,1,2.8,1.28,8.32,8.32,0,0,1,.75,4.06,8.07,8.07,0,0,1-.72,4,3,3,0,0,1-2.81,1.19,3,3,0,0,1-2.82-1.22,8,8,0,0,1-.73-4,8.37,8.37,0,0,1,.74-4A2.94,2.94,0,0,1,11.65,6.4m0,12.51C9.52,18.91,8,18.28,7.13,17a9.32,9.32,0,0,1-1.21-5.31A9.54,9.54,0,0,1,7.14,6.35C8,5.06,9.54,4.4,11.66,4.4s3.64.65,4.52,1.93a9.57,9.57,0,0,1,1.24,5.41c0,2.44-.4,4.18-1.22,5.33S13.81,18.91,11.67,18.91Zm0-11.75c-1.62,0-2,.67-2.13.89a7.61,7.61,0,0,0-.64,3.66A7.24,7.24,0,0,0,9.5,15.3c.34.57,1.05.85,2.17.85a2.37,2.37,0,0,0,2.16-.82,7.19,7.19,0,0,0,.61-3.59,7.71,7.71,0,0,0-.65-3.68A2.26,2.26,0,0,0,11.65,7.16Z"/></g></g></g></svg>