<svg id="Layer_1" data-name="Layer 1" xmlns="http://www.w3.org/2000/svg" viewBox="0 0 24 24"><defs><style>.cls-1{fill:none;}.cls-2{fill:#fff;}</style></defs><g id="classic_ArrowDown"><g id="Group_170131" data-name="Group 170131"><rect id="Rectangle_626140" data-name="Rectangle 626140" class="cls-1" x="2.88" y="2.88" width="18.24" height="18.24"/><g id="Path_76005" data-name="Path 76005"><path class="cls-1" d="M12,18.54H7.44V5.92H12A4,4,0,0,1,16,8.36a9.65,9.65,0,0,1,.58,3.69q0,4.75-2.37,6A4.78,4.78,0,0,1,12,18.54Zm3.22-6.49q0-3.63-1.62-4.53A3.29,3.29,0,0,0,12,7.16H8.84V17.3H12Q15.18,17.3,15.17,12.05Z"/><path class="cls-2" d="M12,18.54a4.87,4.87,0,0,0,2.29-.49q2.37-1.25,2.37-6A9.77,9.77,0,0,0,16,8.36,4,4,0,0,0,12,5.92H7.44V18.54H12M8.84,7.16H12a3.29,3.29,0,0,1,1.6.36q1.62.9,1.62,4.53,0,5.25-3.22,5.25H8.84V7.16M12,19.3H6.68V5.16H12a5.66,5.66,0,0,1,3,.72,4.42,4.42,0,0,1,1.83,2.19,10.46,10.46,0,0,1,.64,4,11.51,11.51,0,0,1-.64,4.16,4.62,4.62,0,0,1-2.13,2.51A5.66,5.66,0,0,1,12,19.3ZM9.6,16.54H12a1.9,1.9,0,0,0,1.77-.95,7,7,0,0,0,.69-3.54c0-1.45-.21-3.3-1.23-3.86A2.52,2.52,0,0,0,12,7.92H9.6Z"/></g></g></g></svg>