<svg id="Layer_1" data-name="Layer 1" xmlns="http://www.w3.org/2000/svg" viewBox="0 0 24 24"><defs><style>.cls-1{fill:none;}.cls-2{fill:#f7f4f1;}</style></defs><g id="classic_ArrowDown"><g id="Group_170145" data-name="Group 170145"><rect id="Rectangle_626154" data-name="Rectangle 626154" class="cls-1" x="2.88" y="2.88" width="18.24" height="18.24"/><g id="Path_76019" data-name="Path 76019"><path class="cls-1" d="M8.85,13.71v4.83H7.44V5.92h4.67a4.33,4.33,0,0,1,3,.93,3.78,3.78,0,0,1,1,2.9c0,1.95-.77,3.17-2.31,3.67l2.42,5.12H14.7l-2.28-4.83Zm3.28-1.24c1.71,0,2.57-.89,2.57-2.66s-.86-2.65-2.59-2.65H8.85v5.31Z"/><path class="cls-2" d="M16.25,18.54l-2.43-5.12q2.32-.75,2.32-3.67a3.78,3.78,0,0,0-1-2.9,4.33,4.33,0,0,0-3-.93H7.44V18.54h1.4V13.71h3.58l2.28,4.83h1.55M8.84,7.16h3.27c1.73,0,2.59.88,2.59,2.65s-.86,2.66-2.57,2.66H8.84V7.16M17.45,19.3H14.22l-2.28-4.83H9.6V19.3H6.68V5.16h5.43a5,5,0,0,1,3.53,1.13A4.47,4.47,0,0,1,16.9,9.75a4.22,4.22,0,0,1-2,4.05ZM9.6,11.71h2.53c1.28,0,1.81-.55,1.81-1.9s-.53-1.89-1.83-1.89H9.6Z"/></g></g></g></svg>