<svg id="Layer_1" data-name="Layer 1" xmlns="http://www.w3.org/2000/svg" viewBox="0 0 24 24"><defs><style>.cls-1{fill:none;}.cls-2{fill:#f7f4f1;}</style></defs><g id="classic_ArrowDown"><g id="Group_170138" data-name="Group 170138"><rect id="Rectangle_626147" data-name="Rectangle 626147" class="cls-1" x="2.88" y="2.88" width="18.24" height="18.24"/><g id="Path_76012" data-name="Path 76012"><path class="cls-1" d="M8.85,18.54H7.44V5.92H8.85v5.87l2.07-.07,3.23-5.8h1.61l-3.62,6.35L16,18.54H14.3L10.94,13,8.85,13Z"/><path class="cls-2" d="M16,18.54l-3.81-6.27,3.61-6.35H14.15l-3.23,5.8-2.07.07V5.92H7.44V18.54H8.85V13L10.94,13l3.36,5.58H16m1.35.76H13.87l-3.35-5.56-.91,0V19.3H6.68V5.16H9.61V11l.86,0,3.24-5.82h3.36l-4,7.09Z"/></g></g></g></svg>