<svg id="Layer_1" data-name="Layer 1" xmlns="http://www.w3.org/2000/svg" viewBox="0 0 24 24"><defs><style>.cls-1{fill:none;}.cls-2{fill:#f7f4f1;}</style></defs><g id="classic_ArrowDown"><g id="Group_170156" data-name="Group 170156"><rect id="Rectangle_626165" data-name="Rectangle 626165" class="cls-1" x="2.88" y="2.88" width="18.24" height="18.24"/><g id="Path_76030" data-name="Path 76030"><path class="cls-1" d="M15.9,18.14H8.2V17l3.52-3.71c.61-.63,1-1.11,1.33-1.44a5.59,5.59,0,0,0,.76-1.17,3,3,0,0,0,.34-1.35,2,2,0,0,0-.64-1.64,3.33,3.33,0,0,0-2-.47,12.46,12.46,0,0,0-2.65.31l-.47.09L8.29,6.41a13,13,0,0,1,3.57-.49,4.25,4.25,0,0,1,2.78.78,3,3,0,0,1,.94,2.45A4.25,4.25,0,0,1,15,11.38a12.13,12.13,0,0,1-1.95,2.28L9.86,16.92h6Z"/><path class="cls-2" d="M15.9,18.14V16.92h-6l3.21-3.27A11.63,11.63,0,0,0,15,11.37a4.22,4.22,0,0,0,.57-2.22,3,3,0,0,0-.94-2.45,4.29,4.29,0,0,0-2.78-.78,13,13,0,0,0-3.58.49L8.4,7.58l.47-.09a12.71,12.71,0,0,1,2.65-.31,3.41,3.41,0,0,1,2,.47,1.94,1.94,0,0,1,.64,1.64,3.07,3.07,0,0,1-.34,1.35,6.06,6.06,0,0,1-.76,1.17c-.28.33-.72.81-1.33,1.44L8.2,17v1.18h7.7m.76.76H7.44V16.65l3.73-3.92c.6-.62,1-1.1,1.3-1.41a5,5,0,0,0,.66-1,2.23,2.23,0,0,0,.26-1,1.25,1.25,0,0,0-.34-1,2.55,2.55,0,0,0-1.53-.32A12.54,12.54,0,0,0,9,8.23H9l-1.3.25L7.48,5.85l.6-.17a14.09,14.09,0,0,1,3.79-.52,5,5,0,0,1,3.26,1,3.72,3.72,0,0,1,1.22,3,5,5,0,0,1-.68,2.61,12.05,12.05,0,0,1-2.07,2.43l-1.93,2h5Z"/></g></g></g></svg>