<svg id="Layer_1" data-name="Layer 1" xmlns="http://www.w3.org/2000/svg" viewBox="0 0 24 24"><defs><style>.cls-1{fill:none;}.cls-2{fill:#f7f4f1;}</style></defs><g id="classic_ArrowDown"><g id="Group_170144" data-name="Group 170144"><rect id="Rectangle_626153" data-name="Rectangle 626153" class="cls-1" x="2.88" y="2.88" width="18.24" height="18.24"/><g id="Path_76018" data-name="Path 76018"><path class="cls-1" d="M11.66,17.39c-1.89,0-3.19-.52-3.9-1.55A8.69,8.69,0,0,1,6.68,11,8.89,8.89,0,0,1,7.77,6c.73-1.08,2-1.62,3.89-1.62s3.16.54,3.89,1.61A8.76,8.76,0,0,1,16.66,11a11.68,11.68,0,0,1-.48,3.71,3.63,3.63,0,0,1-1.62,2.07l1.55,2.5-1.31.62-1.61-2.63A6.09,6.09,0,0,1,11.66,17.39ZM8.12,11a8,8,0,0,0,.73,4,3,3,0,0,0,2.81,1.22A3,3,0,0,0,14.48,15a8,8,0,0,0,.72-4,8.44,8.44,0,0,0-.75-4.08,3,3,0,0,0-2.8-1.28A3,3,0,0,0,8.86,6.91,8.37,8.37,0,0,0,8.12,11Z"/><path class="cls-2" d="M14.8,19.85l1.31-.62-1.55-2.5a3.62,3.62,0,0,0,1.62-2.07A11.72,11.72,0,0,0,16.66,11,8.76,8.76,0,0,0,15.55,6c-.73-1.07-2-1.61-3.89-1.61S8.5,4.94,7.77,6a9,9,0,0,0-1.09,5,8.69,8.69,0,0,0,1.08,4.88c.71,1,2,1.55,3.9,1.55a5.88,5.88,0,0,0,1.53-.17l1.61,2.63M11.65,5.64a3,3,0,0,1,2.8,1.28A8.37,8.37,0,0,1,15.2,11a8,8,0,0,1-.72,4,3,3,0,0,1-2.81,1.18,3,3,0,0,1-2.82-1.22,8,8,0,0,1-.73-4,8.37,8.37,0,0,1,.74-4,2.94,2.94,0,0,1,2.79-1.27M14.5,20.83l-1.68-2.76a8,8,0,0,1-1.16.08c-2.14,0-3.66-.63-4.53-1.88A9.32,9.32,0,0,1,5.92,11,9.54,9.54,0,0,1,7.14,5.59C8,4.3,9.54,3.64,11.66,3.64s3.64.65,4.52,1.93A9.49,9.49,0,0,1,17.42,11a12.26,12.26,0,0,1-.52,4,4.44,4.44,0,0,1-1.32,2l1.62,2.62ZM11.65,6.4c-1.62,0-2,.67-2.13.89A7.61,7.61,0,0,0,8.88,11a7.24,7.24,0,0,0,.62,3.59c.34.57,1.05.85,2.17.85a2.37,2.37,0,0,0,2.16-.82A7.11,7.11,0,0,0,14.44,11a7.73,7.73,0,0,0-.65-3.69A2.26,2.26,0,0,0,11.65,6.4Z"/></g></g></g></svg>