<svg id="Layer_1" data-name="Layer 1" xmlns="http://www.w3.org/2000/svg" viewBox="0 0 24 24"><defs><style>.cls-1{fill:none;}.cls-2{fill:#f7f4f1;}</style></defs><g id="classic_ArrowDown"><g id="Group_170150" data-name="Group 170150"><rect id="Rectangle_626159" data-name="Rectangle 626159" class="cls-1" x="-0.16" y="2.88" width="24.32" height="18.24"/><g id="Path_76024" data-name="Path 76024"><path class="cls-1" d="M4.4,5.92H5.86L8,17.3h.53L11.11,6h1.64L15.33,17.3h.53L18,5.92h1.44L16.89,18.54H14.32L11.93,7.76,9.54,18.54H7Z"/><path class="cls-2" d="M4.4,5.92,7,18.54H9.54L11.93,7.76l2.39,10.78h2.57L19.45,5.92H18L15.85,17.3h-.52L12.75,6H11.11L8.54,17.3H8L5.86,5.92H4.4m-.93-.76h3l1.83,9.69,2.19-9.58h2.85l2.19,9.58,1.83-9.69h3L17.52,19.3H13.71l-1.78-8-1.78,8H6.35Z"/></g></g></g></svg>