<svg id="Layer_1" data-name="Layer 1" xmlns="http://www.w3.org/2000/svg" viewBox="0 0 24 24"><defs><style>.cls-1{fill:none;}.cls-2{fill:#fff;}</style></defs><g id="classic_ArrowDown"><g id="Group_170140" data-name="Group 170140"><rect id="Rectangle_626149" data-name="Rectangle 626149" class="cls-1" x="-0.16" y="2.88" width="24.32" height="18.24"/><g id="Path_76014" data-name="Path 76014"><path class="cls-1" d="M5.92,18.54V5.92H8.46L12,16.59,15.6,5.92h2.54V18.54h-1.4V7.41h-.26L12.81,18.09H11.25L7.58,7.41H7.32V18.54Z"/><path class="cls-2" d="M18.14,18.54V5.92H15.61L12,16.59,8.46,5.92H5.92V18.54h1.4V7.41h.26l3.67,10.68h1.56L16.48,7.41h.26V18.54h1.4m.76.76H16V11.22l-2.62,7.63H10.7L8.08,11.22V19.3H5.16V5.16H9l3,9,3-9H18.9Z"/></g></g></g></svg>