<svg id="Layer_1" data-name="Layer 1" xmlns="http://www.w3.org/2000/svg" viewBox="0 0 24 24"><defs><style>.cls-1{fill:none;}.cls-2{fill:#fff;}</style></defs><g id="classic_ArrowDown"><g id="Group_170130" data-name="Group 170130"><rect id="Rectangle_626139" data-name="Rectangle 626139" class="cls-1" x="2.88" y="2.88" width="18.24" height="18.24"/><g id="Path_76004" data-name="Path 76004"><path class="cls-1" d="M16.3,17.76a17.42,17.42,0,0,1-3.38.39,6,6,0,0,1-2.41-.41,3.06,3.06,0,0,1-1.43-1.28,6.12,6.12,0,0,1-.69-2,17.49,17.49,0,0,1-.19-2.8,17.82,17.82,0,0,1,.19-2.82,6.23,6.23,0,0,1,.69-2A3,3,0,0,1,10.5,5.56a6,6,0,0,1,2.37-.4,17.27,17.27,0,0,1,3.43.4l-.06,1.19A18.06,18.06,0,0,0,13,6.42a2.74,2.74,0,0,0-2.65,1.19,9.2,9.2,0,0,0-.65,4.08A18,18,0,0,0,9.78,14a5.07,5.07,0,0,0,.46,1.57,2.09,2.09,0,0,0,1,1,5,5,0,0,0,2,.3,17.24,17.24,0,0,0,3-.33Z"/><path class="cls-2" d="M12.92,18.15a16.78,16.78,0,0,0,3.38-.39l-.06-1.2a16.65,16.65,0,0,1-3,.33,4.91,4.91,0,0,1-2-.3,2,2,0,0,1-1-1A5,5,0,0,1,9.78,14a17.94,17.94,0,0,1-.12-2.32,9.25,9.25,0,0,1,.65-4.08A2.74,2.74,0,0,1,13,6.42a18.74,18.74,0,0,1,3.28.33l.06-1.19a17.31,17.31,0,0,0-3.43-.4,5.91,5.91,0,0,0-2.37.4A3,3,0,0,0,9.08,6.84a6.12,6.12,0,0,0-.69,2,17.18,17.18,0,0,0-.19,2.82,16.84,16.84,0,0,0,.19,2.8,6.08,6.08,0,0,0,.69,2,3.07,3.07,0,0,0,1.43,1.28,6,6,0,0,0,2.41.41m0,.76a6.66,6.66,0,0,1-2.72-.48,3.75,3.75,0,0,1-1.77-1.59,6.62,6.62,0,0,1-.79-2.24,18.43,18.43,0,0,1-.2-2.93,18.75,18.75,0,0,1,.2-2.94,6.71,6.71,0,0,1,.79-2.27,3.72,3.72,0,0,1,1.76-1.59,6.5,6.5,0,0,1,2.68-.47,18.1,18.1,0,0,1,3.58.42l.64.13L17,7.65l-.85-.15A18.35,18.35,0,0,0,13,7.18c-1.55,0-1.88.6-2,.8a8.32,8.32,0,0,0-.55,3.71,18.1,18.1,0,0,0,.11,2.21,4.53,4.53,0,0,0,.39,1.35,1.3,1.3,0,0,0,.65.64,4,4,0,0,0,1.64.24,16.06,16.06,0,0,0,2.89-.32l.86-.16.13,2.73-.64.13A18.26,18.26,0,0,1,12.92,18.91Z"/></g></g></g></svg>