<?xml version="1.0" encoding="UTF-8"?>
<svg id="RaceShapes" xmlns="http://www.w3.org/2000/svg" viewBox="0 0 72 72">
  <defs>
    <style>
      .cls-1 {
        fill: #fff;
      }
    </style>
  </defs>
  <path class="cls-1" d="M33.38,42.93l-1.56,2.48h.01l-.27,.35c-.65,.84-1.65,1.34-2.71,1.34l-21.17-.03-1.53,2.43H31.83c2.03,0,3.92-1.05,5.01-2.77l1.56-2.48h-.01l.27-.35c.65-.84,1.65-1.34,2.71-1.34l21.17,.03,1.53-2.43h-25.68c-2.03,0-3.92,1.05-5.01,2.77Z"/>
  <path class="cls-1" d="M28.93,24.9c1.06,0,2.07,.49,2.71,1.34l.27,.35h-.01l1.56,2.48c1.08,1.72,2.97,2.77,5.01,2.77h25.68l-1.53-2.43-21.17,.03c-1.06,0-2.07-.49-2.71-1.34l-.27-.35h.01l-1.56-2.48c-1.08-1.72-2.97-2.77-5.01-2.77H6.23l1.53,2.43,21.17-.03Z"/>
  <polygon class="cls-1" points="7.75 31.29 7.76 31.29 7.76 31.29 7.75 31.29"/>
  <polygon class="cls-1" points="7.71 40.49 7.71 40.49 7.7 40.49 7.71 40.49"/>
</svg>