<?xml version="1.0" encoding="UTF-8"?>
<svg id="RaceShapes" xmlns="http://www.w3.org/2000/svg" viewBox="0 0 72 72">
  <defs>
    <style>
      .cls-1 {
        fill: #fff;
      }
    </style>
  </defs>
  <path class="cls-1" d="M63.04,30.08c-2.74-6.88-9.68-10.83-16.69-10.09,5.5,.82,10.44,4.46,12.64,10,3.3,8.29-.74,17.69-9.03,20.99-1.41,.56-2.86,.91-4.3,1.06,2.73,.41,5.6,.12,8.35-.97,8.29-3.3,12.34-12.7,9.03-20.99Z"/>
  <path class="cls-1" d="M52.3,30.03c-2.73-6.85-9.63-10.78-16.61-10.04,5.48,.82,10.39,4.44,12.58,9.96,3.29,8.25-.74,17.6-8.99,20.89-1.41,.56-2.84,.9-4.28,1.05,2.72,.41,5.57,.12,8.31-.97,8.25-3.29,12.28-12.64,8.99-20.89Z"/>
  <path class="cls-1" d="M42.48,30.06c-2.74-6.87-9.66-10.81-16.67-10.08,5.5,.82,10.42,4.46,12.63,9.99,3.3,8.28-.74,17.67-9.02,20.96-1.41,.56-2.85,.91-4.29,1.06,2.73,.41,5.59,.12,8.34-.97,8.28-3.3,12.32-12.68,9.02-20.96Z"/>
  <path class="cls-1" d="M33.41,30.04c-2.74-6.88-9.68-10.84-16.71-10.1,5.51,.82,10.45,4.47,12.66,10.01,3.3,8.3-.74,17.7-9.04,21.01-1.41,.56-2.86,.91-4.3,1.06,2.73,.41,5.6,.12,8.35-.97,8.3-3.3,12.35-12.71,9.04-21.01Z"/>
  <path class="cls-1" d="M25.17,30.02c-2.73-6.86-9.66-10.81-16.66-10.07,5.49,.82,10.42,4.45,12.62,9.98,3.3,8.27-.74,17.65-9.02,20.95-1.41,.56-2.85,.91-4.29,1.06,2.72,.41,5.59,.12,8.33-.97,8.27-3.3,12.31-12.67,9.02-20.95Z"/>
</svg>