<?xml version="1.0" encoding="UTF-8"?>
<svg id="Themed_shapes" data-name="Themed shapes" xmlns="http://www.w3.org/2000/svg" viewBox="0 0 72 72">
  <defs>
    <style>
      .cls-1 {
        fill: #fff;
      }
    </style>
  </defs>
  <path id="Antlers_001" class="cls-1" d="M65.04,25.93c-.29,.27-1.02,1.76-1.84,2.86-.59,.79-1.66,2.59-2.21,3.53-.21,.37-.38,.76-.52,1.17-.36,1.15-1.03,3.67-2.78,7.2-2.33,4.69-2.64,4.38-4.2,5.63-1.54,1.22-4.32,2.24-5.58,2.69-1.27,.45-5.14,2.2-6.4,2.89-.76,.42-1.48,1.35-1.94,2.02-.33,.48-.75,.76-1.3,.97-.61,.24-1.39,1.43-2.2,1.43-.98,0-1.51-1.15-2.14-1.44-.53-.25-1.2-.54-1.52-1.02-.45-.67-1.17-1.6-1.94-2.02-1.26-.69-5.13-2.44-6.39-2.89-1.27-.45-4.05-1.47-5.59-2.69-1.56-1.25-1.88-.94-4.2-5.63-1.74-3.53-2.41-6.05-2.78-7.2-.13-.41-.3-.8-.52-1.17-.55-.94-1.62-2.74-2.21-3.53-.81-1.11-1.55-2.59-1.83-2.86-.23-.21,1.1,.73,1.71,1.39,.58,.61,1.29,1.22,1.38,1.29-.05-.16-.72-2.01-.72-3.33,0-1.39,.61-3.63,1.75-4.9,1.11-1.23,4.11-4.45,4.3-4.65-.11,.18-.96,1.65-1.43,2.41-.44,.73-1.57,2.24-2.1,3.34-.53,1.1-1.14,2.98-.97,3.43,.15,.41,2.15-2.06,2.54-2.55,.04-.06,.09-.11,.14-.16l1.23-1.17s-.58,1.23-.84,1.79c-.15,.32-2.34,3.59-2.47,4.08-.12,.49,.17,1.99,.45,2.53,.29,.53,.9,1.79,1.39,3.18,.49,1.38,1.74,4.18,2.49,5.83,.52,1.14,1.12,2.36,1.55,3.02,.52,.81,1.3,1.06,1.3,1.06l-.52-4.04c-.03-.43,.04-.85,.21-1.23,.29-.64,.77-1.74,1.03-2.16,.41-.66,.76-1.62,1.28-2.41,.47-.72,1.18-1.1,1.34-1.34,.16-.24-.69,1.46-.86,1.96-.16,.49-1.75,3.57-1.55,5.12,.21,1.54,.29,2.85,.98,3.67,.69,.81,1.02,1.75,2.04,2.48,.45,.33,1.65,.9,2.83,1.43,1.05,.48,2.2-.28,2.27-1.44,0-.01,0-.02,0-.03,.08-1.06,.81-3.99,1.1-4.4,.29-.41,1.43-2.29,1.43-2.29,0,0-.51,2.3-.69,3.51-.13,.85-.41,3.47,.21,4.65,.61,1.18,1.67,2.69,2.28,3.01,.61,.32,1.88,.9,2.78,1.59,.09,.07,.19,.14,.28,.21,.57,.4,1.33,.41,1.9,0,.07-.05,.13-.1,.2-.15,.9-.69,2.16-1.27,2.78-1.59,.61-.32,1.67-1.83,2.28-3.01s.33-3.8,.21-4.65c-.18-1.2-.69-3.51-.69-3.51,0,0,1.14,1.88,1.43,2.29,.29,.41,1.02,3.34,1.1,4.4,0,.01,0,.02,0,.03,.07,1.15,1.21,1.91,2.27,1.44,1.18-.53,2.37-1.1,2.83-1.43,1.02-.73,1.35-1.67,2.04-2.48,.69-.82,.78-2.12,.98-3.67,.21-1.55-1.39-4.63-1.55-5.12-.16-.49-1.02-2.2-.86-1.96,.16,.24,.88,.63,1.34,1.34,.52,.79,.88,1.75,1.28,2.41,.27,.42,.75,1.52,1.03,2.16,.17,.38,.24,.81,.21,1.23l-.52,4.04s.78-.24,1.31-1.06c.42-.66,1.03-1.88,1.54-3.02,.76-1.65,2-4.44,2.49-5.83,.49-1.39,1.1-2.65,1.39-3.18,.29-.53,.57-2.04,.45-2.53-.13-.49-2.32-3.76-2.47-4.08-.27-.57-.83-1.79-.83-1.79l1.22,1.17c.05,.05,.1,.1,.14,.16,.39,.49,2.39,2.95,2.55,2.55,.16-.45-.45-2.33-.98-3.43-.53-1.1-1.66-2.61-2.1-3.34-.47-.77-1.31-2.23-1.43-2.41,.18,.2,3.19,3.43,4.3,4.65,1.14,1.26,1.75,3.51,1.75,4.9s-.67,3.18-.72,3.34c.09-.07,.8-.69,1.38-1.3,.61-.65,1.93-1.59,1.71-1.39Z"/>
</svg>