<?xml version="1.0" encoding="UTF-8"?>
<svg id="Themed_shapes" data-name="Themed shapes" xmlns="http://www.w3.org/2000/svg" viewBox="0 0 72 72">
  <defs>
    <style>
      .cls-1 {
        fill: #fff;
      }
    </style>
  </defs>
  <path id="Wings_002" class="cls-1" d="M35.98,54.46s26.51-26.61,27.12-27.33,2.52-4.27-.81-7.95c-1.06-1.01-2.11-1.6-3.63-1.6-1.66,0-2.93,.43-4.15,1.63-.17,.17-18.42,19.1-18.42,19.1,0,0-18.1-18.8-18.24-18.94-1.23-1.21-2.44-1.91-4.6-1.83-1.79-.05-3.28,1.18-3.66,1.63-2.76,2.53-1.92,6.47-.4,7.82m2.53-5.56s.04-.03,.06-.04c.5-.51,1.2-.82,1.97-.82,.7,0,1.33,.27,1.82,.7l20.5,21.14,20.4-21.04c.49-.43,1.12-.7,1.82-.7,.9,0,1.69,.44,2.2,1.1,.11,.15,.21,.3,.29,.47,.17,.36,.27,.76,.27,1.18,0,.31-.06,.61-.16,.88,0,.03-.1,.26-.14,.34-.05,.1-.32,.53-.38,.6,0,0-21.08,21.76-24.38,25.26-3.34-3.54-24.36-25.34-24.37-25.34-.91-1.01-.89-2.81,.1-3.75Z"/>
</svg>