<?xml version="1.0" encoding="UTF-8"?>
<svg id="Themed_shapes" data-name="Themed shapes" xmlns="http://www.w3.org/2000/svg" viewBox="0 0 72 72">
  <defs>
    <style>
      .cls-1 {
        fill: #fff;
      }
    </style>
  </defs>
  <path id="Wing_001" class="cls-1" d="M67.22,44.51h.09s.12-.09,.12-.09c.12-.1,.24-.2,.26-2.32l-.61-3.55-.02-.09s-.18-.39-.57-1.92c-.69-1.76-1.97-3.19-4.14-4.67-2.05-1.4-4.33-2.41-6.97-3.09-2.72-.69-11.43-2.81-11.55-2.84l-8.7-1.27c-5.78-1.97-13.1-4.38-15.11-4.62-1.65-.21-5.34-.88-8.6-1.47-4.17-.75-5.89-1.06-6.17-1.03l-.33,.07-.02,.29c-.04,.79,4.38,4.63,12.05,6.58-1.69-.16-3.78-.37-5.7-.57-4.56-.47-6.45-.65-6.74-.6l-.33,.09v.29c.01,.84,5.45,4.01,13.83,5.24,.09,.01,.17,.03,.27,.04-1.49-.08-3.02-.16-4.28-.01-.9,.1-2.33,.26-3.77,.4-3.24,.35-4.79,.51-5.01,.58l-.29,.11,.03,.28c.08,.79,8.48,2.41,13.46,2.94-3.52,.92-8.07,2.35-8.55,2.62l-.26,.18,.06,.25c.2,.8,6.07,1.79,8.19,1.79,.52,0,1.5-.11,2.96-.33-2.83,1.28-5.6,2.65-5.94,2.92l-.23,.21,.1,.25c.32,.76,6.26,.87,8.37,.56,.76-.11,2.52-.63,5.29-1.55-2.83,1.76-6.71,4.52-7.07,4.91l-.19,.24,.13,.22c.41,.64,5.82,.15,7.77-.46,.97-.3,3.61-1.67,6.61-3.3-1.96,1.71-4.36,4.05-4.58,4.39-.1,.15-.08,.35,.04,.49,.46,.54,3.62,.9,5.39,.08,.32-.15,.88-.52,1.71-1.13-1.02,1.34-1.99,2.72-2.09,2.97l-.08,.29,.19,.16c.44,.36,2.99,.09,4.4-.66-1.09,1.37-1.71,2.29-1.51,2.96,.06,.19,.21,.44,.61,.55,.8,.24,1.6,.07,2.52-.54-.08,.47-.04,.8,.12,1.04,.12,.2,.32,.33,.56,.36,.49,.07,1.21-.03,2.08-.72-.05,.41,0,.71,.14,.93,.13,.2,.32,.33,.57,.37,.58,.08,1.59-.03,2.88-1.48-.15,.91-.17,1.6,.11,1.98,.12,.17,.29,.27,.5,.3h.05c.34,.04,1.72,0,3.19-2.31-.11,.6-.12,1.12,.09,1.47,.13,.21,.32,.35,.57,.4,.62,.14,1.66-.03,2.78-2-.21,1.22-.27,2.41,.7,2.7,.28,.07,.7,.1,1.18-.19,.74-.46,1.36-1.5,1.85-3.12,.07,1.12,.25,2.12,1.05,2.19,.23,.02,.59-.03,.92-.38,.48-.49,.76-1.45,.86-2.85,.16,.53,.44,.96,1.02,1.09,.35,.07,.65-.02,.87-.25,.28-.3,.4-.87,.36-1.7,.08,.11,.17,.21,.29,.27,.16,.09,.35,.1,.54,.03,.29-.09,.49-.27,.6-.53,.1-.22,.17-.5,.12-1.02,.19,.35,.42,.59,.79,.58,.24,0,.45-.12,.59-.33,.37-.55,.24-1.74-.4-3.66Z"/>
</svg>