<?xml version="1.0" encoding="UTF-8"?>
<svg id="TEXT" xmlns="http://www.w3.org/2000/svg" viewBox="0 0 72 72">
  <defs>
    <style>
      .cls-1 {
        fill: #fff;
      }
    </style>
  </defs>
  <path class="cls-1" d="M33.09,11.12c-.25,.59-.69,.99-1.25,1.22-.49,.21-1.02,.35-1.54,.47-5.02,1.2-9.29,3.69-12.8,7.48-.03,.03-.05,.07-.14,.19,1.96-.98,3.84-1.47,5.64,.17-.11-.01-.21-.02-.32-.03-.4-.06-.74,.04-1.13,.2-1.39,.57-2.82,.77-4.25,.05-.06-.03-.11-.09-.23-.18-.66,.91-1.36,1.79-1.97,2.73-2.23,3.39-3.57,7.12-3.97,11.15-.59,5.94,.89,11.39,4.21,16.3,3.84,5.68,9.22,9.16,15.92,10.45,7.85,1.51,14.82-.58,20.85-5.71,4.58-3.89,7.27-8.94,8.21-14.86,1.14-7.15-.74-13.56-5.15-19.22-3.51-4.51-8.17-7.3-13.69-8.7-.81-.21-1.66-.36-2.29-1-.2-.2-.38-.42-.56-.63,.02-.02,.04-.05,.06-.07,.06,.02,.12,.04,.17,.08,.67,.5,1.43,.8,2.23,1,8.29,2.05,14.37,6.82,17.9,14.66,1.62,3.6,2.28,7.41,2.08,11.34-.57,11.55-8.74,21.15-20.1,23.51-13.44,2.79-26.7-5.54-29.77-19.1-3.08-13.55,5.08-26.75,18.59-30.2,.84-.21,1.65-.5,2.46-.8,.3-.11,.55-.33,.83-.5Z"/>
  <path class="cls-1" d="M51.61,62.29c-.1,0-.2,0-.3-.02-.87-.1-1.72,0-2.56,.24-1.47,.41-2.92,.45-4.28-.35-.21-.12-.35-.37-.52-.56,.21-.11,.4-.27,.62-.33,1.54-.4,3.11-.62,4.68-.2,.74,.2,1.42,.57,2.13,.88,.11,.05,.19,.16,.28,.25-.01,.03-.03,.06-.04,.09Z"/>
  <path class="cls-1" d="M20.36,62.16c.33-.19,.65-.4,.99-.57,2.12-1.05,4.28-.84,6.46-.22,.34,.1,.38,.28,.12,.52-.56,.51-1.25,.73-1.98,.83-.99,.13-1.94-.02-2.91-.27-.73-.19-1.52-.13-2.29-.18-.08,0-.16,.02-.24,.02-.03,0-.06-.02-.09-.03-.02-.03-.03-.07-.05-.1Z"/>
  <path class="cls-1" d="M61.23,21.18c-.01,.19-.01,.29-.02,.39-.1,.87,0,1.72,.24,2.56,.41,1.47,.45,2.92-.35,4.28-.12,.21-.37,.35-.56,.52-.11-.21-.27-.4-.32-.62-.4-1.54-.62-3.11-.2-4.68,.2-.74,.57-1.42,.88-2.13,.05-.11,.18-.18,.34-.33Z"/>
  <path class="cls-1" d="M10.42,21.22c.14,.23,.29,.45,.42,.69,.8,1.42,1.04,2.94,.82,4.54-.1,.73-.26,1.45-.43,2.16-.1,.41-.29,.45-.57,.13-.5-.58-.72-1.28-.8-2.03-.11-.97,.05-1.89,.29-2.84,.19-.72,.13-1.5,.17-2.26,0-.11-.02-.23-.03-.34,.04-.02,.08-.04,.12-.05Z"/>
  <path class="cls-1" d="M7.75,26.88c.65,.43,1.01,1.02,1.3,1.67,.7,1.58,1.16,3.22,1.1,4.96,0,.19-.11,.38-.17,.57-.23-.1-.51-.14-.67-.3-.71-.76-1.13-1.68-1.21-2.71-.05-.7,.03-1.4-.02-2.1-.04-.54-.19-1.08-.29-1.61-.03-.14-.03-.29-.05-.46Z"/>
  <path class="cls-1" d="M45.95,64.88c-.41-.1-.81-.23-1.22-.28-.48-.06-.98-.1-1.46-.07-1.51,.1-2.9-.17-4.08-1.16-.07-.06-.17-.12-.2-.2-.08-.19-.12-.38-.18-.58,.17-.05,.34-.14,.52-.15,1.97-.07,3.8,.48,5.53,1.37,.43,.22,.78,.6,1.17,.91l-.08,.15Z"/>
  <path class="cls-1" d="M63.82,26.93c-.1,.42-.23,.83-.29,1.25-.06,.46-.1,.93-.07,1.39,.11,1.52-.15,2.92-1.16,4.12-.06,.07-.12,.17-.2,.2-.19,.08-.38,.12-.58,.18-.05-.17-.14-.34-.15-.51-.07-1.97,.48-3.8,1.37-5.53,.22-.43,.6-.78,.91-1.17,.05,.02,.1,.05,.15,.07Z"/>
  <path class="cls-1" d="M26,64.89c.52-.8,1.24-1.16,1.99-1.47,1.5-.63,3.04-1.03,4.67-.97,.19,0,.37,.12,.56,.18-.09,.22-.13,.49-.29,.64-.62,.59-1.37,1.01-2.22,1.14-.69,.1-1.4,.1-2.1,.09-.58,0-1.14,.01-1.7,.19-.27,.09-.56,.13-.92,.21Z"/>
  <path class="cls-1" d="M14.36,16.68c.07,.4,.18,.8,.2,1.21,.05,1.52,.09,3.05-.41,4.52-.15,.44-.35,.87-.58,1.28-.19,.36-.42,.35-.61-.02-.15-.28-.28-.58-.34-.88-.32-1.5,.01-2.84,.92-4.08,.29-.4,.37-.96,.54-1.45,.07-.2,.11-.4,.17-.6,.04,0,.08,.02,.11,.02Z"/>
  <path class="cls-1" d="M57.26,16.61c.07,.23,.16,.41,.18,.61,.05,.58,.24,1.1,.59,1.58,1.07,1.46,1.33,3.04,.61,4.74-.04,.09-.08,.17-.14,.24-.17,.21-.36,.25-.49-.02-.21-.42-.46-.83-.59-1.27-.57-1.85-.58-3.73-.28-5.63,0-.05,.02-.09,.03-.14,0-.02,.03-.03,.1-.11Z"/>
  <path class="cls-1" d="M15.82,58.24c.38-.07,.76-.17,1.14-.19,1.66-.08,3.31-.08,4.9,.5,.35,.13,.68,.31,1.01,.5,.32,.18,.32,.39,0,.57-.28,.16-.59,.29-.91,.36-1.5,.32-2.86,.02-4.07-.93-.42-.33-.92-.48-1.45-.54-.21-.02-.41-.1-.61-.16,0-.04,.01-.07,.02-.11Z"/>
  <path class="cls-1" d="M56.23,58.34c-.19,.06-.37,.15-.57,.16-.58,.05-1.1,.24-1.58,.59-1.46,1.07-3.04,1.33-4.74,.61-.07-.03-.15-.07-.21-.12-.26-.2-.27-.38,.02-.53,.42-.23,.85-.46,1.3-.6,1.69-.51,3.41-.56,5.14-.31,.2,.03,.41,.05,.61,.08l.02,.11Z"/>
  <path class="cls-1" d="M46.84,54.39c.05,.28,.1,.56,.14,.85,.2,1.54-.28,2.83-1.52,3.77-.49,.37-1.04,.66-1.59,.94-.41,.2-.61,.03-.46-.41,.17-.52,.38-1.03,.66-1.5,.45-.75,1.05-1.36,1.74-1.91,.43-.35,.73-.84,.88-1.41,.03-.11,.05-.22,.08-.33,.03,0,.06,0,.08,0Z"/>
  <path class="cls-1" d="M18.12,26.04c-.46,.26-.95,.54-1.43,.83-.12,.08-.22,.2-.31,.32-.82,1.01-1.81,1.8-3.04,2.24-.04,.02-.09,.04-.13,.04-.19,0-.38-.01-.57-.02,.02-.19-.01-.39,.06-.55,.66-1.51,1.66-2.68,3.37-2.98,.71-.13,1.44-.06,2.06,.13Z"/>
  <path class="cls-1" d="M53.32,26.04c.28-.05,.57-.1,.85-.14,1.54-.2,2.83,.28,3.77,1.52,.36,.48,.64,1.03,.92,1.56,.07,.12,.09,.36,.01,.44-.08,.09-.31,.11-.44,.06-.5-.2-1.01-.39-1.46-.66-.75-.45-1.36-1.05-1.91-1.74-.35-.43-.84-.73-1.41-.88-.11-.03-.22-.05-.33-.08,0-.03,0-.06,0-.08Z"/>
  <path class="cls-1" d="M25.18,54.47c.26,.46,.54,.95,.83,1.43,.08,.12,.2,.22,.32,.31,1.01,.82,1.81,1.8,2.23,3.05,.07,.21,.02,.46,.02,.7-.22-.03-.46-.02-.65-.11-1.46-.67-2.59-1.66-2.88-3.33-.12-.71-.06-1.44,.13-2.06Z"/>
  <path class="cls-1" d="M10.94,42.92c-.97,.29-1.58-.27-2.17-.85-.63-.61-1.09-1.36-1.32-2.2-.15-.55-.49-.88-.96-1.13-.1-.05-.15-.17-.23-.26,.1-.03,.22-.11,.31-.08,.43,.13,.9,.23,1.27,.46,1.22,.76,2.21,1.77,2.87,3.06,.16,.31,.38,.63,.23,1.01Z"/>
  <path class="cls-1" d="M65.44,38.33c.15,.07,.24,.12,.34,.16-.07,.08-.12,.2-.21,.24-.52,.24-.82,.62-1.01,1.18-.41,1.25-1.13,2.28-2.32,2.92-.33,.18-.69,.25-1.03,.1-.09-.04-.18-.27-.14-.38,.12-.35,.27-.7,.46-1.02,.65-1.1,1.54-1.98,2.61-2.65,.4-.25,.87-.38,1.3-.56Z"/>
  <path class="cls-1" d="M34.27,7.44c-.17,.41-.29,.88-.54,1.28-.74,1.18-1.71,2.13-2.95,2.8-.16,.09-.33,.19-.51,.23-.18,.04-.48,.11-.55,.02-.12-.15-.15-.42-.12-.62,.1-.63,.48-1.11,.93-1.54,.63-.61,1.36-1.09,2.21-1.32,.55-.15,.88-.49,1.13-.97,.05-.09,.17-.15,.26-.22,.04,.09,.07,.18,.14,.34Z"/>
  <path class="cls-1" d="M41.96,11.21c0,.62-.16,.76-.68,.55-1.11-.45-2-1.19-2.78-2.09-.49-.57-.92-1.18-1.11-1.92-.04-.16-.05-.32-.06-.48,0-.05,.06-.14,.1-.15,.05,0,.13,.04,.17,.08,.05,.06,.08,.14,.11,.22,.23,.43,.54,.72,1.03,.87,1.29,.41,2.36,1.13,3.02,2.36,.1,.19,.15,.41,.2,.56Z"/>
  <path class="cls-1" d="M22.62,10.12c.29,.58,.26,1.14,.16,1.65-.3,1.61-.95,3.04-2.34,4.01-.13,.09-.36,.19-.45,.14-.14-.09-.26-.3-.27-.47-.07-.76,.12-1.48,.54-2.1,.38-.56,.84-1.1,1.33-1.56,.48-.45,.89-.92,1.02-1.66Z"/>
  <path class="cls-1" d="M48.92,10.17c.11,.87,.74,1.34,1.32,1.87,.79,.72,1.34,1.59,1.52,2.66,.04,.22,.08,.45,.04,.66-.03,.2-.13,.43-.27,.55-.08,.06-.36-.07-.5-.17-1.62-1.26-2.34-2.95-2.31-4.98,0-.19,.07-.38,.11-.57,.03,0,.06-.01,.09-.02Z"/>
  <path class="cls-1" d="M62.68,49.93c-.73,.18-1.21,.65-1.67,1.19-.76,.9-1.7,1.54-2.89,1.72-.3,.05-.63,.03-.93-.04-.32-.07-.36-.28-.17-.55,.83-1.21,2.01-1.9,3.39-2.28,.7-.2,1.4-.27,2.11-.1,.05,.01,.1,.04,.16,.06Z"/>
  <path class="cls-1" d="M9.36,49.83c.52-.01,1.05-.11,1.55-.02,1.62,.29,3.04,.97,4.05,2.35,.27,.36,.16,.69-.32,.7-.47,0-.96-.06-1.41-.2-.91-.28-1.64-.85-2.24-1.58-.44-.54-.93-.98-1.66-1.1,0-.05,.02-.11,.03-.16Z"/>
  <path class="cls-1" d="M54.12,13.36c.04,.18,.06,.27,.08,.36,.09,.52,.2,1.03,.66,1.39,.13,.1,.22,.27,.3,.43,.45,.84,.73,1.73,.77,2.68,.02,.58-.18,1.13-.51,1.61-.15,.21-.28,.19-.38-.03-.67-1.44-1.26-2.91-1.37-4.51-.05-.63,0-1.27,.46-1.92Z"/>
  <path class="cls-1" d="M59.47,55.17c-.42,.12-.78,.21-1.13,.32-.14,.05-.27,.14-.38,.24-1.31,1.07-2.75,1.57-4.42,1.01-.23-.08-.41-.28-.62-.42,.19-.13,.37-.3,.57-.39,1.25-.56,2.53-1.05,3.91-1.18,.64-.06,1.28-.04,1.87,.27,.06,.03,.1,.08,.19,.15Z"/>
  <path class="cls-1" d="M12.58,55.09c.28-.11,.56-.28,.85-.32,.95-.14,1.9,0,2.8,.29,.89,.29,1.75,.65,2.62,1,.35,.14,.35,.26,.04,.46-.74,.48-1.54,.57-2.39,.36-.73-.18-1.46-.36-2.07-.83-.35-.27-.63-.62-1.1-.71-.24-.04-.48-.09-.71-.14-.01-.04-.02-.08-.04-.12Z"/>
  <path class="cls-1" d="M17.5,13.41c.12,.31,.28,.6,.33,.9,.14,.95,0,1.9-.3,2.8-.29,.88-.65,1.73-.99,2.59-.04,.1-.14,.18-.21,.27-.09-.08-.21-.14-.27-.24-.33-.54-.52-1.12-.44-1.77,.14-1.02,.35-2.04,1.05-2.82,.39-.44,.59-.91,.67-1.46,0-.06,.02-.11,.04-.17,0-.02,.03-.03,.13-.09Z"/>
  <path class="cls-1" d="M43.28,8.11c.1,.06,.25,.09,.3,.17,.34,.58,.9,.92,1.45,1.23,1.36,.78,1.74,2.04,1.84,3.46,.02,.33-.12,.41-.4,.23-1.4-.86-2.49-1.99-2.93-3.63-.13-.47-.23-.94-.34-1.42,.03-.02,.05-.04,.08-.06Z"/>
  <path class="cls-1" d="M28.22,8.1c-.16,2.26-1.2,3.94-3.09,5.07-.11,.07-.26,.08-.39,.11-.03-.13-.09-.26-.09-.38,.02-.97,.36-1.84,.89-2.63,.14-.2,.38-.35,.59-.5,.44-.31,.89-.59,1.32-.91,.16-.12,.27-.32,.42-.47,.1-.11,.23-.2,.35-.29Z"/>
  <path class="cls-1" d="M64.78,44.3c-.08,.14-.1,.29-.19,.34-.59,.35-.93,.92-1.25,1.48-.78,1.35-2.05,1.73-3.47,1.81-.28,.02-.38-.13-.22-.37,.72-1.12,1.54-2.13,2.82-2.66,.73-.3,1.46-.55,2.32-.61Z"/>
  <path class="cls-1" d="M7.24,44.37c2.27,.16,3.94,1.2,5.07,3.09,.07,.11,.07,.26,.11,.39-.12,.03-.23,.09-.35,.09-.98,0-1.86-.36-2.66-.89-.2-.14-.35-.38-.5-.59-.31-.44-.59-.89-.91-1.32-.12-.16-.32-.27-.47-.42-.11-.1-.19-.23-.29-.35Z"/>
  <path class="cls-1" d="M16.34,29.99c-.14,.09-.28,.19-.43,.26-.49,.22-.83,.59-1.06,1.07-.56,1.17-1.38,2.11-2.48,2.8-.05,.03-.1,.08-.15,.09-.21,.02-.43,.03-.64,.04,0-.19-.06-.39-.02-.57,.5-2,2.1-3.37,3.75-3.76,.32-.07,.67-.01,1-.01,0,.03,.02,.05,.03,.08Z"/>
  <path class="cls-1" d="M29.14,56.26c.09,.14,.19,.28,.26,.44,.21,.48,.58,.82,1.04,1.04,1.14,.55,2.08,1.34,2.77,2.42,.02,.03,.05,.06,.06,.09,.05,.25,.09,.51,.13,.77-.22,0-.46,.07-.66,.01-1.89-.57-3.14-1.8-3.67-3.71-.09-.31-.01-.67-.01-1,.03-.01,.06-.03,.09-.04Z"/>
  <path class="cls-1" d="M42.95,56.21c.11,.66,.06,1.22-.19,1.75-.75,1.6-1.92,2.69-3.67,3.1-.46,.11-.59-.03-.47-.49,.04-.16,.14-.32,.23-.46,.6-.95,1.41-1.69,2.41-2.2,.65-.33,1.2-.72,1.47-1.42,.03-.08,.11-.14,.22-.28Z"/>
  <path class="cls-1" d="M55.23,29.85c.41,.03,.86-.02,1.23,.11,1.85,.65,3.08,1.9,3.54,3.85,.1,.43-.03,.55-.45,.45-.18-.04-.35-.14-.5-.24-.96-.61-1.71-1.43-2.22-2.44-.32-.64-.71-1.17-1.4-1.44-.09-.03-.15-.12-.23-.19,0-.04,.02-.07,.03-.11Z"/>
  <path class="cls-1" d="M51.03,22.63c1.78-.83,4.34-.23,5.51,1.21,.11,.14,.21,.28,.29,.44,.22,.39,.12,.59-.33,.57-1.48-.05-2.81-.48-3.86-1.6-.35-.37-.75-.58-1.26-.58-.12,0-.24-.03-.36-.04Z"/>
  <path class="cls-1" d="M50.24,52.11c.35,.74,.43,1.49,.37,2.27-.11,1.28-.59,2.38-1.57,3.24-.13,.11-.28,.21-.43,.3-.39,.22-.59,.13-.58-.32,.05-1.47,.47-2.8,1.57-3.83,.4-.38,.62-.8,.61-1.35,0-.1,.03-.2,.04-.3Z"/>
  <path class="cls-1" d="M21.75,52.02c.04,.17,.08,.26,.07,.36-.02,.58,.22,1.02,.64,1.41,1.07,1.02,1.48,2.33,1.54,3.78,.02,.47-.18,.58-.59,.34-1.12-.68-1.68-1.74-1.92-2.98-.18-.91-.11-1.82,.15-2.71,.01-.04,.04-.07,.11-.19Z"/>
  <path class="cls-1" d="M20.59,22.59c-.17,.05-.25,.09-.33,.09-.62-.04-1.08,.25-1.5,.68-1.01,1.04-2.31,1.44-3.72,1.49-.47,.02-.58-.18-.34-.58,.7-1.14,1.77-1.7,3.05-1.94,.88-.16,1.75-.1,2.61,.15,.05,.02,.1,.04,.24,.1Z"/>
  <path class="cls-1" d="M6.12,32.85c.67,.04,1.17,.32,1.61,.71,1.06,.94,1.7,2.13,2.04,3.49,.06,.22-.03,.48-.05,.73-.25-.06-.54-.06-.74-.2-1.12-.76-1.87-1.8-2.13-3.14-.1-.49-.24-.92-.56-1.29-.06-.07-.1-.17-.17-.3Z"/>
  <path class="cls-1" d="M65.88,32.77c-.03,.15-.02,.19-.04,.21-.48,.52-.57,1.2-.76,1.85-.34,1.16-1.03,2.09-2.05,2.76-.2,.13-.49,.13-.74,.19-.02-.23-.1-.49-.04-.7,.42-1.58,1.15-2.97,2.57-3.88,.29-.19,.65-.27,1.06-.42Z"/>
  <path class="cls-1" d="M36.98,16.71c-.02-.81,.25-1.48,.75-2.07,.74-.88,1.66-1.42,2.81-1.58,.13-.02,.26-.05,.38-.02,.2,.04,.54,.11,.55,.19,.03,.21-.04,.49-.18,.66-.76,.98-1.84,1.47-3.01,1.73-.54,.12-.89,.35-1.1,.85-.04,.09-.13,.16-.2,.24Z"/>
  <path class="cls-1" d="M34.53,16.71c-.07-.11-.17-.2-.22-.32-.19-.41-.47-.64-.94-.74-1.2-.25-2.3-.72-3.09-1.72-.14-.17-.18-.43-.24-.66-.01-.04,.14-.17,.21-.18,.32-.02,.65-.04,.97,0,1.63,.26,3.22,1.7,3.4,3.42,0,.04,0,.09,0,.14-.03,.02-.06,.03-.09,.05Z"/>
  <path class="cls-1" d="M15.86,38.06c-.1,.07-.2,.17-.31,.22-.43,.19-.65,.49-.75,.97-.25,1.2-.74,2.3-1.73,3.09-.17,.14-.44,.17-.66,.22-.04,0-.16-.15-.16-.23-.01-.35-.05-.71,.03-1.04,.38-1.61,1.34-2.72,2.95-3.23,.18-.06,.39-.06,.58-.09,.02,.03,.04,.07,.06,.1Z"/>
  <path class="cls-1" d="M56.17,38.05c.83-.03,1.52,.27,2.12,.78,.85,.73,1.38,1.64,1.53,2.76,.02,.14,.05,.28,.02,.42-.04,.19-.11,.51-.18,.52-.22,.02-.49-.04-.67-.17-.98-.76-1.48-1.83-1.73-3.01-.12-.54-.34-.9-.84-1.1-.09-.04-.16-.13-.24-.2Z"/>
  <path class="cls-1" d="M52.33,49.56c.11,.17,.2,.35,.32,.51,.69,.9,.8,1.93,.54,2.97-.18,.73-.52,1.42-.8,2.12-.04,.1-.15,.16-.23,.24-.07-.08-.17-.15-.21-.25-.29-.67-.49-1.37-.37-2.11,.07-.46,.15-.92,.23-1.38,.02-.14,.05-.29,.13-.4,.38-.5,.46-1.05,.25-1.66l.15-.03Z"/>
  <path class="cls-1" d="M17.53,46.11c-.3,.43-.28,.88-.15,1.35,.27,1.04,.29,2.08-.05,3.12-.05,.14-.08,.3-.17,.42-.26,.38-.46,.6-.84,.03-1.15-1.73-.33-4.06,1.2-4.92Z"/>
  <path class="cls-1" d="M54.5,46.1c.93,.59,1.49,1.42,1.69,2.5,.17,.94-.06,1.76-.57,2.53-.22,.33-.37,.34-.62,.03-.13-.16-.22-.36-.29-.55-.35-1.05-.33-2.12-.06-3.18,.12-.46,.13-.9-.15-1.32Z"/>
  <path class="cls-1" d="M19.81,49.55c-.02,.19-.04,.33-.06,.46-.04,.35,0,.66,.21,.99,.2,.31,.27,.72,.35,1.09,.22,1.02,.27,2.04-.22,3.02-.05,.11-.15,.19-.23,.28-.09-.09-.19-.17-.25-.27-.66-1.18-1.04-2.43-.82-3.8,.08-.47,.66-1.54,1.02-1.78Z"/>
  <path class="cls-1" d="M48.5,20.67c.83-1.43,4.69-1.36,5.87,.07-.08,.06-.15,.14-.24,.17-.42,.14-.84,.35-1.27,.37-1.06,.06-2.12,0-3.08-.57-.19-.11-.47-.11-.71-.12-.17,0-.34,.04-.57,.07Z"/>
  <path class="cls-1" d="M44.98,18.46c.27-.56,.66-.91,1.07-1.18,1.21-.79,2.69-.94,3.99-.04,.35,.25,.37,.4,.03,.67-.15,.12-.34,.2-.53,.26-1.05,.35-2.12,.33-3.18,.05-.46-.12-.9-.13-1.37,.23Z"/>
  <path class="cls-1" d="M26.56,18.47c-.51-.39-.98-.34-1.47-.22-1.03,.27-2.06,.26-3.08-.07-.12-.04-.26-.07-.35-.15-.15-.13-.36-.28-.39-.44-.02-.11,.2-.31,.34-.41,1.6-1.08,3.75-.46,4.82,1.02,.04,.05,.06,.11,.14,.27Z"/>
  <path class="cls-1" d="M41.02,17.16c.57-1.03,1.23-1.85,2.25-2.3,.82-.37,1.67-.28,2.51-.08,.3,.07,.32,.21,.1,.43-.63,.65-1.41,1.08-2.22,1.44-.15,.07-.34,.06-.52,.06-.64,0-1.29-.02-1.84,.42-.05,.04-.14,.02-.28,.03Z"/>
  <path class="cls-1" d="M16.33,42.08c-.06,.18-.06,.3-.12,.37-.3,.36-.38,.8-.35,1.22,.06,.78-.17,1.45-.6,2.07-.29,.42-.62,.82-.93,1.22-.19,.24-.34,.14-.4-.08-.27-1.1-.31-2.18,.41-3.15,.5-.68,1.13-1.21,2-1.64Z"/>
  <path class="cls-1" d="M30.51,17.19c-.17-.05-.28-.05-.34-.1-.36-.31-.82-.4-1.25-.37-.78,.06-1.45-.18-2.07-.61-.42-.29-.82-.62-1.22-.93-.25-.19-.12-.34,.09-.4,1.1-.27,2.18-.31,3.15,.41,.68,.5,1.21,1.13,1.64,1.99Z"/>
  <path class="cls-1" d="M55.76,42.11c1,.54,1.83,1.22,2.28,2.27,.35,.81,.26,1.65,.05,2.48-.07,.28-.2,.3-.41,.1-.65-.63-1.09-1.4-1.44-2.22-.08-.19-.07-.43-.07-.65,0-.6-.01-1.19-.41-1.7-.03-.03-.04-.08-.05-.13,0-.03,.02-.06,.05-.15Z"/>
  <path class="cls-1" d="M16.24,34.24c-.75,.2-.86,.91-1.23,1.41-.56,.76-1.22,1.41-2.04,1.9-.1,.06-.21,.1-.32,.14-.33,.11-.46,.02-.46-.33,0-.07,0-.14,.02-.21,.34-1.62,1.83-3.31,4.04-2.92Z"/>
  <path class="cls-1" d="M55.81,34.18c.99-.13,1.89,.08,2.65,.72,.63,.53,1.07,1.2,1.3,2,.04,.13,.06,.27,.07,.41,.02,.41-.13,.53-.51,.36-.31-.14-.61-.31-.87-.52-.76-.64-1.5-1.31-1.87-2.28-.05-.14-.21-.24-.34-.34-.13-.1-.28-.17-.41-.26-.01,0-.01-.04-.02-.09Z"/>
</svg>