<?xml version="1.0" encoding="UTF-8"?>
<svg id="Hearldry" xmlns="http://www.w3.org/2000/svg" viewBox="0 0 72 72">
  <defs>
    <style>
      .cls-1 {
        fill: #fff;
      }
    </style>
  </defs>
  <path class="cls-1" d="M36.54,14.39c-15.85,0-28.7,10.01-28.7,22.37s12.85,22.37,28.7,22.37,28.7-10.01,28.7-22.37-12.85-22.37-28.7-22.37Zm-5.66,39.61c-12.3,0-22.27-7.77-22.27-17.36s9.97-17.36,22.27-17.36,22.27,7.77,22.27,17.36-9.97,17.36-22.27,17.36Z"/>
  <path class="cls-1" d="M24.26,25.43c-8.01,0-14.5,5.06-14.5,11.3s6.49,11.3,14.5,11.3,14.5-5.06,14.5-11.3-6.49-11.3-14.5-11.3Zm-3.6,18.92c-5.54,0-10.03-3.5-10.03-7.82s4.49-7.82,10.03-7.82,10.03,3.5,10.03,7.82-4.49,7.82-10.03,7.82Z"/>
</svg>