<?xml version="1.0" encoding="UTF-8"?>
<svg id="Abstract_Shapes" data-name="Abstract Shapes" xmlns="http://www.w3.org/2000/svg" viewBox="0 0 72 72">
  <defs>
    <style>
      .cls-1 {
        fill: #fff;
      }
    </style>
  </defs>
  <g id="Cog_001">
    <path class="cls-1" d="M36,12.59c-12.93,0-23.41,10.48-23.41,23.41s10.48,23.41,23.41,23.41,23.41-10.48,23.41-23.41-10.48-23.41-23.41-23.41Zm2.13,41.83l-2.21-3.73-2.23,3.7c-8.44-1.05-15.12-7.76-16.11-16.22l3.56-2.11-3.57-2.15c.96-8.54,7.7-15.31,16.22-16.32l2.13,3.59,2.17-3.61c8.54,.96,15.32,7.72,16.32,16.26l-3.76,2.23,3.74,2.25c-1.06,8.45-7.78,15.13-16.26,16.1Z"/>
    <circle class="cls-1" cx="36" cy="35.94" r="7.29" transform="translate(-7.3 9.23) rotate(-13.28)"/>
  </g>
</svg>