<?xml version="1.0" encoding="UTF-8"?>
<svg id="Abstract_Shapes" data-name="Abstract Shapes" xmlns="http://www.w3.org/2000/svg" viewBox="0 0 72 72">
  <defs>
    <style>
      .cls-1 {
        fill: none;
        stroke: #fff;
        stroke-linecap: round;
        stroke-miterlimit: 10;
        stroke-width: 4px;
      }
    </style>
  </defs>
  <path id="Spiral_001" class="cls-1" d="M61.97,33.36c-.04,20.25-17.52,25.6-27.02,25.91-16.79,.55-24.92-12-24.92-25.25S20.8,13.01,33.28,12.71c10.89-.26,21.15,8.76,21.15,20.1s-8.3,18.66-19.27,18.88c-12.48,.25-17.59-9.53-17.56-16.9,.04-8.91,6.98-15.06,15.81-15.06s13.55,7.29,13.55,13.47-6.28,11.36-11.96,11.26-10.44-3.42-10.33-9.57c-.04-4.71,3.92-8.39,8.61-8.39,3.26,0,6.53,2.91,6.53,6.44s-2.87,5.04-5.15,5.04c-2.06,0-4.91-1.82-2.87-4.42"/>
</svg>