<?xml version="1.0" encoding="UTF-8"?>
<svg id="Hearldry" xmlns="http://www.w3.org/2000/svg" viewBox="0 0 72 72">
  <defs>
    <style>
      .cls-1 {
        fill: #fff;
      }
    </style>
  </defs>
  <polygon class="cls-1" points="25.41 29.55 25.44 29.55 25.44 47.16 29.63 47.16 29.63 29.55 42.43 29.55 42.43 46.84 46.62 46.84 46.62 25.35 42.43 25.35 42.43 25.35 25.41 25.35 25.41 29.55"/>
  <polygon class="cls-1" points="36.81 30.7 36.81 48.17 36.81 52.37 41 52.37 51.89 52.37 51.89 52.34 52.21 52.34 52.21 41.93 52.22 41.93 52.22 23.94 52.22 20.26 52.22 19.75 42.42 19.76 42.42 23.96 48.02 23.94 48.02 30.68 48.01 30.68 48.01 48.17 41 48.17 41 30.7 36.81 30.7"/>
  <polygon class="cls-1" points="31.08 52.39 35.27 52.39 35.27 48.2 35.27 30.72 31.08 30.72 31.08 48.2 24.07 48.2 24.07 30.7 24.06 30.7 24.06 23.97 29.56 23.97 29.56 19.77 19.86 19.77 19.86 20.29 19.86 23.97 19.86 41.95 19.87 41.95 19.87 52.37 20.19 52.37 20.19 52.39 31.08 52.39"/>
  <polygon class="cls-1" points="18.56 18.54 28.15 18.54 28.15 18.53 30.99 18.53 30.99 23.99 35.18 23.99 35.18 14.33 34.67 14.33 30.99 14.33 16.89 14.33 16.89 14.35 14.39 14.35 14.39 14.67 14.37 14.67 14.37 53.45 14.37 57.64 18.56 57.64 35.33 57.64 35.33 53.45 18.56 53.45 18.56 18.54"/>
  <polygon class="cls-1" points="57.61 14.69 57.61 14.37 55.11 14.37 55.11 14.36 41.01 14.36 37.33 14.36 36.82 14.36 36.82 24.01 41.01 24.01 41.01 18.55 43.85 18.55 43.85 18.56 53.44 18.56 53.44 53.47 36.67 53.47 36.67 57.67 53.44 57.67 57.63 57.67 57.63 53.47 57.63 14.69 57.61 14.69"/>
</svg>