<svg id="Layer_1" data-name="Layer 1" xmlns="http://www.w3.org/2000/svg" viewBox="0 0 24 24"><defs><style>.cls-1{fill:none;}.cls-2{fill:#fff;}</style></defs><g id="classic_ArrowDown"><g id="Group_170151" data-name="Group 170151"><rect id="Rectangle_626160" data-name="Rectangle 626160" class="cls-1" x="2.88" y="2.88" width="18.24" height="18.24"/><g id="Path_76025" data-name="Path 76025"><path class="cls-1" d="M9,5.92l3.19,5.4,3.21-5.4h1.51l-3.88,6.4,3.88,6.22H15.36l-3.18-5.23L9,18.54H7.44l3.91-6.18L7.44,5.92Z"/><path class="cls-2" d="M7.44,5.92l3.9,6.44-3.9,6.18H9l3.23-5.23,3.18,5.23h1.58l-3.88-6.22,3.88-6.4H15.43l-3.21,5.4L9,5.92H7.44M6.09,5.16H9.46l2.76,4.67L15,5.16h3.29L14,12.32l4.36,7H14.93l-2.75-4.54L9.38,19.3H6.06l4.39-7Z"/></g></g></g></svg>