<svg id="Layer_1" data-name="Layer 1" xmlns="http://www.w3.org/2000/svg" viewBox="0 0 24 24"><defs><style>.cls-1{fill:none;}.cls-2{fill:#fff;}</style></defs><g id="classic_ArrowDown"><g id="Group_170128" data-name="Group 170128"><rect id="Rectangle_626137" data-name="Rectangle 626137" class="cls-1" x="2.88" y="2.88" width="18.24" height="18.24"/><g id="Path_76002" data-name="Path 76002"><path class="cls-1" d="M6.68,18.54,10.15,5.92h3.06l3.47,12.62H15.29l-.91-3.25H9l-.91,3.25ZM11.2,7.12,9.29,14h4.78L12.15,7.12Z"/><path class="cls-2" d="M16.68,18.54,13.21,5.92H10.15L6.68,18.54H8.07L9,15.29h5.4l.91,3.25h1.39M11.2,7.12h1L14.07,14H9.29L11.2,7.12M17.67,19.3h-3l-.91-3.25H9.55L8.64,19.3h-3L9.57,5.16h4.22Zm-7.38-6h2.78l-1.39-5Z"/></g></g></g></svg>