<svg id="Layer_1" data-name="Layer 1" xmlns="http://www.w3.org/2000/svg" viewBox="0 0 24 24"><defs><style>.cls-1{fill:none;}.cls-2{fill:#fff;}</style></defs><g id="classic_ArrowDown"><g id="Group_170162" data-name="Group 170162"><rect id="Rectangle_626171" data-name="Rectangle 626171" class="cls-1" x="2.88" y="2.88" width="18.24" height="18.24"/><g id="Path_76036" data-name="Path 76036"><path class="cls-1" d="M8.78,6.71a5.53,5.53,0,0,1,3.15-.79,5.65,5.65,0,0,1,3.18.79,2.65,2.65,0,0,1,1.18,2.35,2.76,2.76,0,0,1-.46,1.72,4,4,0,0,1-1.55,1.09A4.4,4.4,0,0,1,15.92,13a2.86,2.86,0,0,1,.55,1.87c0,2.3-1.51,3.45-4.51,3.45s-4.52-1.08-4.52-3.25a3.27,3.27,0,0,1,.5-2,4.81,4.81,0,0,1,1.58-1.25,3.85,3.85,0,0,1-1.43-1.13A2.9,2.9,0,0,1,7.64,9,2.66,2.66,0,0,1,8.78,6.71Zm.15,8.15c0,1.47,1,2.2,3,2.2s3-.77,3-2.31a1.76,1.76,0,0,0-.53-1.43,4.42,4.42,0,0,0-1.6-.78H10.92a3.16,3.16,0,0,0-1.49.81,2.12,2.12,0,0,0-.49,1.51Zm5.86-5.64c0-1.35-.95-2-2.83-2s-2.83.67-2.83,2a1.94,1.94,0,0,0,.44,1.3,3.3,3.3,0,0,0,1.35.82h1.92a3.58,3.58,0,0,0,1.47-.8,1.78,1.78,0,0,0,.48-1.3Z"/><path class="cls-2" d="M11.93,5.92a5.44,5.44,0,0,0-3.15.79A2.66,2.66,0,0,0,7.64,9a2.86,2.86,0,0,0,.45,1.7,3.79,3.79,0,0,0,1.43,1.13,4.79,4.79,0,0,0-1.58,1.25,3.31,3.31,0,0,0-.5,2q0,3.26,4.52,3.25c3,0,4.51-1.15,4.51-3.45A2.86,2.86,0,0,0,15.92,13a4.33,4.33,0,0,0-1.64-1.15,3.93,3.93,0,0,0,1.55-1.09,2.73,2.73,0,0,0,.46-1.72,2.64,2.64,0,0,0-1.18-2.35,5.59,5.59,0,0,0-3.18-.79m.91,5.4H10.92a3.35,3.35,0,0,1-1.35-.82,1.89,1.89,0,0,1-.43-1.3c0-1.33.94-2,2.82-2s2.83.67,2.83,2a1.78,1.78,0,0,1-.48,1.3,3.61,3.61,0,0,1-1.47.8M12,17.06c-2,0-3-.73-3-2.2a2.15,2.15,0,0,1,.49-1.51,3.07,3.07,0,0,1,1.49-.81h1.92a4.33,4.33,0,0,1,1.6.78A1.81,1.81,0,0,1,15,14.75c0,1.54-1,2.31-3,2.31m0-11.9a6.42,6.42,0,0,1,3.61.92,3.45,3.45,0,0,1,1.51,3,3.47,3.47,0,0,1-.62,2.18,3.19,3.19,0,0,1-.64.63,4.23,4.23,0,0,1,.72.67,3.59,3.59,0,0,1,.72,2.35,3.76,3.76,0,0,1-1.43,3.19,6.12,6.12,0,0,1-3.84,1,6.45,6.45,0,0,1-3.83-1,3.55,3.55,0,0,1-1.45-3.06,3.93,3.93,0,0,1,.65-2.42,4.25,4.25,0,0,1,.79-.8,3.24,3.24,0,0,1-.65-.69A3.61,3.61,0,0,1,6.88,9,3.44,3.44,0,0,1,8.35,6.09,6.15,6.15,0,0,1,11.93,5.16Zm.79,5.4a2.68,2.68,0,0,0,1-.58A1,1,0,0,0,14,9.22C14,8.81,14,8,12,8S9.9,8.8,9.9,9.2a1.15,1.15,0,0,0,.24.79,2.51,2.51,0,0,0,.92.57Zm0,2.74H11a2.17,2.17,0,0,0-1,.57,1.44,1.44,0,0,0-.29,1c0,.47,0,1.44,2.26,1.44s2.25-1.05,2.25-1.55a1.12,1.12,0,0,0-.27-.86A3.58,3.58,0,0,0,12.73,13.3Z"/></g></g></g></svg>