<svg id="Layer_1" data-name="Layer 1" xmlns="http://www.w3.org/2000/svg" viewBox="0 0 24 24"><defs><style>.cls-1{fill:none;}.cls-2{fill:#fff;}</style></defs><g id="classic_ArrowDown"><g id="Group_170157" data-name="Group 170157"><rect id="Rectangle_626166" data-name="Rectangle 626166" class="cls-1" x="2.88" y="2.88" width="18.24" height="18.24"/><g id="Path_76031" data-name="Path 76031"><path class="cls-1" d="M8.38,6.43a12.73,12.73,0,0,1,3.68-.51,4.38,4.38,0,0,1,2.83.75,3,3,0,0,1,.88,2.39,2.44,2.44,0,0,1-.23,1.22q-.22.38-.36.57a1.85,1.85,0,0,1-.36.38,4.83,4.83,0,0,1-.64.44l-.2.13a3.62,3.62,0,0,1,1.57,1,3,3,0,0,1,.51,1.94,3.63,3.63,0,0,1-.94,2.74,4.22,4.22,0,0,1-3,.89A17.5,17.5,0,0,1,8.77,18l-.57-.13.13-1.15a18.19,18.19,0,0,0,3.68.4c1.74,0,2.61-.79,2.61-2.33s-.83-2.2-2.48-2.27H9.71V11.3h2.43a2.21,2.21,0,0,0,1.48-.61,2,2,0,0,0,.71-1.61,1.73,1.73,0,0,0-.57-1.45,3.09,3.09,0,0,0-1.9-.45A14.72,14.72,0,0,0,9,7.46l-.47.09Z"/><path class="cls-2" d="M12.06,5.92a12.89,12.89,0,0,0-3.68.51l.13,1.11L9,7.45a15.46,15.46,0,0,1,2.89-.27,3.07,3.07,0,0,1,1.89.45,1.72,1.72,0,0,1,.57,1.45,2,2,0,0,1-.71,1.61,2.25,2.25,0,0,1-1.48.61H9.71v1.2h2.43c1.65.07,2.48.82,2.48,2.27S13.75,17.09,12,17.1a18.28,18.28,0,0,1-3.68-.4L8.2,17.85l.57.13a17.17,17.17,0,0,0,3.39.36,4.19,4.19,0,0,0,3-.89,3.61,3.61,0,0,0,.94-2.74,3,3,0,0,0-.51-1.94,3.65,3.65,0,0,0-1.57-1l.2-.12a7,7,0,0,0,.64-.44,1.64,1.64,0,0,0,.36-.39q.13-.19.36-.57a2.43,2.43,0,0,0,.23-1.21,3,3,0,0,0-.88-2.39,4.32,4.32,0,0,0-2.83-.75m0-.76a5,5,0,0,1,3.33.93,3.71,3.71,0,0,1,1.14,3,3.09,3.09,0,0,1-.34,1.61q-.24.39-.39.6a1.91,1.91,0,0,1-.35.41,3.61,3.61,0,0,1,.68.59,3.68,3.68,0,0,1,.69,2.44A4.35,4.35,0,0,1,15.65,18a4.94,4.94,0,0,1-3.49,1.1,18,18,0,0,1-3.55-.38h0l-1.23-.28.29-2.65.82.17a18.25,18.25,0,0,0,3.53.38,2.17,2.17,0,0,0,1.45-.4,1.48,1.48,0,0,0,.4-1.17c0-.75-.21-1.45-1.73-1.51H9V10.54h3.19a1.48,1.48,0,0,0,1-.43,1.25,1.25,0,0,0,.45-1,1,1,0,0,0-.28-.86,2.39,2.39,0,0,0-1.42-.28,14.71,14.71,0,0,0-2.74.26l-1.28.24-.3-2.56.62-.18A13.55,13.55,0,0,1,12.06,5.16Z"/></g></g></g></svg>