<svg id="Layer_1" data-name="Layer 1" xmlns="http://www.w3.org/2000/svg" viewBox="0 0 24 24"><defs><style>.cls-1{fill:none;}.cls-2{fill:#fff;}</style></defs><g id="classic_ArrowDown"><g id="Group_170137" data-name="Group 170137"><rect id="Rectangle_626146" data-name="Rectangle 626146" class="cls-1" x="2.88" y="2.88" width="18.24" height="18.24"/><g id="Path_76011" data-name="Path 76011"><path class="cls-1" d="M10.48,19.1V17.84a3,3,0,0,0,1.69-.32c.25-.22.37-.77.37-1.67V5.16h1.39l0,10.89a3.83,3.83,0,0,1-.52,2.24,2.19,2.19,0,0,1-1.65.75C11.34,19.08,10.91,19.1,10.48,19.1Z"/><path class="cls-2" d="M10.48,19.1a11.22,11.22,0,0,0,1.3-.06,2.23,2.23,0,0,0,1.65-.75A3.8,3.8,0,0,0,14,16.05l0-10.89H12.54V15.85c0,.9-.12,1.45-.37,1.67a2.92,2.92,0,0,1-1.69.32V19.1m0,.76H9.72V17.08h.76A3.44,3.44,0,0,0,11.65,17a2.94,2.94,0,0,0,.13-1.1V4.4h2.91l0,11.65a4.61,4.61,0,0,1-.65,2.68,3,3,0,0,1-2.2,1.07h0A12.8,12.8,0,0,1,10.48,19.86Z"/></g></g></g></svg>