<svg id="Layer_1" data-name="Layer 1" xmlns="http://www.w3.org/2000/svg" viewBox="0 0 24 24"><defs><style>.cls-1{fill:none;}.cls-2{fill:#fff;}</style></defs><g id="classic_ArrowDown"><g id="Group_170129" data-name="Group 170129"><rect id="Rectangle_626138" data-name="Rectangle 626138" class="cls-1" x="2.88" y="2.88" width="18.24" height="18.24"/><g id="Path_76003" data-name="Path 76003"><path class="cls-1" d="M7.44,5.92H12a4.43,4.43,0,0,1,2.82.77,3,3,0,0,1,.94,2.44A3.61,3.61,0,0,1,15.37,11a2.89,2.89,0,0,1-1.22,1,2.84,2.84,0,0,1,2,3,3.33,3.33,0,0,1-1,2.72,4.49,4.49,0,0,1-2.9.82H7.44Zm4.67,6.82H8.85V17.3H12.2a3,3,0,0,0,1.89-.52A2.23,2.23,0,0,0,14.74,15a2.37,2.37,0,0,0-.27-1.17,1.52,1.52,0,0,0-.7-.67A4,4,0,0,0,12.11,12.74ZM12,7.16H8.85v4.36h3.24A2.32,2.32,0,0,0,13.8,11a2.31,2.31,0,0,0,.53-1.68,2,2,0,0,0-.57-1.62A2.69,2.69,0,0,0,12,7.16Z"/><path class="cls-2" d="M7.44,5.92V18.54h4.82a4.47,4.47,0,0,0,2.9-.82,3.35,3.35,0,0,0,1-2.72,2.83,2.83,0,0,0-2-3,2.88,2.88,0,0,0,1.22-1,3.55,3.55,0,0,0,.41-1.85,3,3,0,0,0-.94-2.44A4.41,4.41,0,0,0,12,5.92H7.44m4.65,5.6H8.84V7.16H12a2.71,2.71,0,0,1,1.8.5,2.07,2.07,0,0,1,.57,1.62A2.32,2.32,0,0,1,13.8,11a2.3,2.3,0,0,1-1.71.56m.11,5.78H8.84V12.74h3.27a3.89,3.89,0,0,1,1.66.37,1.46,1.46,0,0,1,.7.67A2.35,2.35,0,0,1,14.74,15a2.24,2.24,0,0,1-.65,1.83,2.94,2.94,0,0,1-1.89.52M6.68,5.16H12a5.07,5.07,0,0,1,3.3,1,3.69,3.69,0,0,1,1.22,3A4.23,4.23,0,0,1,16,11.38a3.33,3.33,0,0,1-.43.56A3.66,3.66,0,0,1,16.92,15a4.06,4.06,0,0,1-1.28,3.31,5.23,5.23,0,0,1-3.38,1H6.68Zm5.41,5.6a1.7,1.7,0,0,0,1.16-.33,1.61,1.61,0,0,0,.32-1.15,1.39,1.39,0,0,0-.31-1A2.09,2.09,0,0,0,12,7.92H9.6v2.84Zm.11,5.78a2.28,2.28,0,0,0,1.41-.35A1.69,1.69,0,0,0,14,15a1.67,1.67,0,0,0-.17-.8.76.76,0,0,0-.36-.35,3.12,3.12,0,0,0-1.34-.3H9.6v3Z"/></g></g></g></svg>