<svg id="Layer_1" data-name="Layer 1" xmlns="http://www.w3.org/2000/svg" viewBox="0 0 24 24"><defs><style>.cls-1{fill:none;}.cls-2{fill:#fff;}</style></defs><g id="classic_ArrowDown"><g id="Group_170127" data-name="Group 170127"><rect id="Rectangle_626098" data-name="Rectangle 626098" class="cls-1" x="2.88" y="2.88" width="18.24" height="18.24"/><path id="Path_75966" data-name="Path 75966" class="cls-2" d="M11.2,17.08c2.2,0,3.3-1.4,3.32-4.19a9.17,9.17,0,0,1-3.14.69q-3.95,0-3.94-3.67A3.86,3.86,0,0,1,8.57,7a4.22,4.22,0,0,1,3-1.08A3.67,3.67,0,0,1,14.9,7.55,8.75,8.75,0,0,1,16,12.35a6.94,6.94,0,0,1-1.22,4.57,4.41,4.41,0,0,1-3.56,1.4,15.76,15.76,0,0,1-2.83-.26L7.9,18,8,16.86A24.28,24.28,0,0,0,11.2,17.08Zm.29-4.74a8,8,0,0,0,2.57-.49l.48-.17q-.06-4.51-2.92-4.52a2.61,2.61,0,0,0-2,.74,2.75,2.75,0,0,0-.72,2C8.9,11.53,9.76,12.34,11.49,12.34Z"/></g></g></svg>