<svg id="Layer_1" data-name="Layer 1" xmlns="http://www.w3.org/2000/svg" viewBox="0 0 24 24"><defs><style>.cls-1{fill:none;}.cls-2{fill:#f7f4f1;}</style></defs><g id="classic_ArrowDown"><g id="Group_170106" data-name="Group 170106"><rect id="Rectangle_626077" data-name="Rectangle 626077" class="cls-1" x="2.88" y="2.88" width="18.24" height="18.24"/><path id="Path_75987" data-name="Path 75987" class="cls-2" d="M8.12,11.71a8,8,0,0,0,.73,4,3,3,0,0,0,2.81,1.22,3,3,0,0,0,2.82-1.19,8.1,8.1,0,0,0,.72-4,8.49,8.49,0,0,0-.75-4.07,3,3,0,0,0-2.8-1.28A3,3,0,0,0,8.86,7.67,8.37,8.37,0,0,0,8.12,11.71Zm8.54,0a8.59,8.59,0,0,1-1.08,4.89c-.72,1-2,1.52-3.91,1.52s-3.2-.52-3.91-1.55a8.69,8.69,0,0,1-1.08-4.88A8.89,8.89,0,0,1,7.77,6.78c.73-1.08,2-1.62,3.89-1.62s3.16.54,3.89,1.61A8.85,8.85,0,0,1,16.66,11.74Z"/></g></g></svg>