<svg id="Layer_1" data-name="Layer 1" xmlns="http://www.w3.org/2000/svg" viewBox="0 0 24 24"><defs><style>.cls-1{fill:none;}.cls-2{fill:#f7f4f1;}</style></defs><g id="classic_ArrowDown"><g id="Group_170110" data-name="Group 170110"><rect id="Rectangle_626081" data-name="Rectangle 626081" class="cls-1" x="2.88" y="2.88" width="18.24" height="18.24"/><path id="Path_75983" data-name="Path 75983" class="cls-2" d="M12.36,6.4c-1.83,0-2.74.69-2.74,2.06A1.8,1.8,0,0,0,10.25,10a8.5,8.5,0,0,0,2.56.86A6.4,6.4,0,0,1,15.54,12a2.84,2.84,0,0,1,.8,2.25q0,3.89-4,3.89A23.3,23.3,0,0,1,9,17.84l-.66-.09.15-1.17a34,34,0,0,0,3.77.33c1.8,0,2.7-.85,2.7-2.54a1.72,1.72,0,0,0-.6-1.47,5.76,5.76,0,0,0-2.21-.76,7.4,7.4,0,0,1-3-1.17A3,3,0,0,1,8.2,8.55q0-3.39,4.07-3.39a22.76,22.76,0,0,1,3.19.27l.62.09L16,6.71A33.22,33.22,0,0,0,12.36,6.4Z"/></g></g></svg>