<svg id="Layer_1" data-name="Layer 1" xmlns="http://www.w3.org/2000/svg" viewBox="0 0 24 24"><defs><style>.cls-1{fill:none;}.cls-2{fill:#fff;}</style></defs><g id="classic_ArrowDown"><g id="Group_170120" data-name="Group 170120"><rect id="Rectangle_626091" data-name="Rectangle 626091" class="cls-1" x="2.88" y="2.88" width="18.24" height="18.24"/><path id="Path_75973" data-name="Path 75973" class="cls-2" d="M15.9,18.14H8.2V17l3.52-3.71c.61-.63,1-1.11,1.33-1.44a5.59,5.59,0,0,0,.76-1.17,3,3,0,0,0,.34-1.35,2,2,0,0,0-.64-1.64,3.33,3.33,0,0,0-2-.47,12.46,12.46,0,0,0-2.65.31l-.47.09L8.29,6.41a13,13,0,0,1,3.57-.49,4.25,4.25,0,0,1,2.78.78,3,3,0,0,1,.94,2.45A4.25,4.25,0,0,1,15,11.38a12.13,12.13,0,0,1-1.95,2.28L9.86,16.92h6Z"/></g></g></svg>