<svg id="Layer_1" data-name="Layer 1" xmlns="http://www.w3.org/2000/svg" viewBox="0 0 24 24"><defs><style>.cls-1{fill:none;}.cls-2{fill:#fff;}</style></defs><g id="classic_ArrowDown"><g id="Group_170118" data-name="Group 170118"><rect id="Rectangle_626089" data-name="Rectangle 626089" class="cls-1" x="2.88" y="2.88" width="18.24" height="18.24"/><path id="Path_75975" data-name="Path 75975" class="cls-2" d="M11.82,5.92a4.65,4.65,0,0,1,2.42.57c1.32.77,2,2.72,2,5.83,0,2.2-.36,3.76-1.09,4.66a4,4,0,0,1-3.28,1.36A4,4,0,0,1,8.54,17c-.73-.89-1.1-2.49-1.1-4.78S7.8,8.31,8.53,7.35A3.85,3.85,0,0,1,11.82,5.92Zm0,1.26a2.71,2.71,0,0,0-1.64.44c-.87.59-1.3,2.17-1.3,4.72a7,7,0,0,0,.71,3.73,2.51,2.51,0,0,0,2.23,1,2.49,2.49,0,0,0,2.22-1,7.29,7.29,0,0,0,.71-3.86,8,8,0,0,0-.68-3.92A2.44,2.44,0,0,0,11.84,7.18Z"/></g></g></svg>