<svg id="Layer_1" data-name="Layer 1" xmlns="http://www.w3.org/2000/svg" viewBox="0 0 24 24"><defs><style>.cls-1{fill:none;}.cls-2{fill:#f7f4f1;}</style></defs><g id="classic_ArrowDown"><g id="Group_170126" data-name="Group 170126"><rect id="Rectangle_626097" data-name="Rectangle 626097" class="cls-1" x="2.88" y="2.88" width="18.24" height="18.24"/><path id="Path_75967" data-name="Path 75967" class="cls-2" d="M8.78,6.71a5.53,5.53,0,0,1,3.15-.79,5.65,5.65,0,0,1,3.18.79,2.65,2.65,0,0,1,1.18,2.35,2.76,2.76,0,0,1-.46,1.72,4,4,0,0,1-1.55,1.09A4.4,4.4,0,0,1,15.92,13a2.86,2.86,0,0,1,.55,1.87c0,2.3-1.51,3.45-4.51,3.45s-4.52-1.08-4.52-3.25a3.27,3.27,0,0,1,.5-2,4.81,4.81,0,0,1,1.58-1.25,3.85,3.85,0,0,1-1.43-1.13A2.9,2.9,0,0,1,7.64,9,2.66,2.66,0,0,1,8.78,6.71Zm.15,8.15c0,1.47,1,2.2,3,2.2s3-.77,3-2.31a1.76,1.76,0,0,0-.53-1.43,4.42,4.42,0,0,0-1.6-.78H10.92a3.16,3.16,0,0,0-1.49.81,2.12,2.12,0,0,0-.49,1.51Zm5.86-5.64c0-1.35-.95-2-2.83-2s-2.83.67-2.83,2a1.94,1.94,0,0,0,.44,1.3,3.3,3.3,0,0,0,1.35.82h1.92a3.58,3.58,0,0,0,1.47-.8,1.78,1.78,0,0,0,.48-1.3Z"/></g></g></svg>