<svg id="Layer_1" data-name="Layer 1" xmlns="http://www.w3.org/2000/svg" viewBox="0 0 24 24"><defs><style>.cls-1{fill:none;}.cls-2{fill:#fff;}</style></defs><g id="classic_ArrowDown"><g id="Group_170093" data-name="Group 170093"><rect id="Rectangle_626064" data-name="Rectangle 626064" class="cls-1" x="2.88" y="2.88" width="18.24" height="18.24"/><path id="Path_76000" data-name="Path 76000" class="cls-2" d="M7.44,5.92H12a4.43,4.43,0,0,1,2.82.77,3,3,0,0,1,.94,2.44A3.61,3.61,0,0,1,15.37,11a2.89,2.89,0,0,1-1.22,1,2.84,2.84,0,0,1,2,3,3.33,3.33,0,0,1-1,2.72,4.49,4.49,0,0,1-2.9.82H7.44Zm4.67,6.82H8.85V17.3H12.2a3,3,0,0,0,1.89-.52A2.23,2.23,0,0,0,14.74,15a2.37,2.37,0,0,0-.27-1.17,1.52,1.52,0,0,0-.7-.67A4,4,0,0,0,12.11,12.74ZM12,7.16H8.85v4.36h3.24A2.32,2.32,0,0,0,13.8,11a2.31,2.31,0,0,0,.53-1.68,2,2,0,0,0-.57-1.62A2.69,2.69,0,0,0,12,7.16Z"/></g></g></svg>