<svg id="Layer_1" data-name="Layer 1" xmlns="http://www.w3.org/2000/svg" viewBox="0 0 24 24"><defs><style>.cls-1{fill:none;}.cls-2{fill:#f7f4f1;}</style></defs><g id="classic_ArrowDown"><g id="Group_170121" data-name="Group 170121"><rect id="Rectangle_626092" data-name="Rectangle 626092" class="cls-1" x="2.88" y="2.88" width="18.24" height="18.24"/><path id="Path_75972" data-name="Path 75972" class="cls-2" d="M8.38,6.43a12.73,12.73,0,0,1,3.68-.51,4.38,4.38,0,0,1,2.83.75,3,3,0,0,1,.88,2.39,2.44,2.44,0,0,1-.23,1.22q-.22.38-.36.57a1.85,1.85,0,0,1-.36.38,4.83,4.83,0,0,1-.64.44l-.2.13a3.62,3.62,0,0,1,1.57,1,3,3,0,0,1,.51,1.94,3.63,3.63,0,0,1-.94,2.74,4.22,4.22,0,0,1-3,.89A17.5,17.5,0,0,1,8.77,18l-.57-.13.13-1.15a18.19,18.19,0,0,0,3.68.4c1.74,0,2.61-.79,2.61-2.33s-.83-2.2-2.48-2.27H9.71V11.3h2.43a2.21,2.21,0,0,0,1.48-.61,2,2,0,0,0,.71-1.61,1.73,1.73,0,0,0-.57-1.45,3.09,3.09,0,0,0-1.9-.45A14.72,14.72,0,0,0,9,7.46l-.47.09Z"/></g></g></svg>