<svg id="Layer_1" data-name="Layer 1" xmlns="http://www.w3.org/2000/svg" viewBox="0 0 24 24"><defs><style>.cls-1{fill:none;}.cls-2{fill:#f7f4f1;}</style></defs><g id="classic_ArrowDown"><g id="Group_170098" data-name="Group 170098"><rect id="Rectangle_626069" data-name="Rectangle 626069" class="cls-1" x="2.88" y="2.88" width="18.24" height="18.24"/><path id="Path_75995" data-name="Path 75995" class="cls-2" d="M13,12.77V11.5h3.48v6.21a22.56,22.56,0,0,1-4.1.44c-1.84,0-3.11-.53-3.82-1.59a8.92,8.92,0,0,1-1.07-4.9,9,9,0,0,1,1.07-4.9c.71-1.07,2-1.6,3.78-1.6a18.93,18.93,0,0,1,3.52.36l.62.11L16.38,6.8a24.66,24.66,0,0,0-3.92-.38A3,3,0,0,0,9.63,7.64a8.21,8.21,0,0,0-.73,4,8.19,8.19,0,0,0,.73,4,3,3,0,0,0,2.81,1.22,13.43,13.43,0,0,0,2.61-.26V12.77Z"/></g></g></svg>