<svg id="Layer_1" data-name="Layer 1" xmlns="http://www.w3.org/2000/svg" viewBox="0 0 24 24"><defs><style>.cls-1{fill:none;}.cls-2{fill:#f7f4f1;}</style></defs><g id="classic_ArrowDown"><g id="Group_170108" data-name="Group 170108"><rect id="Rectangle_626079" data-name="Rectangle 626079" class="cls-1" x="2.88" y="2.88" width="18.24" height="18.24"/><path id="Path_75985" data-name="Path 75985" class="cls-2" d="M11.66,17.39c-1.89,0-3.19-.52-3.9-1.55A8.69,8.69,0,0,1,6.68,11,8.89,8.89,0,0,1,7.77,6c.73-1.08,2-1.62,3.89-1.62s3.16.54,3.89,1.61A8.76,8.76,0,0,1,16.66,11a11.68,11.68,0,0,1-.48,3.71,3.63,3.63,0,0,1-1.62,2.07l1.55,2.5-1.31.62-1.61-2.63A6.09,6.09,0,0,1,11.66,17.39ZM8.12,11a8,8,0,0,0,.73,4,3,3,0,0,0,2.81,1.22A3,3,0,0,0,14.48,15a8,8,0,0,0,.72-4,8.44,8.44,0,0,0-.75-4.08,3,3,0,0,0-2.8-1.28A3,3,0,0,0,8.86,6.91,8.37,8.37,0,0,0,8.12,11Z"/></g></g></svg>