<svg id="Layer_1" data-name="Layer 1" xmlns="http://www.w3.org/2000/svg" viewBox="0 0 24 24"><defs><style>.cls-1{fill:none;}.cls-2{fill:#f7f4f1;}</style></defs><g id="classic_ArrowDown"><g id="Group_170124" data-name="Group 170124"><rect id="Rectangle_626095" data-name="Rectangle 626095" class="cls-1" x="2.88" y="2.88" width="18.24" height="18.24"/><path id="Path_75969" data-name="Path 75969" class="cls-2" d="M15.32,7.38a24.31,24.31,0,0,0-3.19-.22A2.83,2.83,0,0,0,9.74,8.24a4.88,4.88,0,0,0-.84,3.08l.46-.18a9.88,9.88,0,0,1,1.21-.35,6.09,6.09,0,0,1,1.34-.18c2.7,0,4.05,1.24,4.05,3.74a3.81,3.81,0,0,1-1.11,2.94,4.34,4.34,0,0,1-3.11,1q-4.31,0-4.3-6.25A7.22,7.22,0,0,1,8.67,7.42a4.26,4.26,0,0,1,3.48-1.5A17.64,17.64,0,0,1,15,6.14l.49.09Zm-3.5,4.49a5.63,5.63,0,0,0-1.36.17,9.6,9.6,0,0,0-1.16.34l-.42.18a7,7,0,0,0,.7,3.3,2.24,2.24,0,0,0,2.09,1.22,2.89,2.89,0,0,0,2.12-.7,2.67,2.67,0,0,0,.71-2,2.4,2.4,0,0,0-.7-1.9A2.85,2.85,0,0,0,11.82,11.87Z"/></g></g></svg>