<svg id="Layer_1" data-name="Layer 1" xmlns="http://www.w3.org/2000/svg" viewBox="0 0 24 24"><defs><style>.cls-1{fill:none;}.cls-2{fill:#f7f4f1;}</style></defs><g id="classic_ArrowDown"><g id="Group_170094" data-name="Group 170094"><rect id="Rectangle_626065" data-name="Rectangle 626065" class="cls-1" x="2.88" y="2.88" width="18.24" height="18.24"/><path id="Path_75999" data-name="Path 75999" class="cls-2" d="M16.3,17.76a17.42,17.42,0,0,1-3.38.39,6,6,0,0,1-2.41-.41,3.06,3.06,0,0,1-1.43-1.28,6.12,6.12,0,0,1-.69-2,17.49,17.49,0,0,1-.19-2.8,17.82,17.82,0,0,1,.19-2.82,6.23,6.23,0,0,1,.69-2A3,3,0,0,1,10.5,5.56a6,6,0,0,1,2.37-.4,17.27,17.27,0,0,1,3.43.4l-.06,1.19A18.06,18.06,0,0,0,13,6.42a2.74,2.74,0,0,0-2.65,1.19,9.2,9.2,0,0,0-.65,4.08A18,18,0,0,0,9.78,14a5.07,5.07,0,0,0,.46,1.57,2.09,2.09,0,0,0,1,1,5,5,0,0,0,2,.3,17.24,17.24,0,0,0,3-.33Z"/></g></g></svg>