<svg id="Layer_1" data-name="Layer 1" xmlns="http://www.w3.org/2000/svg" viewBox="0 0 24 24"><defs><style>.cls-1{fill:none;}.cls-2{fill:#fff;}</style></defs><g id="classic_ArrowDown"><g id="Group_169959" data-name="Group 169959"><rect id="Rectangle_626011-13" data-name="Rectangle 626011-13" class="cls-1" x="2.88" y="2.88" width="18.24" height="18.24"/><path id="Path_75822" data-name="Path 75822" class="cls-2" d="M3,18.84H6.12V8.3c0-.35.11-.53.38-.53s.4.16.47.51L8.58,16a3.31,3.31,0,0,0,3.45,3c1.93,0,3-1.26,3.34-3L17,8.28c.08-.35.19-.51.46-.51s.38.2.38.53V18.84H21V8.64c0-2.59-1.45-3.7-3.43-3.7-2.19,0-3.36,1.35-3.73,3.47l-1.47,7.46c-.05.29-.16.43-.36.43s-.31-.14-.37-.43L10.19,8.41C9.81,6.29,8.62,4.94,6.43,4.94,4.49,4.94,3,6,3,8.64Z"/></g></g></svg>