<svg id="Layer_1" data-name="Layer 1" xmlns="http://www.w3.org/2000/svg" viewBox="0 0 24 24"><defs><style>.cls-1{fill:none;}.cls-2{fill:#fff;}</style></defs><g id="classic_ArrowDown"><g id="Group_169982" data-name="Group 169982"><rect id="Rectangle_626011-36" data-name="Rectangle 626011-36" class="cls-1" x="2.88" y="2.88" width="18.24" height="18.24"/><path id="Path_75851" data-name="Path 75851" class="cls-2" d="M12.16,18.84,15,15.92c2.1-2.1,2.7-3.3,2.7-5.05V9.54c0-3.19-1.53-4.58-5.2-4.58H11.12C7.73,5,6.22,6.31,6.22,9.1v1.35c0,2.66,1.42,3.88,4.43,3.88H12a3.33,3.33,0,0,0,.89-.1,2.17,2.17,0,0,0-.36.32L8.33,18.84Zm.72-7.06H11c-1.15,0-1.55-.4-1.55-1.49V9c0-1,.38-1.51,1.49-1.51h1.81c1.22,0,1.68.49,1.68,1.75v.95C14.41,11.33,14,11.78,12.88,11.78Z"/></g></g></svg>