<svg id="Layer_1" data-name="Layer 1" xmlns="http://www.w3.org/2000/svg" viewBox="0 0 24 24"><defs><style>.cls-1{fill:none;}.cls-2{fill:#fff;}</style></defs><g id="classic_ArrowDown"><g id="Group_169979" data-name="Group 169979"><rect id="Rectangle_626011-33" data-name="Rectangle 626011-33" class="cls-1" x="2.88" y="2.88" width="18.24" height="18.24"/><path id="Path_75848" data-name="Path 75848" class="cls-2" d="M11.84,5.16,9,8.08c-2.1,2.1-2.7,3.3-2.7,5.05v1.33c0,3.19,1.53,4.58,5.2,4.58h1.37c3.39,0,4.9-1.35,4.9-4.14V13.55c0-2.66-1.42-3.88-4.43-3.88H12a3.33,3.33,0,0,0-.89.1,2.17,2.17,0,0,0,.36-.32l4.24-4.29Zm-.72,7.06H13c1.15,0,1.55.4,1.55,1.49V15c0,1-.38,1.51-1.49,1.51H11.27c-1.22,0-1.68-.49-1.68-1.75v-.95C9.59,12.67,10.05,12.22,11.12,12.22Z"/></g></g></svg>