<svg id="Layer_1" data-name="Layer 1" xmlns="http://www.w3.org/2000/svg" viewBox="0 0 24 24"><defs><style>.cls-1{fill:none;}.cls-2{fill:#fff;}</style></defs><g id="classic_ArrowDown"><g id="Group_169963" data-name="Group 169963"><rect id="Rectangle_626011-17" data-name="Rectangle 626011-17" class="cls-1" x="2.88" y="2.88" width="18.24" height="18.24"/><path id="Path_75826" data-name="Path 75826" class="cls-2" d="M13.15,20.31h3.37l-2.09-2.7c3-.62,4.36-2.83,4.36-5.89v-2c0-3.65-2-6.06-6.17-6.06H11.36c-4.21,0-6.15,2.41-6.15,6.06v2c0,3.57,1.88,6,6,6ZM8.67,12.08V9.29c0-2.1.74-2.94,2.59-2.94h1.47c1.86,0,2.61.84,2.61,2.94v2.79c0,2.13-.75,3-2.61,3H11.25c-1.84,0-2.59-.87-2.59-3Z"/></g></g></svg>