<svg id="Layer_1" data-name="Layer 1" xmlns="http://www.w3.org/2000/svg" viewBox="0 0 24 24"><defs><style>.cls-1{fill:none;}.cls-2{fill:#fff;}</style></defs><g id="classic_ArrowDown"><g id="Group_169969" data-name="Group 169969"><rect id="Rectangle_626011-23" data-name="Rectangle 626011-23" class="cls-1" x="-0.16" y="2.88" width="24.32" height="18.24"/><path id="Path_75832" data-name="Path 75832" class="cls-2" d="M5,5.16H1.71L3.57,15.81C3.9,17.76,4.92,19,7,19s3.06-1.22,3.37-3.17l1.24-7.7c0-.26.11-.38.33-.38s.28.13.31.38l1.21,7.68A3.32,3.32,0,0,0,17.07,19c1.95,0,2.95-1.12,3.28-3.1L22.29,5.16H19L17.38,15.79c0,.3-.11.48-.4.48s-.33-.15-.38-.46l-1.21-7.4c-.31-2.06-1.16-3.47-3.31-3.47S8.92,6.31,8.61,8.41L7.39,15.85c0,.25-.13.42-.35.42s-.35-.2-.4-.46Z"/></g></g></svg>