<svg id="Layer_1" data-name="Layer 1" xmlns="http://www.w3.org/2000/svg" viewBox="0 0 24 24"><defs><style>.cls-1{fill:none;}.cls-2{fill:#fff;}</style></defs><g id="classic_ArrowDown"><g id="Group_169960" data-name="Group 169960"><rect id="Rectangle_626011-14" data-name="Rectangle 626011-14" class="cls-1" x="2.88" y="2.88" width="18.24" height="18.24"/><path id="Path_75823" data-name="Path 75823" class="cls-2" d="M4.76,18.84H8V8.24c0-.29.1-.47.38-.47s.32.2.41.44L11.92,16c.74,1.95,1.81,3,3.89,3A3.29,3.29,0,0,0,19.25,16a3.2,3.2,0,0,0,0-.44V5.16H16V15.79c0,.3-.09.46-.34.46s-.35-.2-.44-.44L12.11,8c-.73-1.93-1.84-3.08-3.89-3.08A3.35,3.35,0,0,0,4.75,8.15c0,.13,0,.26,0,.38Z"/></g></g></svg>