<?xml version="1.0" encoding="UTF-8"?>
<svg id="RaceShapes" xmlns="http://www.w3.org/2000/svg" viewBox="0 0 72 72">
  <defs>
    <style>
      .cls-1 {
        fill: #fff;
      }
    </style>
  </defs>
  <path class="cls-1" d="M14.59,36.39s.26,.3-1.7,2.29c-1.96,2-7.8,4.7-7.8,4.7,0,0,7.49-2.8,21.49-4.71,14-1.9,40.38-2.55,40.38-2.55-.08,0-52.37,.27-52.37,.27Z"/>
  <path class="cls-1" d="M14.54,35.61s52.29,.27,52.37,.27c0,0-26.38-.65-40.38-2.55-14-1.9-21.49-4.71-21.49-4.71,0,0,5.84,2.7,7.8,4.7,1.96,2,1.7,2.29,1.7,2.29Z"/>
</svg>