<?xml version="1.0" encoding="UTF-8"?>
<svg id="RaceShapes" xmlns="http://www.w3.org/2000/svg" viewBox="0 0 72 72">
  <defs>
    <style>
      .cls-1 {
        fill: #fff;
      }
    </style>
  </defs>
  <path class="cls-1" d="M5.38,38.86c-.21-.1-.33-.16-.33-.16,0,0,.12,.06,.33,.16Z"/>
  <path class="cls-1" d="M5.49,33.14c-.22,.1-.33,.16-.33,.16,0,0,.12-.06,.33-.16Z"/>
  <path class="cls-1" d="M62.55,37.03c-.4-.35-.82-.71-1.29-1.08,.42-.33,.81-.66,1.17-.98,3.2-2.87,4.41-7.87,4.41-7.87,0,0-1.31,4.14-5.75,7.2-.35,.24-.72,.48-1.12,.73-3.52-2.33-9.53-4.88-22.88-7.88-13.97-2.4-22.24-.98-22.24-.98,0,0,.27,.3-1.73,2.34-1.72,1.75-6.34,4.02-7.62,4.63,1.99-.92,12.83-5.5,27.12-3.98,12.71,1.51,20.75,4.21,25.7,6.81-4.93,2.62-13.01,5.35-25.82,6.87-14.29,1.52-25.12-3.06-27.12-3.98,1.28,.61,5.9,2.89,7.62,4.63,2,2.04,1.73,2.34,1.73,2.34,0,0,8.27,1.42,22.24-.98,13.49-3.04,19.49-5.61,22.99-7.96,.45,.27,.86,.54,1.24,.8,4.44,3.06,5.75,7.2,5.75,7.2,0,0-1.21-5-4.41-7.87Z"/>
</svg>