<?xml version="1.0" encoding="UTF-8"?>
<svg id="RaceShapes" xmlns="http://www.w3.org/2000/svg" viewBox="0 0 72 72">
  <defs>
    <style>
      .cls-1 {
        fill: #fff;
      }
    </style>
  </defs>
  <g id="BarFade_001">
    <path class="cls-1" d="M62.6,42.56c.33,0,.64,0,.93,0,.23-.64,.77-1.13,1.45-1.27-.77-.27-1.33-1-1.33-1.86,0-.72,.39-1.34,.96-1.69-.56-.35-.93-.97-.93-1.67,0-.75,.42-1.4,1.04-1.74-.62-.34-1.05-.98-1.05-1.74,0-.9,.61-1.66,1.43-1.9-.62-.17-1.12-.64-1.34-1.24-.45,0-.94,0-1.5,0,.83,.1,1.48,.79,1.48,1.65,0,.81-.57,1.48-1.34,1.64,.78,.14,1.37,.82,1.37,1.64s-.57,1.48-1.34,1.64c.78,.14,1.37,.82,1.37,1.64s-.62,1.53-1.43,1.65c.81,.12,1.43,.81,1.43,1.65,0,.77-.52,1.41-1.23,1.6Z"/>
    <path class="cls-1" d="M66.06,41.36s0,0,.01,0c0,0,0,0,0,0,0,0,0,0-.01,0Z"/>
    <path class="cls-1" d="M50.86,42.48c0-.22,.18-.4,.4-.4s.4,.18,.4,.4c0,.03-.01,.06-.02,.08,.69,0,1.38,0,2.06,0,0-.05-.03-.1-.03-.15,0-.47,.38-.85,.85-.85s.85,.38,.85,.85c0,.05-.02,.1-.03,.15,.81,0,1.61,0,2.37,0,0-.01,0-.02,0-.03,0-.81,.66-1.47,1.47-1.47s1.47,.66,1.47,1.47c0,.01,0,.02,0,.03,.37,0,.72,0,1.06,0-.71-.2-1.23-.84-1.23-1.6,0-.84,.62-1.53,1.43-1.65-.81-.12-1.43-.81-1.43-1.65s.57-1.48,1.34-1.64c-.78-.14-1.37-.82-1.37-1.64s.57-1.48,1.34-1.64c-.78-.14-1.37-.82-1.37-1.64s.65-1.56,1.48-1.65c-.44,0-.91,0-1.41,0,.03,.11,.04,.22,.04,.34,0,.81-.66,1.47-1.47,1.47s-1.47-.66-1.47-1.47c0-.12,.02-.23,.04-.34-.75,0-1.53,0-2.32,0,0,.04,.02,.07,.02,.1,0,.47-.38,.85-.85,.85s-.85-.38-.85-.85c0-.04,.02-.07,.02-.1-.7,0-1.42,0-2.13,0,0,.03,.02,.05,.02,.08,0,.22-.18,.4-.4,.4s-.4-.18-.4-.4c0-.03,.01-.05,.02-.08-7.56,0-38.22,0-38.26,0-3.62,0-6.56,2.94-6.56,6.56s2.94,6.56,6.56,6.56c.05,0,30.78,0,38.38,0,0-.03-.02-.05-.02-.08Zm3.63-2.34c-.47,0-.85-.38-.85-.85s.38-.85,.85-.85,.85,.38,.85,.85-.38,.85-.85,.85Zm.02-3.11c-.47,0-.85-.38-.85-.85s.38-.85,.85-.85,.85,.38,.85,.85-.38,.85-.85,.85Zm2.02,4.89c-.61,0-1.1-.49-1.1-1.1s.49-1.1,1.1-1.1,1.1,.49,1.1,1.1-.49,1.1-1.1,1.1Zm-1.11-4.13c0-.61,.49-1.1,1.1-1.1s1.1,.49,1.1,1.1-.49,1.1-1.1,1.1-1.1-.49-1.1-1.1Zm5.25,1.55c0,.81-.66,1.47-1.47,1.47s-1.47-.66-1.47-1.47,.66-1.47,1.47-1.47,1.47,.66,1.47,1.47Zm-.06-3.25c0,.81-.66,1.47-1.47,1.47s-1.47-.66-1.47-1.47,.66-1.47,1.47-1.47,1.47,.66,1.47,1.47Zm-1.59-4.6c.81,0,1.47,.66,1.47,1.47s-.66,1.47-1.47,1.47-1.47-.66-1.47-1.47,.66-1.47,1.47-1.47Zm-2.52-1.29c.61,0,1.1,.49,1.1,1.1s-.49,1.1-1.1,1.1-1.1-.49-1.1-1.1,.49-1.1,1.1-1.1Zm-.07,3.28c.61,0,1.1,.49,1.1,1.1s-.49,1.1-1.1,1.1-1.1-.49-1.1-1.1,.49-1.1,1.1-1.1Zm-1.99-1.53c.47,0,.85,.38,.85,.85s-.38,.85-.85,.85-.85-.38-.85-.85,.38-.85,.85-.85Zm-1.64,9.44c-.33,0-.59-.27-.59-.59s.27-.59,.59-.59,.59,.27,.59,.59-.27,.59-.59,.59Zm-.04-3.19c-.33,0-.59-.27-.59-.59s.27-.59,.59-.59,.59,.27,.59,.59-.27,.59-.59,.59Zm-.05-3.11c-.33,0-.59-.27-.59-.59s.27-.59,.59-.59,.59,.27,.59,.59-.27,.59-.59,.59Zm-.12-4.55c.33,0,.59,.27,.59,.59s-.27,.59-.59,.59-.59-.27-.59-.59,.27-.59,.59-.59Zm-1.33,9.16c-.22,0-.4-.18-.4-.4s.18-.4,.4-.4,.4,.18,.4,.4-.18,.4-.4,.4Zm-.06-7.3c.22,0,.4,.18,.4,.4s-.18,.4-.4,.4-.4-.18-.4-.4,.18-.4,.4-.4Zm.03,3.33c.22,0,.4,.18,.4,.4s-.18,.4-.4,.4-.4-.18-.4-.4,.18-.4,.4-.4Z"/>
  </g>
</svg>