<?xml version="1.0" encoding="UTF-8"?>
<svg id="RaceShapes" xmlns="http://www.w3.org/2000/svg" viewBox="0 0 72 72">
  <defs>
    <style>
      .cls-1 {
        fill: #fff;
      }
    </style>
  </defs>
  <g id="Chicane_002">
    <path class="cls-1" d="M37.59,37.85l1.51-2.41h-.01l.26-.34c.63-.82,1.6-1.3,2.63-1.3l20.54,.03,1.48-2.36h-24.92c-1.97,0-3.81,1.01-4.86,2.69l-1.51,2.41h.01l-.26,.34c-.63,.82-1.6,1.3-2.63,1.3l-20.54-.03-1.48,2.36h24.92c1.97,0,3.81-1.01,4.86-2.69Z"/>
    <path class="cls-1" d="M32.51,33.77l1.51-2.41h-.01l.26-.34c.63-.82,1.6-1.3,2.63-1.3l20.54,.03,1.48-2.36h-24.92c-1.97,0-3.81,1.01-4.86,2.69l-1.51,2.41h.01l-.26,.34c-.63,.82-1.6,1.3-2.63,1.3l-20.54-.03-1.48,2.36H27.65c1.97,0,3.81-1.01,4.86-2.69Z"/>
    <path class="cls-1" d="M44.35,35.55c-1.97,0-3.81,1.01-4.86,2.69l-1.51,2.41h.01l-.26,.34c-.63,.82-1.6,1.3-2.63,1.3l-20.54-.03-1.48,2.36h24.92c1.97,0,3.81-1.01,4.86-2.69l1.51-2.41h-.01l.26-.34c.63-.82,1.6-1.3,2.63-1.3l20.54,.03,1.48-2.36h-24.92Z"/>
  </g>
</svg>