<?xml version="1.0" encoding="UTF-8"?>
<svg id="RaceShapes" xmlns="http://www.w3.org/2000/svg" viewBox="0 0 72 72">
  <defs>
    <style>
      .cls-1 {
        fill: #fff;
      }
    </style>
  </defs>
  <path id="Chicane_001" class="cls-1" d="M62.06,36.29l-1.28,1.67c-.72,.93-1.82,1.48-3,1.48l-20.69-.03,1.83-3.56h0s.03-.06,.03-.06l.28-.55s.01-.03,.02-.05l2.68-5.29H10.92c-2.25,0-4.34,1.16-5.53,3.06l-1.72,2.74h6.27l1.28-1.67c.72-.93,1.82-1.48,3-1.48l20.69,.03-1.83,3.56h0s-.03,.06-.03,.06l-.28,.55s-.01,.03-.02,.05l-2.68,5.29h31.02c2.25,0,4.34-1.16,5.53-3.06l1.72-2.74h-6.27Z"/>
</svg>