<?xml version="1.0" encoding="UTF-8"?>
<svg id="RaceShapes" xmlns="http://www.w3.org/2000/svg" viewBox="0 0 72 72">
  <defs>
    <style>
      .cls-1 {
        fill: #fff;
      }
    </style>
  </defs>
  <g id="CircleGap_001">
    <path class="cls-1" d="M66.18,37.06h-16.8c-1.27,0-2.38,.84-2.74,2.06-1.35,4.56-5.58,7.9-10.57,7.9h0c-4.98-.01-9.2-3.35-10.55-7.9-.36-1.22-1.47-2.06-2.74-2.06H5.82c.02,.33,0,2.05,0,2.49,.13,0,11.92,0,14.05,0,.94,0,1.75,.59,2.07,1.47,2.07,5.82,7.62,10.01,14.14,10.01h0c6.51-.01,12.06-4.19,14.12-10.01,.31-.88,1.13-1.48,2.07-1.47,2.13,0,13.76,0,13.89,0,0-.44-.01-2.16,0-2.49Z"/>
    <path class="cls-1" d="M22.81,34.94c1.27,0,2.38-.84,2.74-2.06,1.35-4.55,5.56-7.89,10.54-7.9,4.97,.03,9.17,3.35,10.51,7.9,.36,1.22,1.47,2.06,2.74,2.06h16.8c-.02-.33,0-2.05,0-2.49-.13,0-11.76,0-13.89,0-.94,0-1.75-.59-2.07-1.47-2.06-5.8-7.57-9.97-14.06-10h0s-.02,0-.03,0c-.02,0-.04,0-.06,0h0c-6.49,.04-12,4.21-14.06,10.01-.31,.88-1.13,1.48-2.07,1.47-2.13,0-13.92,0-14.05,0,0,.44,.01,2.16,0,2.49H22.81Z"/>
  </g>
</svg>