<?xml version="1.0" encoding="UTF-8"?>
<svg id="RaceShapes" xmlns="http://www.w3.org/2000/svg" viewBox="0 0 72 72">
  <defs>
    <style>
      .cls-1 {
        fill: #fff;
      }
    </style>
  </defs>
  <path class="cls-1" d="M52.61,34.58c-.22-3.55-1.23-6.89-2.86-9.84-3.98-7.37-11.78-12.38-20.75-12.38-3.45,0-6.72,.74-9.66,2.07,3.86,3.57,6.78,8.15,8.34,13.33,1.9-1.62,4.35-2.6,7.04-2.6,4.78,0,8.83,3.09,10.29,7.37,0,0,0,0,0,0,.3,1.11,.45,2.28,.45,3.49s-.18,2.45-.49,3.6c0,0,0,0,0,0-1.53,4.15-5.52,7.11-10.2,7.11-2.61,0-5-.93-6.88-2.47-1.42,5.21-4.21,9.85-7.95,13.51,2.53,1.07,5.29,1.71,8.19,1.83,14.07,.57,25.36-10.99,24.48-25.05Z"/>
</svg>