<?xml version="1.0" encoding="UTF-8"?>
<svg id="RaceShapes" xmlns="http://www.w3.org/2000/svg" viewBox="0 0 72 72">
  <defs>
    <style>
      .cls-1 {
        fill: #fff;
      }
    </style>
  </defs>
  <path id="FlatRing_001" class="cls-1" d="M65.38,31.44H21.87c-.09-.01-.16,0-.22,0H12.59c-1.68,0-3.25,.87-4.14,2.29l-2.94,4.88c-.52,.86,.1,1.95,1.1,1.95H50.13c.09,.01,.16,0,.22,0h9.05c1.68,0,3.25-.87,4.14-2.29l2.94-4.88c.52-.86-.1-1.95-1.1-1.95Zm-6.2,6.02c-.54,.7-1.37,1.11-2.24,1.1l-46.72-.03c.11-.27,2.6-3.99,2.6-3.99,.54-.7,1.37-1.11,2.24-1.1l46.72,.03c-.11,.27-2.6,3.99-2.6,3.99Z"/>
</svg>