<svg id="Layer_1" data-name="Layer 1" xmlns="http://www.w3.org/2000/svg" viewBox="0 0 24 24"><defs><style>.cls-1{fill:none;}.cls-2{fill:#fff;}</style></defs><g id="classic_ArrowDown"><g id="Group_169969" data-name="Group 169969"><rect id="Rectangle_626011-23" data-name="Rectangle 626011-23" class="cls-1" x="-0.16" y="2.88" width="24.32" height="18.24"/><g id="Path_75832" data-name="Path 75832"><path class="cls-2" d="M12.08,4.94c2.15,0,3,1.41,3.31,3.47l1.21,7.4c0,.31.16.46.38.46s.36-.18.4-.48L19,5.16h3.29L20.35,15.94C20,17.92,19,19,17.07,19a3.32,3.32,0,0,1-3.57-3.19L12.29,8.17c0-.25-.11-.38-.31-.38s-.29.12-.33.38l-1.24,7.7C10.1,17.82,9.12,19,7,19S3.9,17.76,3.57,15.81L1.71,5.16H5L6.64,15.81c.05.26.14.46.4.46s.31-.17.35-.42L8.61,8.41c.31-2.1,1.35-3.47,3.47-3.47m0-1C9.61,3.94,8,5.48,7.62,8.26L7,11.82,6,5l-.13-.85H.52L.73,5.33,2.59,16C3,18.6,4.61,20,7,20c1.7,0,3.83-.7,4.36-4L12,12.53,12.51,16a4.28,4.28,0,0,0,4.56,4c1.65,0,3.73-.69,4.27-3.94L23.27,5.34l.21-1.18H18.15L18,5,17,11.86l-.59-3.61C16,5.39,14.5,3.94,12.08,3.94Z"/></g></g></g></svg>