<svg id="Layer_1" data-name="Layer 1" xmlns="http://www.w3.org/2000/svg" viewBox="0 0 24 24"><defs><style>.cls-1{fill:none;}.cls-2{fill:#fff;}</style></defs><g id="classic_ArrowDown"><g id="Group_169975" data-name="Group 169975"><rect id="Rectangle_626011-29" data-name="Rectangle 626011-29" class="cls-1" x="2.88" y="2.88" width="18.24" height="18.24"/><g id="Path_75844" data-name="Path 75844"><path class="cls-2" d="M12.6,5.16c3.32,0,4.78,1.37,4.78,3.5S16.3,11.78,14,12.86l-2.88,1.38c-.82.38-1.06.75-1.06,1.37v.62h7.19v2.61H6.62V16.52c0-2.19.73-3.61,3.28-4.74l3-1.46c.85-.42,1.13-.76,1.13-1.42s-.57-1.13-1.7-1.13H6.87V5.16H12.6m0-1H5.87V8.77h6.51a1.78,1.78,0,0,1,.69.09s0,0,0,0c0,.17,0,.24-.57.52l-3,1.46c-2.69,1.19-3.85,2.88-3.85,5.64v3.32h12.6V15.23H11.34l.17-.08,2.89-1.39c2.38-1.1,4-2.39,4-5.1,0-1.35-.56-4.5-5.78-4.5Z"/></g></g></g></svg>