<svg id="Layer_1" data-name="Layer 1" xmlns="http://www.w3.org/2000/svg" viewBox="0 0 24 24"><defs><style>.cls-1{fill:none;}.cls-2{fill:#fff;}</style></defs><g id="classic_ArrowDown"><g id="Group_169967" data-name="Group 169967"><rect id="Rectangle_626011-21" data-name="Rectangle 626011-21" class="cls-1" x="2.88" y="2.88" width="18.24" height="18.24"/><g id="Path_75830" data-name="Path 75830"><path class="cls-2" d="M18.24,5.16v8.9c0,3.25-1.34,5-5.39,5H11.13c-3.84,0-5.38-1.77-5.38-5V5.16H9v9.21c0,1.41.56,2.06,2,2.06h2c1.35,0,2-.65,2-2.06V5.16h3.24m1-1H14V14.37c0,.92-.23,1.06-1,1.06H11c-.81,0-1-.12-1-1.06V4.16H4.75v9.9c0,4,2.15,6,6.38,6h1.72c4.3,0,6.39-2,6.39-6V4.16Z"/></g></g></g></svg>