<svg id="Layer_1" data-name="Layer 1" xmlns="http://www.w3.org/2000/svg" viewBox="0 0 24 24"><defs><style>.cls-1{fill:none;}.cls-2{fill:#fff;}</style></defs><g id="classic_ArrowDown"><g id="Group_169964" data-name="Group 169964"><rect id="Rectangle_626011-18" data-name="Rectangle 626011-18" class="cls-1" x="2.88" y="2.88" width="18.24" height="18.24"/><g id="Path_75827" data-name="Path 75827"><path class="cls-2" d="M13.33,5.16c3.36,0,5,1,5,3.67V10c0,2.22-1.32,3.28-4.09,3.46l4.16,5.42H14.61l-4.08-5.38H9.65v5.38H6.38V5.16h7M9.64,11h4.11c1,0,1.41-.44,1.41-1.28V9c0-.9-.41-1.3-1.43-1.3H9.64V11m3.69-6.84H5.38V19.84h5.27V15.28l3.16,4.16.3.4h6.36l-1.24-1.61L16.1,14.15A4,4,0,0,0,19.37,10V8.83c0-4.67-4.55-4.67-6-4.67ZM10.64,8.71h3.09a1.16,1.16,0,0,1,.4,0,.89.89,0,0,1,0,.25v.71a1,1,0,0,1,0,.24h0a1.48,1.48,0,0,1-.37,0H10.64V8.71Z"/></g></g></g></svg>