<svg id="Layer_1" data-name="Layer 1" xmlns="http://www.w3.org/2000/svg" viewBox="0 0 24 24"><defs><style>.cls-1{fill:none;}.cls-2{fill:#fff;}</style></defs><g id="classic_ArrowDown"><g id="Group_169960" data-name="Group 169960"><rect id="Rectangle_626011-14" data-name="Rectangle 626011-14" class="cls-1" x="2.88" y="2.88" width="18.24" height="18.24"/><g id="Path_75823" data-name="Path 75823"><path class="cls-2" d="M8.09,4.94h.13c2,0,3.16,1.15,3.89,3.08l3.1,7.79c.09.24.22.44.44.44s.34-.16.34-.46V5.16h3.25V15.51a3.2,3.2,0,0,1,0,.44A3.29,3.29,0,0,1,16,19.08h-.16c-2.08,0-3.15-1.1-3.89-3L8.8,8.21c-.09-.24-.2-.44-.41-.44S8,8,8,8.24v10.6H4.76V8.53c0-.12,0-.25,0-.38A3.34,3.34,0,0,1,8.09,4.94m0-1A4.33,4.33,0,0,0,3.75,8.11c0,.15,0,.31,0,.46V19.84H9V11.41l2,5c.58,1.57,1.73,3.68,4.81,3.68H16A4.28,4.28,0,0,0,20.25,16a3.25,3.25,0,0,0,0-.54V4.16H15v8.41L13,7.65c-.94-2.49-2.52-3.71-4.82-3.71Z"/></g></g></g></svg>