<svg id="Layer_1" data-name="Layer 1" xmlns="http://www.w3.org/2000/svg" viewBox="0 0 24 24"><defs><style>.cls-1{fill:none;}.cls-2{fill:#fff;}</style></defs><g id="classic_ArrowDown"><g id="Group_169981" data-name="Group 169981"><rect id="Rectangle_626011-35" data-name="Rectangle 626011-35" class="cls-1" x="2.88" y="2.88" width="18.24" height="18.24"/><g id="Path_75850" data-name="Path 75850"><path class="cls-2" d="M12.26,5c3.65,0,5.18,1,5.18,3.41v.67a2.68,2.68,0,0,1-2.18,2.85c1.91.49,2.55,1.58,2.55,2.84v.75c0,2.33-1.59,3.48-5.34,3.48h-.94c-3.75,0-5.34-1.15-5.34-3.48v-.75c0-1.26.64-2.35,2.55-2.85A2.68,2.68,0,0,1,6.56,9.08V8.41C6.56,6,8.09,5,11.73,5h.53m-.71,5.69h.9c1.42,0,1.88-.35,1.88-1.26V8.77c0-.92-.47-1.29-1.85-1.29h-1c-1.38,0-1.86.36-1.86,1.29v.66c0,.91.46,1.26,1.88,1.26m-.18,5.83h1.26c1.6,0,2-.51,2-1.4v-.66c0-.87-.47-1.31-2-1.31H11.32c-1.55,0-2,.44-2,1.31v.66c0,.89.4,1.4,2,1.4M12.26,4h-.53C10.2,4,5.56,4,5.56,8.41v.64a3.65,3.65,0,0,0,1,2.79,3.61,3.61,0,0,0-1.39,2.93v.75c0,3,2.14,4.48,6.34,4.48h.94c4.2,0,6.34-1.5,6.34-4.48v-.75a3.58,3.58,0,0,0-1.39-2.92,3.68,3.68,0,0,0,1-2.8V8.41C18.44,4,13.79,4,12.26,4ZM10.69,8.58a2.29,2.29,0,0,1,.84-.1h.94a2.29,2.29,0,0,1,.84.1.66.66,0,0,1,0,.19v.66a.51.51,0,0,1,0,.16,2.51,2.51,0,0,1-.86.1h-.9a2.51,2.51,0,0,1-.86-.1.51.51,0,0,1,0-.16V8.77a.66.66,0,0,1,0-.19Zm-.34,5.68a2.83,2.83,0,0,1,1-.11h1.36a2,2,0,0,1,1,.14,1.33,1.33,0,0,1,0,.17v.66a.61.61,0,0,1,0,.24h0s-.19.16-1,.16H11.37a2,2,0,0,1-1-.15,1.15,1.15,0,0,1,0-.25v-.66a.5.5,0,0,1,0-.2Z"/></g></g></g></svg>