<svg id="Layer_1" data-name="Layer 1" xmlns="http://www.w3.org/2000/svg" viewBox="0 0 24 24"><defs><style>.cls-1{fill:none;}.cls-2{fill:#fff;}</style></defs><g id="classic_ArrowDown"><g id="Group_169976" data-name="Group 169976"><rect id="Rectangle_626011-30" data-name="Rectangle 626011-30" class="cls-1" x="2.88" y="2.88" width="18.24" height="18.24"/><g id="Path_75845" data-name="Path 75845"><path class="cls-2" d="M11.89,5.16c3.39,0,5.16,1,5.16,3.47v1A2.31,2.31,0,0,1,15.47,12a2.2,2.2,0,0,1,1.58,2.28v1.06c0,2.46-1.77,3.48-5.16,3.48H7V16.2h5.38c1,0,1.4-.3,1.4-1.17v-.6c0-.88-.42-1.19-1.38-1.19h-5V10.72h5c1,0,1.38-.31,1.38-1.18V9c0-.85-.38-1.15-1.4-1.15H7V5.16h4.89m0-1H6V8.8h6.38a2.57,2.57,0,0,1,.4,0v.86a1.51,1.51,0,0,1-.38,0h-6v4.52h6a2.25,2.25,0,0,1,.38,0v.9a2.57,2.57,0,0,1-.4,0H6v4.64h5.89c4.09,0,6.16-1.51,6.16-4.48v-1A3.14,3.14,0,0,0,17.24,12a3.28,3.28,0,0,0,.81-2.38v-1c0-3-2.07-4.47-6.16-4.47Z"/></g></g></g></svg>