<svg id="Layer_1" data-name="Layer 1" xmlns="http://www.w3.org/2000/svg" viewBox="0 0 24 24"><defs><style>.cls-1{fill:none;}.cls-2{fill:#fff;}</style></defs><g id="classic_ArrowDown"><g id="Group_169977" data-name="Group 169977"><rect id="Rectangle_626011-31" data-name="Rectangle 626011-31" class="cls-1" x="2.88" y="2.88" width="18.24" height="18.24"/><g id="Path_75846" data-name="Path 75846"><path class="cls-2" d="M13.7,5H14a2.92,2.92,0,0,1,2.65,3.17V14h2.07V16.6H16.61v2.24H13.42V16.6H8.32c-2.1,0-3-1-3-2.36a4.73,4.73,0,0,1,1.24-2.75L9.81,7.15C10.89,5.65,12,5,13.46,5h.24M9.23,14h4.19V8.26c0-.29-.12-.42-.36-.42s-.29.11-.44.29L8.84,13.21a.84.84,0,0,0-.16.43c0,.22.13.38.55.38M13.7,4h-.28c-1.77,0-3.13.82-4.42,2.6L5.73,10.89a5.78,5.78,0,0,0-1.44,3.35c0,1.62,1.06,3.36,4,3.36h4.1v2.24h5.19V17.6h2.07V13H17.61V8.17A3.93,3.93,0,0,0,14.05,4ZM10.23,13l2.19-2.95V13Z"/></g></g></g></svg>